<svg xmlns="http://www.w3.org/2000/svg" width="40pt" height="40pt" viewBox="0 0 40 40"><g><path d="M20 0c11.082 0 20 8.918 20 20s-8.918 20-20 20-20-8.918-20-20 8.918-20 20-20zm0 0" fill="rgb(0%,67.45098%,42.352941%)"/><path d="M33.668 16.082h-13.668v3.086h11.25zm0 0M29.918 21.082h-9.918v3.168h7.5zm0 0" fill="rgb(0%,19.607843%,28.627451%)"/><path d="M19.918 7.832l-10.336 22.75h4.5l5.918-14.5 5.918 14.5h4.5l-10.336-22.75-.164.586zm0 0" fill="rgb(99.607843%,99.607843%,99.607843%)"/><path d="M6.332 16.082h13.668l.582 3.086h-11.832zm0 0M10.082 21.082h9.918l1.668 3.168h-9.168zm0 0" fill="rgb(0%,19.607843%,28.627451%)"/></g></svg>