<?xml version="1.0" encoding="UTF-8"?>
<svg xmlns="http://www.w3.org/2000/svg" xmlns:xlink="http://www.w3.org/1999/xlink" width="40pt" height="40pt" viewBox="0 0 40 40" version="1.1">
<g id="surface1">
<path style=" stroke:none;fill-rule:nonzero;fill:rgb(95.294118%,72.941176%,18.431373%);fill-opacity:1;" d="M 12.230469 16.808594 L 20 9.039062 L 27.773438 16.8125 L 32.292969 12.292969 L 20 0 L 7.710938 12.289062 L 12.230469 16.808594 M 0 20 L 4.519531 15.480469 L 9.039062 20 L 4.519531 24.519531 Z M 12.230469 23.191406 L 20 30.960938 L 27.773438 23.1875 L 32.292969 27.707031 L 20 40 L 7.707031 27.707031 L 12.230469 23.191406 M 30.960938 20 L 35.480469 15.480469 L 40 20 L 35.480469 24.523438 Z M 30.960938 20 "/>
<path style=" stroke:none;fill-rule:nonzero;fill:rgb(95.294118%,72.941176%,18.431373%);fill-opacity:1;" d="M 24.585938 19.996094 L 20 15.410156 L 15.410156 20 L 20 24.589844 L 24.589844 20 L 24.585938 19.996094 "/>
</g>
</svg>
