<svg xmlns="http://www.w3.org/2000/svg" width="40pt" height="40pt" viewBox="0 0 40 40"><path d="M25.66 19.621c.754.254 1.008.504 1.508.758.254.25.758.5.758 1.004.25.254.5.504.5 1.008.254.25.254.504.254 1.004 0 .504-.254 1.258-.504 1.762s-.754 1.008-1.258 1.258c-.504.254-1.008.754-1.762.754-.754.254-1.508.504-2.262.504h-.254v2.516c4.527-1.258 7.801-5.281 7.801-10.063 0-5.031-3.273-9.055-7.801-10.313v2.766c1.762 0 3.02.504 4.027 1.008 1.004.754 1.508 1.762 1.508 3.02l-.25.754-.254.754c-.25.25-.504.504-.754 1.008-.25.25-.754.5-1.258.5zm-3.02 11.574h-1.258v.25h-2.766v-.25h-1.258v-.254c-5.031-1.004-8.805-5.531-8.805-10.816 0-5.535 3.773-9.813 8.805-11.07h.25c0-.25.254-.25.254-.25h1.004c.254 0 .754-.25 1.258-.25.254 0 .504.25.504.25h1.762s0 .25.25.25c5.031 1.008 8.805 5.535 8.805 11.07 0 5.285-3.773 9.813-8.805 11.07zm-2.012-.754v-2.77h-1.762v2.77h1.762zm-3.523-.254v-2.516h-4.273c1.258 1.008 2.516 2.012 4.273 2.516zm-4.527-2.766v-2.012h2.012v-10.82h-1.758v-2.012h4.273v-2.516c-4.273 1.258-7.547 5.285-7.547 10.063 0 2.77 1.258 5.535 3.02 7.297zm6.289-17.863v3.02h1.762v-3.02h-1.762zm-.504 11.32v4.531h3.273c1.004 0 1.758-.254 2.262-.504.504-.504.754-1.008.754-1.762 0-.504-.25-1.258-.754-1.508-.504-.504-1.258-.758-2.262-.758zm0-6.289v4.277h3.02c1.008 0 1.512-.25 2.012-.504.504-.5.758-1.004.758-1.508 0-.754-.254-1.258-.504-1.508-.504-.504-1.258-.758-2.266-.758zm0 0" fill="rgb(22.352941%,19.215686%,52.156863%)"/><path d="M20.125 1.762c10.063 0 18.367 8.051 18.367 18.363 0 10.063-8.305 18.367-18.367 18.367-10.313 0-18.363-8.305-18.363-18.367 0-10.313 8.051-18.363 18.363-18.363zm0 5.785c6.793 0 12.578 5.535 12.578 12.578 0 6.793-5.785 12.578-12.578 12.578-7.043 0-12.578-5.785-12.578-12.578 0-7.043 5.535-12.578 12.578-12.578zm0 0" fill-rule="evenodd" fill="rgb(98.431373%,74.509804%,2.745098%)"/><path d="M20.125 0c11.07 0 19.875 9.055 19.875 20.125s-8.805 19.875-19.875 19.875-20.125-8.805-20.125-19.875 9.055-20.125 20.125-20.125zm0 .754c10.566 0 19.121 8.555 19.121 19.371 0 10.566-8.555 19.121-19.121 19.121-10.816 0-19.371-8.555-19.371-19.121 0-10.816 8.555-19.371 19.371-19.371zm0 0" fill-rule="evenodd" fill="rgb(22.352941%,19.215686%,52.156863%)"/></svg>