<svg xmlns="http://www.w3.org/2000/svg" width="40pt" height="40pt" viewBox="0 0 40 40"><g><path d="M39.398 24.84c-2.668 10.715-13.523 17.234-24.238 14.559-10.715-2.672-17.234-13.52-14.559-24.234 2.672-10.715 13.52-17.238 24.234-14.563 10.715 2.672 17.238 13.523 14.563 24.238zm0 0" fill="rgb(96.862745%,57.647059%,10.196078%)"/><path d="M28.82 17.152c.398-2.664-1.629-4.094-4.398-5.047l.898-3.605-2.195-.547-.879 3.508c-.574-.141-1.168-.277-1.754-.414l.879-3.531-2.195-.547-.895 3.602-4.426-1.094-.586 2.344s1.629.371 1.594.395c.891.223 1.051.813 1.023 1.277l-2.465 9.875c-.105.273-.383.676-1.004.523.023.031-1.594-.402-1.594-.402l-1.09 2.516 4.418 1.117-.906 3.648 2.191.543.898-3.605c.602.16 1.18.313 1.75.453l-.898 3.59 2.195.547.91-3.641c3.742.711 6.555.426 7.738-2.957.957-2.727-.047-4.297-2.016-5.324 1.434-.332 2.516-1.273 2.801-3.223m-5.012 7.031c-.68 2.723-5.27 1.25-6.758.883l1.207-4.832c1.488.371 6.258 1.105 5.551 3.949m.68-7.07c-.617 2.48-4.438 1.219-5.676.91l1.09-4.383c1.238.309 5.23.887 4.586 3.473" fill="#fff"/></g></svg>