<svg xmlns="http://www.w3.org/2000/svg" width="40pt" height="37pt" viewBox="0 0 40 37"><path d="M19.508.109c.875-.457 1.938.602 1.473 1.473-.266.711-1.289.898-1.809.359-.551-.52-.371-1.551.336-1.832m-9.375 1.012c.527-.219 1.199.27 1.145.844.059.629-.711 1.09-1.25.793-.715-.277-.633-1.441.105-1.637m19.203 1.652c-.824-.098-.957-1.402-.16-1.664.617-.301 1.184.266 1.273.852-.129.5-.547.957-1.113.813m-17.07 2.344c.887-.563 2.148.273 2.012 1.305-.047 1.039-1.426 1.641-2.203.938-.75-.551-.637-1.82.191-2.242m13.516.594c.395-1.02 1.996-1.051 2.445-.059.445.773-.102 1.73-.895 1.992-1.047.195-2.043-.941-1.551-1.934m-7.402 1.875c-.008-.875.789-1.527 1.621-1.59.551.113 1.152.348 1.391.906.441.766.047 1.824-.75 2.18-.363.203-.793.125-1.191.102-.605-.297-1.117-.883-1.07-1.598m-13.945 1.277c.809-.5 1.902.41 1.594 1.289-.168.762-1.188 1.07-1.773.586-.621-.457-.523-1.551.18-1.875m29.945-.004c.688-.531 1.82.082 1.738.949.047.789-.934 1.387-1.613.977-.75-.336-.828-1.492-.125-1.926m-12.078 1.578c1.133-.41 2.477.078 3.125 1.09.852 1.234.398 3.117-.926 3.824-1.367.84-3.367.129-3.871-1.402-.574-1.371.262-3.086 1.672-3.512m-6.645.133c1.258-.594 2.945-.094 3.551 1.191.715 1.25.164 2.992-1.113 3.637-1.277.727-3.078.176-3.695-1.168-.695-1.297-.078-3.063 1.258-3.66m-6.652 2.277c.098-.809.859-1.336 1.629-1.391.828.102 1.492.746 1.582 1.586-.055.832-.695 1.645-1.578 1.637-.969.086-1.816-.879-1.633-1.832m19.652-1.215c.992-.578 2.375.266 2.328 1.406.07 1.215-1.457 2.066-2.449 1.355-1.027-.59-.949-2.258.121-2.762m-15.703 4.27c1.164-.32 2.492.23 3.063 1.301.625 1.074.371 2.57-.602 3.363-1.242 1.156-3.539.691-4.199-.891-.762-1.449.164-3.391 1.738-3.773m12.602-.004c1.133-.324 2.461.109 3.066 1.141.805 1.18.422 2.941-.773 3.699-1.254.883-3.195.422-3.887-.961-.836-1.426.008-3.445 1.594-3.879m-20.082 1.344c1.004-.379 2.121.73 1.711 1.727-.246.91-1.527 1.246-2.188.574-.773-.629-.484-2.027.477-2.301m27.23 1.449c-.027-.836.582-1.574 1.434-1.621.688.109 1.359.668 1.305 1.418.063.988-1.129 1.66-1.973 1.195-.395-.199-.598-.605-.766-.992m-32.168-.961c.602-.262 1.352.262 1.211.934-.031.762-1.152 1.055-1.566.418-.363-.441-.145-1.121.355-1.352zm38.109-.016c.422-.301 1.105-.082 1.273.414.289.543-.238 1.289-.848 1.195-.859.078-1.137-1.23-.426-1.609m-22.406 3.652c1.59-.414 3.297.914 3.309 2.555.105 1.656-1.582 3.125-3.207 2.742-1.258-.203-2.246-1.414-2.207-2.688-.004-1.219.914-2.352 2.105-2.609m6.297 0c1.613-.453 3.375.898 3.348 2.574.086 1.625-1.543 3.047-3.137 2.723-1.5-.191-2.609-1.844-2.191-3.301.215-.969 1.023-1.762 1.98-1.996m-12.145 1.008c1.117-.191 2.164 1.055 1.711 2.117-.328 1.133-1.973 1.438-2.703.516-.852-.887-.215-2.512.992-2.633m18.473.051c.996-.418 2.219.441 2.141 1.527.039 1.191-1.469 2.012-2.441 1.316-1.105-.625-.902-2.461.301-2.844m5.16 5.184c-.387-.73.32-1.695 1.129-1.559.398-.008.68.309.938.574.055.434.141.949-.215 1.281-.484.613-1.586.438-1.852-.297m-29.594-1.355c.758-.504 1.844.246 1.672 1.129-.09.781-1.074 1.227-1.719.785-.695-.402-.668-1.547.047-1.914m14.906 1.633c.988-.434 2.246.426 2.152 1.516.074 1.203-1.484 2.035-2.449 1.313-1.074-.621-.895-2.445.297-2.828m-6.902 1.613c.84-.441 1.969.32 1.891 1.266.027.773-.727 1.434-1.488 1.316-.633-.012-1.047-.578-1.246-1.117.008-.59.25-1.242.844-1.465m13.98.012c.867-.535 2.098.234 2.016 1.242.02 1.055-1.367 1.73-2.176 1.035-.777-.539-.684-1.844.16-2.277m2.434 6.02c-.387-.582.066-1.285.691-1.418.504.102 1.035.48.93 1.063-.074.789-1.227 1.031-1.621.355m-19.305-.508c.156-.461.527-.918 1.07-.801.789.059 1.027 1.254.332 1.621-.621.422-1.344-.156-1.402-.82m9.313.531c.152-.684 1.035-1.016 1.617-.652.387.164.5.598.598.965l-.145.57c-.238.285-.547.566-.941.555-.738.09-1.406-.746-1.129-1.438" fill="rgb(23.529412%,78.431373%,78.431373%)"/></svg>