<svg xmlns="http://www.w3.org/2000/svg" width="40pt" height="40pt" viewBox="0 0 40 40"><g><path d="M40 20c0 11.047-8.953 20-20 20s-20-8.953-20-20 8.953-20 20-20 20 8.953 20 20zm0 0" fill="rgb(59.607843%,51.764706%,18.823529%)"/><path d="M21.148 31.004c6.898 0 12.047-3.992 12.047-11.02 0-7.031-5.148-10.988-12.078-10.988h-12.133v5.52h2.301v10.813h-2.301l.043 5.691zm-.031-5.805h-3.168v-10.395h3.199c3.566 0 5.281 2.207 5.281 5.18 0 2.77-1.98 5.215-5.313 5.215zm0 0" fill="rgb(99.607843%,99.607843%,99.607843%)"/></g></svg>