<svg xmlns="http://www.w3.org/2000/svg" width="40pt" height="40pt" viewBox="0 0 40 40"><path d="M30.594 15.078c-.25-.492-2.063-4.309-5.938-5.477-.375-.125-.688-.188-1.063-.246h-13.5v4.797h2.875v11.324h-2.875v4.922h12.813c.938-.059 3.688-.43 5.875-2.645 1.875-1.969 2.25-4.184 2.5-5.969.188-1.414.563-3.938-.688-6.707zm-6.563 7.813c-.313.68-1 2.031-2.25 2.402-.5.121-1.375.184-1.813.184h-1.188v-11.508h1c.563.063 2.313.246 3.5 1.602.563.676.75 1.352 1 2.152.188.863.75 3.016-.25 5.168zm0 0" fill="#fff"/></svg>