<svg xmlns="http://www.w3.org/2000/svg" width="40pt" height="40pt" viewBox="0 0 40 40"><defs><linearGradient id="a" gradientUnits="userSpaceOnUse" x1="1.506" x2="1.506" y2="3.012" gradientTransform="scale(13.28)"><stop offset="0" stop-color="rgb(91.764706%,0%,0.392157%)"/><stop offset="1" stop-color="rgb(73.72549%,0%,0.392157%)"/></linearGradient></defs><g fill-rule="evenodd"><path d="M40 20c0 11.047-8.953 20-20 20s-20-8.953-20-20 8.953-20 20-20 20 8.953 20 20zm0 0" fill="url(#a)"/><path d="M32.168 27.871c-4.234 3.734-10.613 5.754-15.98 3.328-.27-.121-.535-.254-.793-.398-.363-.199-.719-.422-1.063-.66 4.367 4.016 11.184 4.168 16.309 1.457.977-1.027 1.539-2.297 1.527-3.727zm-5.418 6.035c-5.801 1.098-12.551-.938-15.699-6.16-.664-1.098-1.125-2.293-1.359-3.551-2.293-5.859-.004-11.484 4.816-15.141-3.508 1.32-6.289 4.23-7.891 7.566-.801 6.414.934 12.504 6.797 15.867 3.813 2.188 9.086 2.836 13.336 1.418zm-1.441-6.289c3.168-.992 5.738-3.238 7.152-6.27 1.305-2.801 1.535-6.219.035-8.992-5.355-9.895-19.602-8.828-24.609.703 2.863-3.422 7.145-5.539 11.609-5.742 4.852-.223 10.898 2.418 12.223 7.488.332 1.277.301 2.578-.07 3.836-.43 3.801-3.043 7.137-6.34 8.977zm-12.422-10.379c-1.109 4.504 1.27 9.586 6.008 10.738.617.152 1.238.168 1.859.199 3.711-.652 6.992-2.434 8.672-5.891-2.164 1.82-5.191 3.297-8.02 2.313-4.25-.289-7.98-2.996-8.52-7.359zm6.516 6.07c-.891-.949-1.34-2.191-1.383-3.496-.055-1.75.582-4.906 2.625-5.309 1.813-1.457 4.277-1.594 6.316-.582-2.496-2.648-7.184-2.457-10.32-1.266-1.344.508-2.375 1.488-3.055 2.742-.129 4.133 1.941 6.891 5.816 7.91zm2.609-8.625c2.613 1.188.617 5.379-2.953 4.32 1.98 4.141 8.918 2.199 9.281-.93.094-.816-.012-1.613-.285-2.387-1.59-1.676-4.008-2.035-6.043-1.004zm0 0" fill="rgb(99.607843%,99.607843%,99.607843%)"/></g></svg>