<svg xmlns="http://www.w3.org/2000/svg" width="40pt" height="40pt" viewBox="0 0 40 40"><g><path d="M19.996 16.016l-9.391 4.27 9.391 5.551 9.391-5.551zm0 0" fill="rgb(0.392157%,0.392157%,0.392157%)" fill-opacity=".6"/><path d="M10.605 20.285l9.391 5.551v-21.133zm0 0" fill="rgb(0.392157%,0.392157%,0.392157%)" fill-opacity=".451"/><path d="M19.996 4.703v21.133l9.391-5.551zm0 0" fill="rgb(0.392157%,0.392157%,0.392157%)" fill-opacity=".8"/><path d="M10.605 22.063l9.391 13.234v-7.684zm0 0" fill="rgb(0.392157%,0.392157%,0.392157%)" fill-opacity=".451"/><path d="M19.996 27.613v7.684l9.395-13.234zm0 0" fill="rgb(0.392157%,0.392157%,0.392157%)" fill-opacity=".8"/><path d="M20 0c11.047 0 20 8.953 20 20s-8.953 20-20 20-20-8.953-20-20 8.953-20 20-20zm0 2.852c9.473 0 17.148 7.676 17.148 17.148 0 9.473-7.676 17.148-17.148 17.148-9.473 0-17.148-7.676-17.148-17.148 0-9.473 7.676-17.148 17.148-17.148zm0 0" fill-rule="evenodd" fill="rgb(92.156863%,92.54902%,92.54902%)"/></g></svg>