<svg xmlns="http://www.w3.org/2000/svg" width="40pt" height="40pt" viewBox="0 0 40 40"><path d="M39.031 20.125c0 10.227-8.422 18.52-18.813 18.52-10.391 0-18.813-8.293-18.813-18.52 0-10.23 8.422-18.523 18.813-18.523 10.391 0 18.813 8.293 18.813 18.523zm0 0" fill="rgb(0%,65.098039%,100%)"/><path d="M24.406 28.617v-3.816h-.063c-.563.801-1.125 1.539-1.75 2.336-.625-.797-1.188-1.598-1.75-2.336h-.063v3.816h-1.125v-5.91h1.125c.125 0 .25.125.313.246l1.313 1.91.25.367.25-.309 1.313-1.969c.125-.184.313-.309.563-.309h.625s.25.063.25.246v5.418c0 .184-.063.309-.25.309zm8.063-2.957c0 1.723-1.375 3.078-3.125 3.016-1.438 0-3-1.047-3-3.074 0-1.91 1.5-3.078 3.125-3.078 1.625.063 3.063 1.293 3 3.137zm-4.938-.059c0 .492 0 .551.25 1.043.313.617.75.926 1.438.984.75.063 1.313-.184 1.688-.797.25-.434.313-.863.313-1.355-.063-1.23-1.25-2.031-2.438-1.66-.625.121-1.25.922-1.25 1.785zm-14.813-.555v1.105h-3v1.293h3.188c.063.371.063.738 0 1.109h-4.375l-.063-.309c-.063-1.906 0-5.168.063-5.539h4.25c.125.371 0 .676.063 1.109-1.063.059-2.125 0-3.125 0v1.293c.938-.063 1.938-.063 3-.063zm6.188 3.508h-1.188c-.063 0-.188-.125-.25-.184l-1.125-1.664c-.063-.063-.125-.184-.188-.309-.063.125-.188.188-.25.246l-1.125 1.664c-.063.063-.125.184-.188.184-.375.063-.813.063-1.313 0 .625-1.047 1.375-1.969 2-2.953l-1.875-2.77c.125-.184.25-.125.438-.125.938 0 .938 0 1.438.738.25.434.563.801.875 1.293l.25-.367.938-1.418c.125-.184.25-.246.438-.246h1c-.25.617-.625.984-.938 1.48l-.938 1.414c.625.984 1.313 1.969 1.938 2.891l.063.125zm11.313-16.926l.188.434c.25.43.25.801.063 1.23-.75 2.031-1.438 4.063-2.125 6.09-.125.371-.313.742-.438 1.172-.188-.371-.375-.68-.563-.984-.313.121-.688.305-1.063.492.125-.434.25-.68.313-.984.563-1.539 1.125-3.078 1.625-4.617.25-.676.5-1.352.688-2.031.063-.184.188-.367.438-.43.313-.125.563-.371.875-.371zm-6.875-.059c.188.367.313.613.438.922.063.125 0 .246 0 .371-.563 1.66-1.188 3.32-1.75 5.043l-.688 2.031c-.063.125-.125.309-.188.555-.188-.367-.375-.738-.5-1.047-.313.125-.625.309-1 .492 0-.184 0-.246.063-.367l1.125-3.078 1.375-3.937c.125-.309.25-.492.5-.617.125-.121.313-.246.625-.367zm-5.688 7.629c.25.246.5.492.75.801l-.188.063h-7.125c-.313 0-.625-.063-.813-.371-.125-.184-.313-.309-.5-.492.25-.246.5-.555.75-.738.125-.063.25-.121.438-.121h7c.125 0 .25 0 .5.059-.313.246-.563.492-.813.801zm3.188-5.906c-.188.063-.25.063-.375.063h-7.063c-.25 0-.438-.063-.625-.246l-.438-.434c-.188-.121-.125-.246 0-.43.125-.121.25-.184.313-.309.188-.246.438-.309.813-.309h7.313c-.125.371-.5.496-.688.863l.375.371c.063.121.188.246.375.43zm4.5 2.09c.313-.184.625-.305 1-.43 0 .184 0 .246-.063.371l-1.375 4c-.063.121-.125.246-.188.305-.313.188-.625.309-1 .496l-.5-1.047c-.063-.125 0-.246.063-.309l1.375-3.938c.063-.063.125-.188.188-.309.188.246.375.555.5.859zm-14 1.234l.375-.371.438-.309-.813-.859c.125-.063.188-.063.25-.063h4.063c.375 0 .688.121.875.367l.438.492-.75.742c-.125.059-.313.121-.438.121h-4.25l-.188-.121zm0 0" fill="#fff"/></svg>