<svg xmlns="http://www.w3.org/2000/svg" width="40pt" height="40pt" viewBox="0 0 40 40"><g><path d="M18.219.863c7.5.059 12.063 1.906 15.75 5.535 3.75 3.695 5.688 8.246 5.625 13.418 0 5.539-2.125 10.277-6.25 14.031-3.938 3.508-8.563 5.105-13.875 4.922-9.688-.43-18.563-8.309-18.25-19.57.125-5.168 2.188-9.598 6-13.168 3.188-3.078 7.875-5.23 11-5.168zm3.75 29.23v-10.34h2.375c.625 0 .563 0 .625-.555 0-.367.063-.676.125-1.047l.188-1.844h-3.25v-2.094c.063-.676.25-1.047.75-1.105.25-.063.563-.063.875-.063h1.563v-3.445h-2.75c-.5 0-1.063.059-1.563.121-1.25.246-2.188.863-2.625 2.031-.25.676-.375 1.414-.438 2.152-.063.801 0 1.602 0 2.402h-2.125v3.445h2.125v10.34h4.125zm0 0" fill="rgb(16.078431%,30.980392%,57.254902%)"/><path d="M21.969 30.094h-4.25v-10.34h-2.125v-3.445h2.125c0-.801-.063-1.602 0-2.402.063-.738.188-1.477.438-2.152.438-1.168 1.438-1.785 2.625-2.031.5-.063 1.063-.121 1.563-.121h2.75v3.445h-1.563c-.313 0-.563 0-.875.063-.438.059-.688.43-.75 1.105-.063.676 0 1.355 0 2.094h3.25l-.188 1.844c-.063.371-.125.68-.125 1.047 0 .555 0 .555-.625.555h-2.375c.125 3.445.125 6.832.125 10.34zm0 0" fill="rgb(99.607843%,99.607843%,99.607843%)"/></g></svg>