<svg xmlns="http://www.w3.org/2000/svg" width="63.999" height="64.033" viewBox="0 0 3.445 3.447" shape-rendering="geometricPrecision" text-rendering="geometricPrecision" image-rendering="optimizeQuality" fill-rule="evenodd" clip-rule="evenodd"><defs><style>.fil1{fill:#1e3262}</style></defs><g id="_237266624"><path id="_237266672" d="M3.417 1.725z" fill="#fff"/><path id="_236015560" class="fil1" d="M0 1.725c0 .949.773 1.723 1.724 1.723a1.724 1.724 0 0 0 0-3.448c-.951 0-1.724.773-1.724 1.725zm.059 0c0-.919.747-1.666 1.665-1.666.916 0 1.663.747 1.663 1.666 0 .917-.747 1.664-1.663 1.664a1.666 1.666 0 0 1-1.665-1.664z"/><path id="_234762200" class="fil1" d="M.536 1.251c.441-.287.929-.457 1.754-.313l.083-.105c-.207-.075-.431-.101-.72-.097-.259.008-.727.105-.977.253l.077-.095c.174-.104.629-.239.971-.245.241-.006.364.008.651.085-.026-.048-.085-.073-.172-.113-.277-.124-.793-.136-1.216.052l.174-.099c.139-.065.368-.128.653-.122.229.004.5.083.666.247l.051.095c.132.067.208.129.251.202l.016.125.11.097.036.095-.033.141.085.111c.022.099-.043.196-.125.271a1.4 1.4 0 0 1-.486.231c-.344.087-.649.123-.892.168.109.026.257.061.498.061.516 0 .971-.243.971-.243l-.02.059c-.328.198-.848.281-1.07.271a2.395 2.395 0 0 1-.601-.101l-.168.057c.283.129.498.158.738.176.247.018.656-.041.999-.166l-.04.055a2.281 2.281 0 0 1-.736.194c-.186.008-.413 0-.611-.037a2.061 2.061 0 0 1-.455-.152l-.045.073c.569.297 1.099.304 1.704.115l-.055.053c-.666.271-1.185.166-1.588-.028l-.042-.02c.038.065.346.29.69.318.237.02.526-.02.698-.089l-.101.052a1.215 1.215 0 0 1-.611.114 1.172 1.172 0 0 1-.744-.306l-.085-.158a.475.475 0 0 1-.2-.176l-.016-.136.012-.036-.109-.101c-.041-.073-.016-.136.012-.184l-.057-.085-.01-.101.083-.166c.089-.103.231-.184.471-.263.237-.079.332-.091.51-.132.208-.048.457-.064.666-.137-.581-.101-1.184-.008-1.675.33l.032-.095zm1.979-.358l-.059.085.188.063c-.008-.057-.073-.111-.13-.148zm-1.788 1.162l-.095-.057.049.095.047-.039zm1.956-.759l.117.061c.026-.051.01-.083-.044-.13l-.073.069zm-.124.075c-.085.04-.206.081-.38.123l-.866.168c-.117.026-.439.101-.597.235l.121.073a.959.959 0 0 1 .285-.118c.228-.06.401-.087.607-.121.204-.031.591-.112.803-.189l.182-.095-.156-.077zm-1.616.895l.113-.055-.182-.081-.075.054.144.081zm-.196.018l.073.116.03-.057-.103-.059zm.289-.708c.421-.124.862-.162 1.309-.281a1.014 1.014 0 0 0-.455-.045 5.115 5.115 0 0 0-.815.164c-.099.03-.619.178-.469.385 0 .002.089-.123.431-.223zm1.576-.431l-.245-.085-.156.087.295.079.106-.081zm.208.405l-.042.035c-.095.073-.247.131-.455.186-.433.117-.747.133-1.103.221l-.21.069.212.093c.146-.042.215-.061.425-.095l.506-.095c.322-.069.793-.219.668-.413z"/></g></svg>