<svg xmlns="http://www.w3.org/2000/svg" width="40pt" height="40pt" viewBox="0 0 40 40"><g><path d="M38.5 19.801c0 10.215-8.281 18.5-18.5 18.5s-18.5-8.285-18.5-18.5c0-10.219 8.281-18.5 18.5-18.5s18.5 8.281 18.5 18.5zm0 0" fill="rgb(83.921569%,26.666667%,21.960784%)"/><path d="M18.699 15.898l2.402-2.098c-.402-.402-1-1-1.801-1.402-1.699-1-3.402-1-4.102-1-.898 0-3 .102-5 1.5-2.5 1.703-3.301 4.301-3.5 4.902-.301.898-.898 3.199.199 5.699 1.102 2.5 3.301 3.699 4.102 4.102.699.398 3.699 1.898 7.199.699.602-.199 3.5-1.301 4.801-4.5.898-2.102.602-4 .5-4.801h-8.301v2.699h4.902c-.102.301-.203.902-.5 1.402-1 1.699-3.102 2-3.602 2.098-.602.102-2.102.301-3.602-.598-2.398-1.402-2.699-4.203-2.699-4.301-.199-2.402 1.402-4 1.699-4.301.203-.199 2.102-1.898 4.602-1.5 1.102.199 1.898.699 2.301 1zm7.801 2.902h2.5v-2.602h2.5v2.602h2.5v2.5h-2.5v2.5h-2.5v-2.602h-2.5zm0 0" fill="#fff"/></g></svg>