<svg xmlns="http://www.w3.org/2000/svg" viewBox="0 0 40 40" enable-background="new 0 0 40 40"><linearGradient id="a" gradientUnits="userSpaceOnUse" x1="5.72" y1="5.572" x2="34.97" y2="36.739" gradientTransform="matrix(1 0 0 -1 0 41)"><stop offset="0" stop-color="#F6DB02"/><stop offset=".276" stop-color="#F70710"/><stop offset=".494" stop-color="#BD2C78"/><stop offset="1" stop-color="#7A38AB"/></linearGradient><path fill="url(#a)" d="M28 38.5h-15.6c-5.9 0-10.7-4.8-10.7-10.7v-15.6c0-5.9 4.8-10.7 10.7-10.7h15.6c5.9 0 10.7 4.8 10.7 10.7v15.6c0 5.9-4.8 10.7-10.7 10.7z"/><path stroke="#fff" stroke-width="3" stroke-miterlimit="10" d="M27.7 33.4h-14.5c-3.7 0-6.7-3-6.7-6.7v-13.9c0-3.7 3-6.7 6.7-6.7h14.5c3.7 0 6.7 3 6.7 6.7v13.9c0 3.7-3 6.7-6.7 6.7zm-1.1-12.6c0 3.7-3 6.7-6.7 6.7s-6.7-3-6.7-6.7 3-6.7 6.7-6.7 6.7 3 6.7 6.7z" fill="none"/><path fill="#fff" d="M30 11.8c0 .8-.6 1.4-1.4 1.4s-1.4-.6-1.4-1.4.6-1.4 1.4-1.4 1.4.6 1.4 1.4z"/></svg>