<svg xmlns="http://www.w3.org/2000/svg" width="40pt" height="40pt" viewBox="0 0 40 40"><g fill-rule="evenodd"><path d="M.262 39.707h39.445v-39.445h-39.445zm0 0" fill="rgb(0%,48.235294%,64.705882%)"/><path d="M8.301 35.07l.723.984h-1.215l-.328-.453c-.371.16-.781.246-1.207.246-1.566 0-2.937-1.168-2.937-2.938 0-1.77 1.371-2.938 2.937-2.938 1.57 0 2.938 1.168 2.938 2.938 0 .902-.355 1.645-.91 2.16m-2.023-.18c.215 0 .422-.035.609-.098l-.457-.648.793-.566.477.672c.305-.352.484-.82.484-1.34 0-1.098-.812-1.98-1.906-1.98-1.094 0-1.906.883-1.906 1.98 0 1.098.813 1.98 1.906 1.98m5.75-3.82h-.016l-.918 2.473h1.816zm1.641 4.559l-.48-1.285h-2.375l-.488 1.285h-1.098l2.18-5.434h1.254l2.176 5.434zm13.918-4.699c-1.055 0-1.906.887-1.906 1.98 0 1.094.852 1.98 1.906 1.98 1.055 0 1.906-.887 1.906-1.98 0-1.094-.852-1.98-1.906-1.98m0-.957c1.621 0 2.934 1.316 2.934 2.938 0 1.621-1.313 2.938-2.934 2.938-1.621 0-2.934-1.316-2.934-2.938 0-1.621 1.313-2.938 2.934-2.938m-5.645 3.484l-.555.609v1.563h-1.066v-5.434h1.066v2.555h.016l2.199-2.555h1.32l-2.313 2.531 2.516 2.902h-1.379zm13.621 2.172v-3.715h-.016l-1.664 2.27h-.016l-1.633-2.27h-.016v3.715h-1.066v-5.434h1.102l1.645 2.402 1.641-2.402h1.094v5.434zm-20.422 0v-.895l3.117-3.703h-3.039v-.836h4.246v.891l-3.156 3.703h3.191v.84zm0 0" fill="#fff"/><path d="M22.93 15.867l1.465 1.805c.582-.836.926-1.852.926-2.949 0-2.844-2.289-5.148-5.113-5.148-2.824 0-5.113 2.305-5.113 5.148 0 2.844 2.289 5.148 5.113 5.148.727 0 1.418-.152 2.043-.43l-1.469-1.797zm-2.723-9.086c4.355 0 7.883 3.555 7.883 7.941 0 1.969-.715 3.773-1.895 5.164l2.027 2.492h-3.566l-.598-.73c-1.141.645-2.453 1.012-3.852 1.012-4.355 0-7.883-3.555-7.883-7.938 0-4.387 3.527-7.941 7.883-7.941" fill="rgb(97.647059%,69.019608%,0%)"/></g></svg>