<svg xmlns="http://www.w3.org/2000/svg" width="40pt" height="40pt" viewBox="0 0 40 40"><g fill-rule="evenodd"><path d="M40 20c0 11.047-8.953 20-20 20s-20-8.953-20-20 8.953-20 20-20 20 8.953 20 20zm0 0" fill="rgb(0%,62.745098%,89.019608%)"/><path d="M13.199 6.602v26.797h13.402v-26.797zm4.199 25h-1.598v-1.602h1.598zm0-3.203h-1.598v-1.797h1.598zm0-3.398h-1.598v-1.801h1.598zm3.402 6.602h-1.602v-1.602h1.602zm0-3.203h-1.602v-1.797h1.602zm0-3.398h-1.602v-1.801h1.602zm3.398 6.602h-1.801v-1.602h1.801zm0-3.203h-1.801v-1.797h1.801zm0-3.398h-1.801v-1.801h1.801zm0-3.398h-8.398v-11.602h8.398zm0 0" fill="rgb(99.607843%,99.607843%,99.607843%)"/></g></svg>