<svg xmlns="http://www.w3.org/2000/svg" xmlns:xlink="http://www.w3.org/1999/xlink" width="40pt" height="40pt" viewBox="0 0 40 40"><defs><symbol overflow="visible"><path d="M.469 1.625v-8.109h4.672v8.109zm.516-.516h3.625v-7.078h-3.625zm0 0"/></symbol><symbol overflow="visible" id="b"><path d="M4.859-4.063c.207-.375.457-.648.75-.828.289-.176.633-.266 1.031-.266.531 0 .941.188 1.234.563.289.367.438.887.438 1.563v3.031h-.844v-3.016c0-.477-.09-.832-.266-1.063-.18-.238-.445-.359-.797-.359-.438 0-.781.148-1.031.438-.25.281-.375.668-.375 1.156v2.844h-.844v-3.016c0-.477-.09-.832-.266-1.063-.168-.238-.434-.359-.797-.359-.43 0-.773.148-1.031.438-.25.281-.375.668-.375 1.156v2.844h-.844v-5.031h.844v.781c.195-.313.426-.539.688-.688.27-.145.586-.219.953-.219.375 0 .691.094.953.281.258.188.453.461.578.813zm0 0"/></symbol><symbol overflow="visible" id="c"><path d="M2.859-4.453c-.449 0-.805.172-1.063.516-.262.344-.391.82-.391 1.422 0 .605.129 1.078.391 1.422.258.344.613.516 1.063.516.445 0 .801-.172 1.063-.516.258-.344.391-.816.391-1.422 0-.594-.133-1.063-.391-1.406-.262-.352-.617-.531-1.063-.531zm0-.703c.727 0 1.301.234 1.719.703.414.469.625 1.117.625 1.938 0 .824-.211 1.469-.625 1.938-.418.469-.992.703-1.719.703-.73 0-1.305-.234-1.719-.703-.418-.469-.625-1.113-.625-1.938 0-.82.207-1.469.625-1.938.414-.469.988-.703 1.719-.703zm0 0"/></symbol><symbol overflow="visible" id="d"><path d="M5.125-3.031v3.031h-.844v-3.016c0-.469-.094-.82-.281-1.063-.188-.238-.469-.359-.844-.359-.449 0-.809.148-1.078.438-.262.281-.391.668-.391 1.156v2.844h-.844v-5.031h.844v.781c.207-.301.445-.523.719-.672.27-.156.582-.234.938-.234.582 0 1.023.184 1.328.547.301.355.453.883.453 1.578zm0 0"/></symbol><linearGradient id="a" gradientUnits="userSpaceOnUse" x1="31.938" y1="2.167" x2="31.938" y2="62.667" gradientTransform="matrix(.625 0 0 .615 .031 0)"><stop offset="0" stop-color="rgb(21.568627%,22.745098%,27.058824%)"/><stop offset="1" stop-color="rgb(9.411765%,10.196078%,11.372549%)"/></linearGradient></defs><path d="M.031 0h39.938v40h-39.938zm0 0" fill="url(#a)"/><g fill="#fff"><use xlink:href="#b" x="5.473" y="22.389"/><use xlink:href="#c" x="14.576" y="22.389"/><use xlink:href="#d" x="20.293" y="22.389"/><use xlink:href="#c" x="26.216" y="22.389"/></g></svg>