<svg xmlns="http://www.w3.org/2000/svg" width="40pt" height="40pt" viewBox="0 0 40 40"><defs><linearGradient id="a" gradientUnits="userSpaceOnUse" x1="-43.615" y1="55.926" x2="-43.751" y2="56.852" gradientTransform="matrix(43.65 0 0 -43.65 1926.767 2481.405)"><stop offset="0" stop-color="rgb(4.705882%,23.137255%,78.823529%)"/><stop offset=".62" stop-color="rgb(20.392157%,43.529412%,89.411765%)"/><stop offset="1" stop-color="rgb(36.078431%,63.921569%,100%)"/></linearGradient></defs><g><path d="M40 20c0 11.047-8.953 20-20 20s-20-8.953-20-20 8.953-20 20-20 20 8.953 20 20zm0 0" fill="url(#a)"/><path d="M15.332 14.918h9.336l-4.668-3.25zm0 0M32.418 14.832l-11.336-7.832c-.332-.168-.664-.332-1.082-.332-.418 0-.75.082-1.082.332l-11.336 7.832-.082.086h4.25l8.168-5.668 8.164 5.668 4.336-.086zm0 0" fill="rgb(92.156863%,92.54902%,92.54902%)"/><path d="M9.332 17.918h21.336v-2.086h-21.336zm0 0" fill="rgb(99.607843%,99.607843%,99.607843%)"/><path d="M9.332 27.332h21.336v-2.082h-21.336zm0 0M7.168 30.082h25.664v-2.082h-25.664zm0 0" fill="rgb(92.156863%,92.54902%,92.54902%)"/><path d="M10.332 24.668h3.586v-5.918h-3.586zm0 0M18.168 24.668h3.664v-5.918h-3.664zm0 0M26.082 24.668h3.586v-5.918h-3.586zm0 0" fill="rgb(99.607843%,99.607843%,99.607843%)"/></g></svg>