<svg xmlns="http://www.w3.org/2000/svg" width="40pt" height="40pt" viewBox="0 0 40 40"><path d="M18.281 40h-16.938v-40h16.938v4.062c0 .309 0 .309-.313.367-1.125.188-2.188.492-3.188 1.047-2 .984-3.438 2.461-4.25 4.555-.75 1.969-.813 4-.375 6.031.313 1.414 1 2.707 2.125 3.691 1.063.922 2.25 1.477 3.563 1.906 1.438.434 2.938.555 4.438.801.813.125 1.688.246 2.5.43 1.125.246 1.938.863 2.375 1.973.188.551.25 1.105.25 1.66-.063.984-.438 1.848-1.25 2.523-.813.613-1.75.859-2.75.984-1.125.121-2.25.121-3.375-.063-1.25-.121-2.375-.492-3.5-1.047-.688-.367-1.375-.859-1.938-1.414-1.313 1.293-2.563 2.586-3.875 3.875 2.625 2.711 5.875 3.816 9.563 4v4.617zm0 0l4.5-40h15.813v40h-15.813v-4.801c0-.121.063-.184.188-.184 1.5-.309 2.875-.738 4.188-1.539 1.75-1.105 3.063-2.586 3.688-4.555.563-1.785.563-3.629.188-5.477-.25-1.293-.813-2.461-1.688-3.508-1.063-1.168-2.375-1.844-3.875-2.277-1.625-.492-3.313-.613-4.938-.859-.75-.125-1.563-.184-2.313-.43-.75-.246-1.438-.617-1.938-1.293-.75-1.047-.75-2.648 0-3.754.688-1.047 1.75-1.539 2.938-1.785 1.125-.184 2.25-.125 3.375.063 1.313.184 2.438.613 3.5 1.414.188.184.438.367.625.492l3.813-3.754-.188-.125c-2.063-1.969-4.5-3.012-7.313-3.32-.188 0-.25-.063-.25-.246v-4.062zm0 0" fill="#fff"/><path d="M22.781 0v4.062c0 .184.063.246.25.246 2.813.309 5.25 1.352 7.313 3.262l.188.121-3.813 3.754-.625-.492c-1.063-.801-2.188-1.23-3.5-1.414-1.125-.184-2.25-.246-3.375-.063-1.188.184-2.25.676-2.938 1.785-.75 1.168-.75 2.77 0 3.754.5.676 1.188 1.047 1.938 1.293s1.5.309 2.313.43c1.688.246 3.375.371 4.938.863 1.5.43 2.813 1.105 3.875 2.273.875.988 1.438 2.156 1.688 3.508.375 1.848.438 3.695-.188 5.48-.625 1.969-1.938 3.445-3.688 4.551-1.313.801-2.688 1.293-4.188 1.539-.125 0-.188.063-.188.184v4.801h-4.5v-4.738c-3.688-.184-6.938-1.293-9.563-4l3.875-3.875c.563.551 1.25 1.047 1.938 1.414 1.125.555 2.25.922 3.5 1.047 1.125.121 2.25.184 3.375.063 1-.125 1.938-.371 2.75-.984.813-.617 1.188-1.48 1.25-2.523 0-.555 0-1.109-.25-1.664-.375-1.105-1.25-1.723-2.375-1.969-.813-.184-1.625-.309-2.5-.43-1.5-.246-3-.371-4.438-.801-1.313-.367-2.563-.984-3.563-1.906-1.125-.984-1.813-2.277-2.125-3.695-.438-2.027-.438-4.059.375-6.027.813-2.031 2.25-3.508 4.25-4.555 1-.492 2.063-.863 3.188-1.047.313-.063.313-.063.313-.371v-4.059c1.5.184 3 .184 4.5.184zm0 0"/></svg>