<svg xmlns="http://www.w3.org/2000/svg" width="40pt" height="40pt" viewBox="0 0 40 40"><path d="M16.816 39.758c-2.516-.387-5.863-1.684-7.902-3.066-5.66-3.84-8.914-9.93-8.914-16.691 0-7.66 4.234-14.52 11.043-17.887 5.703-2.824 12.191-2.816 17.879.02 4.801 2.395 8.434 6.617 10.094 11.738 1.254 3.863 1.254 8.391 0 12.258-1.68 5.18-5.523 9.586-10.371 11.895-3.645 1.738-7.809 2.348-11.828 1.734zm.867-11.645v-4.805h2.25c2.813 0 4.691-.23 5.707-.691 1.57-.715 2.973-2.609 3.461-4.684.266-1.133.316-3.641.094-4.813-.434-2.289-1.641-4.047-3.387-4.941l-1.082-.551-11.297-.102v25.391h4.254zm0-12.684v-3.672l2.426.09c1.934.07 2.57.148 3.129.395 1.141.508 1.695 1.574 1.691 3.25-.008 1.637-.832 2.867-2.164 3.234-.316.09-1.59.211-2.828.27l-2.254.105zm0 0" fill="rgb(0.392157%,59.607843%,86.666667%)"/></svg>