<svg xmlns="http://www.w3.org/2000/svg" width="40pt" height="40pt" viewBox="0 0 40 40"><g><path d="M20 0c11.082 0 20 8.918 20 20s-8.918 20-20 20-20-8.918-20-20 8.918-20 20-20zm0 0" fill="rgb(94.117647%,5.882353%,5.882353%)"/><path d="M5.418 13.418c5.582 0 7.25-.586 9.25.664 2.582 1.668 2.082 5.418.5 6.586-3.586 2.664-10.586 1.5-12.336.664 4.418.586 8.418 1 10.586-1 1.414-1.332.832-4.582-.086-5.332-.75-.668-.914-.918-2.664-.918-1.418.086-1.418.5-1.418 1.086v6.082h-1.918v-6c0-.668.086-1.082-2-1.168.086-.332.086-.414.086-.664zm3.832 9.582v3.168c0 1.332.832 1.914 2.332 2v.582h-6.082v-.668c1.5-.082 1.918-.832 1.918-1.832v-3.332c.582.082 1.25.082 1.832.082zm0 0M18.918 26.332c.082 1.418.414 1.918 1.914 1.918v.582h-5v-.664c1.5-.086 1.918-.75 1.918-1.836l.582-11.164c0-.668.086-1.086-2-1.168v-.668h3.918c0 .75.168 1.25.5 1.918l4.832 10.25.086.168.082-.168 5.082-10.332c.336-.668.5-1.168.5-1.918h3.918v.668c-2.082 0-2 .414-2 1.164l.082 11.168c.086 1.082.418 1.75 1.918 1.832v.668h-5.668v-.582c1.586 0 1.918-.5 1.918-1.918l-.168-9.832-6 12.414h-.414l-5.668-12.332zm0 0" fill="rgb(99.607843%,99.607843%,99.607843%)"/></g></svg>