<svg xmlns="http://www.w3.org/2000/svg" width="40pt" height="40pt" viewBox="0 0 40 40"><path d="M33.57 13.043c0-3.648-2.953-6.605-6.602-6.605h-9.332c-3.008 0-5.578 2.027-6.355 4.832h11.277c4.34 0 6.18 2.02 6.18 6.758v10.703c2.801-.781 4.832-3.359 4.832-6.355zm0 0" fill="rgb(16.078431%,27.058824%,58.039216%)"/><path d="M6.43 26.957c0 3.648 2.957 6.605 6.602 6.605h9.332c3.012 0 5.578-2.027 6.355-4.832h-11.277c-4.336 0-6.18-2.02-6.18-6.758v-10.703c-2.797.781-4.832 3.359-4.832 6.359zm0 0" fill="rgb(91.764706%,36.862745%,12.54902%)"/><path d="M25.324 16.867v-.027c.523-.164 1.223-.602 1.223-1.746 0-1.289-1.047-1.879-2.52-1.879h-2.504v3.082h-1.469c-1.98 0-2.387 1.387-2.387 2.145 0 1.074.621 1.551 1.766 2.121.695.348 1.531.563 1.531 1.355 0 .418-.391.926-1.223.926h-1.551c.234-.402.328-.836.328-1.215 0-.492-.172-2.473-2.926-2.473h-2.25v7.629h1.531v-3.324l.621.621h4.188c1.957 0 2.891-1.008 2.891-2.211 0-.426-.078-.77-.215-1.047h1.57c2.422 0 2.988-1.203 2.988-2.145 0-.957-.621-1.664-1.594-1.813zm-9.73 5.977h-.719v-2.496h.719c.891 0 1.297.543 1.297 1.203 0 .613-.367 1.293-1.297 1.293zm5.93-4.734v1.852c-.367-.223-.793-.398-1.238-.59-.484-.215-1.008-.488-1.008-1.098 0-.313.195-.773 1.125-.773h1.723zm1.535-3.703h.695c1.184 0 1.242.727 1.242.949 0 .328-.176.941-1.184.941h-.754zm.871 5.215h-.871v-2.121h.871c1.066 0 1.359.512 1.359 1.059 0 .539-.391 1.063-1.359 1.063zm0 0" fill="rgb(16.078431%,27.058824%,58.039216%)"/><path d="M20 0c11.047 0 20 8.953 20 20s-8.953 20-20 20-20-8.953-20-20 8.953-20 20-20zm0 2.852c9.473 0 17.148 7.676 17.148 17.148 0 9.473-7.676 17.148-17.148 17.148-9.473 0-17.148-7.676-17.148-17.148 0-9.473 7.676-17.148 17.148-17.148zm0 0" fill-rule="evenodd" fill="rgb(92.156863%,92.54902%,92.54902%)"/></svg>