<svg xmlns="http://www.w3.org/2000/svg" width="40pt" height="40pt" viewBox="0 0 40 40"><path d="M13.934 29.52c1.777 1.262 5.039-.313 7.348-3.512l.098-.125c1.273-1.816.832-4.328-.977-5.613-1.809-1.281-4.305-.852-5.574.965l-.086.137c-2.215 3.27-2.586 6.887-.809 8.148" fill="rgb(92.941176%,50.588235%,9.019608%)"/><path d="M15.754 27.102c1.234.855 3.52-.234 5.148-2.438l.07-.086c.43-.594.602-1.336.477-2.059-.125-.723-.535-1.367-1.137-1.781-1.262-.875-3.008-.57-3.902.68l-.063.094c-1.559 2.25-1.832 4.73-.594 5.59" fill="rgb(93.333333%,73.333333%,9.411765%)"/><path d="M8.07 16.703c-.187.242-.277.602.227.445 1.449-.449 4.727-.977 8.531 1.664 5.141 3.566 4.723-5.676 4.723-5.676-1.219-.844-7.363-4.277-13.48 3.566m19.539 13.93c.023.523.332.316.492.066 5.289-8.27.023-12.824-1.18-13.676 0 0-8.781 2.676-3.727 6.258 3.746 2.652 4.352 5.863 4.414 7.352" fill="rgb(35.686275%,41.568627%,44.705882%)"/><path d="M22.27 24.68c1.004.742 1.613.863 2.34-.035.73-.902 4.566-5.402 8.398-10.359 3.832-4.961 1.496-13.496 1.035-13.836l-.008.008.004-.012c-.457-.34-8.91.227-12.074 5.68-3.164 5.457-5.91 10.758-6.473 11.781-.563 1.023-.25 1.582.754 2.324l3.012 2.227 3.012 2.223" fill="rgb(86.27451%,94.901961%,97.647059%)"/><path d="M23.402 25.777h-.043c-.457-.012-.934-.219-1.598-.684-.465-.332-1.758-1.246-3.051-2.16l-.074-.055-2.031-1.438-1.098-.777c-.66-.465-1.012-.848-1.18-1.277-.258-.672.02-1.285.254-1.688l.648-1.168c1.129-2.035 3.48-6.273 6.078-10.563.934-1.543 2.363-2.84 4.25-3.852.996-.535 2.66-1.273 4.926-1.746.895-.184 1.813-.313 2.586-.355 1.18-.066 1.391.082 1.492.156l.008.004c.105.074.313.242.641 1.359.223.75.41 1.664.539 2.578.348 2.508.531 7.207-2.16 10.539-3.145 3.902-6.324 7.555-7.852 9.309-.418.477-.719.82-.875 1.008-.23.27-.453.469-.688.602-.234.133-.504.207-.773.207m10.227-24.781c-.828 0-2.637.172-4.676.797-2.211.676-5.188 2.039-6.789 4.691-2.59 4.273-4.934 8.5-6.063 10.531l-.656 1.18c-.27.469-.242.691-.188.832.09.227.352.488.824.824l1.098.777 2.031 1.438.078.051c1.289.914 2.586 1.832 3.051 2.16.98.695 1.27.629 1.762.047l.883-1.02c1.523-1.75 4.695-5.391 7.828-9.277 1.949-2.41 2.223-5.684 2.113-8.008-.117-2.512-.719-4.512-.957-5.008l-.34-.016" fill="rgb(35.686275%,41.568627%,44.705882%)"/><path d="M25.363 12.449c1.602 1.129 3.816.746 4.941-.855 1.125-1.602.742-3.816-.855-4.945-1.602-1.129-3.816-.746-4.941.855-1.129 1.605-.742 3.816.855 4.945" fill="rgb(99.607843%,99.607843%,99.607843%)"/><path d="M27.398 13.598c-1.508-.004-2.891-.848-3.586-2.188-.691-1.344-.582-2.957.285-4.191.617-.879 1.559-1.477 2.617-1.66 1.059-.18 2.145.063 3.023.684 1.824 1.285 2.262 3.816.977 5.637-.617.883-1.559 1.477-2.617 1.66-.23.039-.465.059-.699.059m.012-7.098c-.176 0-.352.016-.523.047-.797.137-1.508.586-1.969 1.246-.969 1.375-.637 3.277.734 4.246 1.375.969 3.277.641 4.246-.734.965-1.375.637-3.277-.738-4.246-.512-.363-1.121-.559-1.75-.559" fill="rgb(35.686275%,41.568627%,44.705882%)"/><path d="M4.055 39.711l5.621-7.906.406.289-5.617 7.906zm3.223-1.008l3.285-4.648.41.293-3.285 4.645zm0 0" fill="rgb(59.215686%,59.215686%,59.215686%)"/></svg>