<svg xmlns="http://www.w3.org/2000/svg" width="40pt" height="40pt" viewBox="0 0 40 40"><g fill-rule="evenodd"><path d="M19.871 0c11.098 0 20.129 9.031 20.129 19.871 0 11.098-9.031 20.129-20.129 20.129-10.84 0-19.871-9.031-19.871-20.129 0-10.84 9.031-19.871 19.871-19.871zm0 0" fill="rgb(32.54902%,68.235294%,58.039216%)"/><path d="M22.453 17.289v-2.836h6.707v-4.648h-18.32v4.648h6.707v2.836c-5.418.258-9.805 1.293-9.805 2.582 0 1.547 4.387 2.582 9.805 2.84v9.547h4.906v-9.547c5.418-.258 9.547-1.293 9.547-2.84 0-1.289-4.129-2.324-9.547-2.582zm0 4.645h-4.906c-4.902-.258-8.516-1.289-8.516-2.063 0-1.031 3.613-2.066 8.516-2.324v3.355c.258 0 1.293.258 2.582.258 1.547 0 2.066-.258 2.324-.258v-3.355c4.902.258 8.516 1.293 8.516 2.324 0 .773-3.613 1.805-8.516 2.063zm0 0zm0 0" fill="#fff"/></g></svg>