<svg xmlns="http://www.w3.org/2000/svg" width="40pt" height="40pt" viewBox="0 0 40 40"><path d="M40 20c0 11.047-8.953 20-20 20s-20-8.953-20-20 8.953-20 20-20 20 8.953 20 20zm0 0"/><path d="M33.141 14.078c-1.133-.793-2.348-1.641-3.535-2.477l-.086-.063c-.129-.098-.281-.203-.465-.262l-.012-.004c-3.176-.77-6.398-1.555-9.523-2.316-2.832-.688-5.656-1.375-8.488-2.066l-.227-.059c-.254-.07-.551-.148-.863-.109-.094.012-.172.043-.242.09l-.078.066c-.125.117-.191.27-.223.355l-.02.051v.301l.012.047c1.789 5.016 3.625 10.105 5.395 15.031 1.367 3.789 2.781 7.715 4.164 11.57.086.266.328.434.633.461h.063c.285 0 .531-.137.656-.359l5.195-7.574 3.797-5.535c.516-.754 1.035-1.516 1.555-2.27.852-1.246 1.73-2.531 2.602-3.785l.047-.063v-.078c.02-.23.023-.703-.355-.953m-6.086 2.762c-1.219.637-2.465 1.293-3.719 1.941.73-.781 1.465-1.566 2.191-2.348.91-.984 1.863-2 2.793-2.996l.02-.02.281-.309.227-.23 1.449 1.008c.34.246.688.488 1.039.73-1.441.734-2.883 1.488-4.281 2.223m-3.133-.316c-.938 1.016-1.91 2.059-2.871 3.09-1.871-2.27-3.777-4.57-5.629-6.793l-2.523-3.035-.008-.008-.555-.676-.367-.445c.758.195 1.527.379 2.281.559.66.156 1.352.32 2.027.488 3.801.926 7.609 1.852 11.414 2.777-1.266 1.348-2.539 2.719-3.77 4.043m-3.301 12.781c.074-.688.152-1.398.219-2.09l.176-1.676c.094-.871.191-1.773.27-2.66l.02-.156c.066-.566.133-1.148.172-1.734l.234-.109.297-.145c1.512-.793 3.027-1.586 4.551-2.375 1.512-.785 3.066-1.598 4.609-2.406-1.402 2.035-2.813 4.086-4.18 6.086-1.172 1.711-2.379 3.477-3.578 5.215l-1.43 2.082c-.523.762-1.063 1.543-1.586 2.324.066-.789.145-1.582.227-2.355m-9.141-19.102l-.254-.707c1.77 2.137 3.555 4.289 5.293 6.371.898 1.082 1.797 2.16 2.695 3.246l.523.633c.223.266.445.551.688.816-.078.676-.145 1.359-.215 2.016l-.145 1.383v.008c-.02.293-.059.59-.094.879l-.148 1.305-.008.043c-.117 1.324-.262 2.664-.398 3.961-.063.539-.113 1.09-.172 1.641l-.105-.289-.289-.805-.699-1.949c-2.223-6.184-4.449-12.359-6.672-18.551" fill="#fff"/></svg>