<svg xmlns="http://www.w3.org/2000/svg" width="15.768mm" height="13.946mm" viewBox="0 0 2.95187 2.61081" shape-rendering="geometricPrecision" text-rendering="geometricPrecision" image-rendering="optimizeQuality" fill-rule="evenodd" clip-rule="evenodd"><defs><style type="text/css"><![CDATA[
    .str0 {stroke:#FEFEFE;stroke-width:0.0142654}
    .fil3 {fill:none;fill-rule:nonzero}
    .fil1 {fill:#E41D2C}
    .fil0 {fill:#FAB62A}
    .fil2 {fill:#FEFEFE}
    .fil4 {fill:#0060AA;fill-rule:nonzero}
    .fil5 {fill:#F7A82D;fill-rule:nonzero}
   ]]></style></defs><g id="_237347416"><path id="_237430800" class="fil0" d="M2.161 2.611l.04-.001.039-.003.039-.005.038-.007.037-.009.037-.01.036-.012.035-.014.034-.016.033-.017.032-.019.032-.02.03-.022.029-.023.028-.024.027-.026.026-.027.024-.028.023-.029.022-.03.02-.032.019-.032.017-.033.016-.035.014-.035.012-.036.01-.037.009-.037.007-.038.005-.039.003-.04.001-.04-.001-.04-.003-.039-.005-.039-.007-.038-.009-.037-.01-.037-.012-.036-.014-.035-.016-.034-.017-.033-.019-.032-.02-.032-.022-.03-.023-.029-.024-.028-.026-.027-.027-.026-.028-.024-.029-.023-.03-.022-.032-.02-.032-.019-.033-.017-.034-.016-.035-.014-.036-.012-.037-.01-.037-.009-.038-.007-.039-.005-.039-.003-.04-.001-.04.001-.04.003-.039.005-.038.007-.037.009-.037.01-.036.012-.035.014-.034.016-.033.017-.032.019-.031.02-.03.022-.029.023-.028.024-.027.026-.026.027-.024.028-.023.029-.021.03-.02.032-.019.032-.017.033-.015.034-.014.035-.012.036-.01.037-.009.037-.007.038-.005.039-.003.039-.001.04.001.04.003.04.005.039.007.038.009.037.01.037.012.036.014.035.015.035.017.033.019.032.02.032.021.03.023.029.024.028.026.027.027.026.028.024.029.023.03.022.031.02.032.019.033.017.034.016.035.014.036.012.037.01.037.009.038.007.039.005.04.003.04.001z"/><path id="_237431568" class="fil1" d="M1.123 2.611l.04-.001.04-.003.039-.005.038-.007.037-.009.037-.01.036-.012.035-.014.034-.016.033-.017.032-.019.031-.02.03-.022.029-.023.028-.024.027-.026.026-.027.024-.028.023-.029.021-.03.02-.032.019-.032.017-.033.015-.035.014-.035.012-.036.01-.037.009-.037.007-.038.005-.039.003-.04.001-.04-.001-.04-.003-.039-.005-.039-.007-.038-.009-.037-.01-.037-.012-.036-.014-.035-.015-.034-.017-.033-.019-.032-.02-.032-.021-.03-.023-.029-.024-.028-.026-.027-.027-.026-.028-.024-.029-.023-.03-.022-.031-.02-.032-.019-.033-.017-.034-.016-.035-.014-.036-.012-.037-.01-.037-.009-.038-.007-.039-.005-.04-.003-.04-.001-.04.001-.04.003-.039.005-.038.007-.037.009-.037.01-.036.012-.035.014-.035.016-.033.017-.032.019-.032.02-.03.022-.029.023-.028.024-.027.026-.026.027-.024.028-.023.029-.022.03-.02.032-.019.032-.017.033-.016.034-.014.035-.012.036-.01.037-.009.037-.007.038-.005.039-.003.039-.001.04.001.04.003.04.005.039.007.038.009.037.01.037.012.036.014.035.016.035.017.033.019.032.02.032.022.03.023.029.024.028.026.027.027.026.028.024.029.023.03.022.032.02.032.019.033.017.035.016.035.014.036.012.037.01.037.009.038.007.039.005.04.003.04.001z"/><path id="_237431112" class="fil0" d="M1.551 1.358h.412v-.042h-.376l-.036.042z"/><path id="_237266936" class="fil0" d="M1.49 1.451h.474v-.042h-.449l-.025.042z"/><path id="_483495408" class="fil0" d="M1.444 1.545h.52v-.042h-.501l-.018.042z"/><path id="_483494928" class="fil0" d="M1.412 1.638h.551v-.042h-.538l-.013.042z"/><path id="_483495240" class="fil0" d="M1.43 2.091h.534v-.042h-.547l.013.042z"/><path id="_483495816" class="fil0" d="M1.47 2.184h.495v-.042h-.514l.02.042z"/><path id="_237266056" class="fil0" d="M1.525 2.278h.439v-.042h-.466l.026.042z"/><path id="_234756248" class="fil0" d="M1.601 2.371h.363v-.042h-.4l.037.042z"/><path id="_237266224" class="fil0" d="M1.393 1.732h.57v-.042h-.562l-.008.042z"/><path id="_483495552" class="fil0" d="M1.741 1.997h.217v-.042h-.209l-.008.042z"/><path id="_483495504" class="fil0" d="M1.758 1.904h.2v-.042h-.192l-.008.042z"/><path id="_237274184" class="fil0" d="M1.379 1.862h.056v.042h-.054l-.003-.042z"/><path id="_483495744" class="fil2" d="M1.274 1.811h-.004l-.004-.001-.003-.001-.003-.001-.003-.001-.003-.001-.003-.001-.004-.001h-.029000000000000005l-.007.001h-.008l-.005.001-.005.001-.004.002-.004.002-.004.002-.003.002-.003.003-.002.002-.002.003-.001.003-.001.003v.003l.001.003.001.003.002.003.003.003.005.005.006.004.007.003.008.003.008.003.009.003.009.003.008.003.008.004.007.006.007.007.005.008.004.01.003.012.001.014-.001.016-.002.012-.003.011-.004.01-.005.009-.006.008-.007.007-.007.006-.008.005-.008.004-.009.003-.009.003-.009.002-.009.002-.009.001-.009.001h-.055l-.007-.001-.006-.001-.006-.001-.005-.001-.005-.001-.005-.001-.004-.001-.004-.001-.004-.002-.004-.002-.004-.002.012-.058h.002l.003.001.004.001.004.001.005.001.005.001.006.001.006.001.007.001.007.001.007.001.007.001h.032l.008-.002.006-.002.005-.003.004-.004.003-.004.002-.004.001-.004.001-.004.001-.008-.002-.007-.004-.005-.007-.004-.008-.004-.009-.004-.01-.004-.01-.004-.01-.005-.01-.006-.009-.007-.008-.008-.007-.01-.005-.012-.002-.014v-.017l.001-.01.002-.01.003-.009.003-.008.004-.008.005-.007.005-.007.007-.006.008-.005.008-.004.009-.004.01-.003.012-.002.013-.002.014-.001h.049l.007.001.006.001.005.001.005.001.004.001.004.001.003.001.003.001h.005l.002.001h.002l-.013.059z"/><path id="_234708968" class="fil3 str0" d="M1.274 1.811h-.004l-.004-.001-.003-.001-.003-.001-.003-.001-.003-.001-.003-.001-.004-.001h-.029000000000000005l-.007.001h-.008l-.005.001-.005.001-.004.002-.004.002-.004.002-.003.002-.003.003-.002.002-.002.003-.001.003-.001.003v.003l.001.003.001.003.002.003.003.003.005.005.006.004.007.003.008.003.008.003.009.003.009.003.008.003.008.004.007.006.007.007.005.008.004.01.003.012.001.014-.001.016-.002.012-.003.011-.004.01-.005.009-.006.008-.007.007-.007.006-.008.005-.008.004-.009.003-.009.003-.009.002-.009.002-.009.001-.009.001h-.055l-.007-.001-.006-.001-.006-.001-.005-.001-.005-.001-.005-.001-.004-.001-.004-.001-.004-.002-.004-.002-.004-.002.012-.058h.002l.003.001.004.001.004.001.005.001.005.001.006.001.006.001.007.001.007.001.007.001.007.001h.032l.008-.002.006-.002.005-.003.004-.004.003-.004.002-.004.001-.004.001-.004.001-.008-.002-.007-.004-.005-.007-.004-.008-.004-.009-.004-.01-.004-.01-.004-.01-.005-.01-.006-.009-.007-.008-.008-.007-.01-.005-.012-.002-.014v-.017l.001-.01.002-.01.003-.009.003-.008.004-.008.005-.007.005-.007.007-.006.008-.005.008-.004.009-.004.01-.003.012-.002.013-.002.014-.001h.049l.007.001.006.001.005.001.005.001.004.001.004.001.003.001.003.001h.005l.002.001h.002z"/><path class="fil2" d="M1.335 1.687h.072l-.011.063h.044l-.009.059-.046-.001-.025.146v.005l.001.004.003.003.003.003.005.002.005.002.006.001.006.001h.006l.005-.001.005-.001.004-.001.003-.001.002-.001.002-.001h.001l-.009.049-.002.001-.002.001-.002.001-.002.001-.002.001-.002.001-.002.001-.002.001-.003.001-.003.001-.003.001-.003.001-.003.001-.004.001-.004.001-.004.001h-.02l-.01-.001-.009-.001-.008-.002-.007-.002-.006-.002-.005-.003-.004-.003-.003-.003-.003-.004-.002-.004-.001-.004-.001-.005v-.012l.001-.006.001-.007.05-.285z"/><path class="fil3 str0" d="M1.335 1.687h.072l-.011.063h.044l-.009.059-.046-.001-.025.146v.005l.001.004.003.003.003.003.005.002.005.002.006.001.006.001h.006l.005-.001.005-.001.004-.001.003-.001.002-.001.002-.001h.001l-.009.049-.002.001-.002.001-.002.001-.002.001-.002.001-.002.001-.002.001-.002.001-.003.001-.003.001-.003.001-.003.001-.003.001-.004.001-.004.001-.004.001h-.02l-.01-.001-.009-.001-.008-.002-.007-.002-.006-.002-.005-.003-.004-.003-.003-.003-.003-.004-.002-.004-.001-.004-.001-.005v-.012l.001-.006.001-.007z"/><path class="fil2" d="M1.499 1.908l-.001.004v.005l.001.005.001.005.002.005.002.005.003.005.003.004.004.004.004.004.004.004.005.003.005.003.005.002.005.002.005.001.007.001.007.001.007.001.007.001h.021l.007-.001.007-.001.007-.001.007-.002.007-.002.007-.003.008-.003.007-.004.008-.004-.01.064-.004.002-.004.002-.004.002-.004.002-.004.001-.004.001-.004.001-.004.001-.005.001-.005.001-.005.001-.006.001h-.044l-.013-.001-.013-.002-.013-.003-.013-.004-.012-.005-.012-.007-.011-.008-.01-.009-.009-.011-.008-.012-.006-.014-.004-.015-.003-.018-.001-.019.001-.021.001-.008.002-.01.002-.01.003-.011.004-.011.005-.011.006-.012.007-.011.008-.01.01-.01.011-.009.013-.008.015-.007.017-.005.019-.003.021-.001h.01l.011.001.011.002.011.003.01.004.01.005.009.006.009.007.008.009.007.01.005.012.004.014.002.016v.018l-.002.02-.004.022-.001.016h-.191l.012-.052h.115l.001-.007v-.006l-.001-.006-.001-.005-.002-.005-.002-.004-.003-.004-.003-.004-.003-.003-.003-.003-.004-.002-.004-.002-.004-.002-.004-.001-.004-.001-.005-.001h-.005l-.005.001-.004.001-.004.002-.004.002-.004.002-.004.003-.003.003-.003.004-.003.004-.003.004-.002.004-.002.005-.002.005-.002.005-.001.005-.01.054z"/><path class="fil3 str0" d="M1.499 1.908l-.001.004v.005l.001.005.001.005.002.005.002.005.003.005.003.004.004.004.004.004.004.004.005.003.005.003.005.002.005.002.005.001.007.001.007.001.007.001.007.001h.021l.007-.001.007-.001.007-.001.007-.002.007-.002.007-.003.008-.003.007-.004.008-.004-.01.064-.004.002-.004.002-.004.002-.004.002-.004.001-.004.001-.004.001-.004.001-.005.001-.005.001-.005.001-.006.001h-.044l-.013-.001-.013-.002-.013-.003-.013-.004-.012-.005-.012-.007-.011-.008-.01-.009-.009-.011-.008-.012-.006-.014-.004-.015-.003-.018-.001-.019.001-.021.001-.008.002-.01.002-.01.003-.011.004-.011.005-.011.006-.012.007-.011.008-.01.01-.01.011-.009.013-.008.015-.007.017-.005.019-.003.021-.001h.01l.011.001.011.002.011.003.01.004.01.005.009.006.009.007.008.009.007.01.005.012.004.014.002.016v.018l-.002.02-.004.022-.001.016h-.191l.012-.052h.115l.001-.007v-.006l-.001-.006-.001-.005-.002-.005-.002-.004-.003-.004-.003-.004-.003-.003-.003-.003-.004-.002-.004-.002-.004-.002-.004-.001-.004-.001-.005-.001h-.005l-.005.001-.004.001-.004.002-.004.002-.004.002-.004.003-.003.003-.003.004-.003.004-.003.004-.002.004-.002.005-.002.005-.002.005-.001.005z"/><path class="fil2" d="M2.122 1.766l-.003-.002-.003-.002-.004-.002-.004-.002-.004-.002-.004-.002-.004-.002-.005-.002-.005-.001-.005-.001-.005-.001-.006-.001-.006-.001-.006-.001h-.019l-.007.001-.007.001-.007.001-.007.002-.007.003-.007.004-.007.005-.007.006-.007.007-.007.008-.006.01-.006.011-.006.013-.005.015-.004.017-.002.009-.001.009-.001.009v.009l.001.009.002.008.002.008.003.008.004.007.005.007.006.006.006.006.007.005.008.004.009.003.01.002.003.001.004.001.005.001.005.001h.026l.007-.001.007-.001.007-.002.007-.002.007-.003.006-.003.006-.004.005-.005-.012.07-.002.001-.002.002-.002.002-.002.002-.003.002-.004.002-.004.002-.005.002-.006.002-.007.001-.008.001-.009.001-.01.001h-.025l-.015-.001-.012-.001-.012-.003-.012-.004-.012-.005-.011-.006-.011-.008-.01-.009-.01-.01-.009-.012-.007-.013-.006-.015-.005-.016-.003-.018-.001-.019.001-.02.003-.022.002-.011.002-.01.003-.01.003-.01.003-.009.003-.009.003-.009.004-.008.004-.008.004-.008.004-.007.005-.007.005-.007.005-.006.005-.006.005-.005.006-.005.006-.005.006-.004.007-.004.007-.004.007-.003.007-.003.008-.003.008-.003.008-.002.008-.002.009-.002.009-.001.009-.001.009-.001h.018000000000000002l.008.001.008.001.008.001.007.001.007.002.007.001.006.002.006.002.005.002.005.002.004.002.004.001.003.001.002.001.002.001-.013.072z"/><path class="fil3 str0" d="M2.122 1.766l-.003-.002-.003-.002-.004-.002-.004-.002-.004-.002-.004-.002-.004-.002-.005-.002-.005-.001-.005-.001-.005-.001-.006-.001-.006-.001-.006-.001h-.02l-.007.001-.007.001-.007.001-.007.002-.007.003-.007.004-.007.005-.007.006-.007.007-.007.008-.006.01-.006.011-.006.013-.005.015-.004.017-.002.009-.001.009-.001.009v.009l.001.009.002.008.002.008.003.008.004.007.005.007.006.006.006.006.007.005.008.004.009.003.01.002.003.001.004.001.005.001.005.001h.026l.007-.001.007-.001.007-.002.007-.002.007-.003.006-.003.006-.004.005-.005-.012.07-.002.001-.002.002-.002.002-.002.002-.003.002-.004.002-.004.002-.005.002-.006.002-.007.001-.008.001-.009.001-.01.001h-.025l-.015-.001-.012-.001-.012-.003-.012-.004-.012-.005-.011-.006-.011-.008-.01-.009-.01-.01-.009-.012-.007-.013-.006-.015-.005-.016-.003-.018-.001-.019.001-.02.003-.022.002-.011.002-.01.003-.01.003-.01.003-.009.003-.009.003-.009.004-.008.004-.008.004-.008.004-.007.005-.007.005-.007.005-.006.005-.006.005-.005.006-.005.006-.005.006-.004.007-.004.007-.004.007-.003.007-.003.008-.003.008-.003.008-.002.008-.002.009-.002.009-.001.009-.001.009-.001h.018000000000000002l.008.001.008.001.008.001.007.001.007.002.007.001.006.002.006.002.005.002.005.002.004.002.004.001.003.001.002.001.002.001z"/><path class="fil2" d="M2.766 2.03h-.072l.005-.029v-.003l-.004.005-.004.005-.004.004-.005.004-.005.003-.005.003-.005.002-.005.002-.005.002-.005.001-.005.001-.005.001-.005.001-.005.001h-.01l-.014-.001-.013-.003-.012-.004-.01-.006-.009-.008-.008-.009-.007-.01-.006-.011-.005-.012-.004-.012-.003-.013-.002-.013-.001-.013v-.014l.001-.013.002-.013.004-.015.005-.015.005-.013.007-.013.007-.012.008-.01.008-.009.009-.009.009-.008.01-.007.01-.006.01-.004.01-.004.01-.002.01-.002.011-.001h.008l.007.001.007.001.006.002.006.002.005.002.005.003.005.003.004.003.004.003.003.003.003.003.003.003.002.003.002.003.002.003.018-.103h.071l-.059.342z"/><path class="fil3 str0" d="M2.766 2.03h-.072l.005-.029v-.003l-.004.005-.004.005-.004.004-.005.004-.005.003-.005.003-.005.002-.005.002-.005.002-.005.001-.005.001-.005.001-.005.001-.005.001h-.01l-.014-.001-.013-.003-.012-.004-.01-.006-.009-.008-.008-.009-.007-.01-.006-.011-.005-.012-.004-.012-.003-.013-.002-.013-.001-.013v-.014l.001-.013.002-.013.004-.015.005-.015.005-.013.007-.013.007-.012.008-.01.008-.009.009-.009.009-.008.01-.007.01-.006.01-.004.01-.004.01-.002.01-.002.011-.001h.008l.007.001.007.001.006.002.006.002.005.002.005.003.005.003.004.003.004.003.003.003.003.003.003.003.002.003.002.003.002.003.018-.103h.071z"/><path class="fil0" d="M2.648 1.967l.007-.001.007-.002.006-.002.006-.003.005-.003.005-.004.005-.004.004-.005.004-.005.004-.006.003-.006.003-.006.003-.007.002-.007.002-.007.001-.007.001-.007.001-.008v-.014l-.001-.007-.001-.007-.002-.006-.002-.006-.003-.005-.003-.005-.003-.004-.004-.004-.004-.003-.005-.002-.005-.001-.006-.001-.007.001-.007.001-.006.002-.006.003-.005.003-.005.004-.004.004-.004.005-.004.006-.004.006-.003.006-.003.007-.003.007-.002.007-.002.008-.002.008-.001.012.001.013.002.013.003.012.005.011.007.009.009.006.01.002z"/><path class="fil2" d="M1.042 1.972l-.01.058h-.066l.002-.011.001-.01.001-.007.001-.004-.004.004-.004.004-.005.004-.005.004-.006.004-.007.003-.007.003-.007.003-.008.002-.008.002-.008.002-.008.001-.008.001h-.008l-.007-.001-.007-.001-.009-.002-.008-.003-.007-.003-.007-.004-.006-.004-.005-.005-.004-.005-.004-.005-.003-.005-.003-.006-.002-.006-.002-.006-.001-.006-.001-.006-.001-.006v-.006l.001-.01.002-.01.003-.009.003-.009.004-.008.005-.008.005-.007.006-.007.007-.006.007-.005.008-.005.008-.004.008-.004.009-.003.009-.002.009-.002h.007l.003-.001h.004l.004-.001.004-.001.004-.001.004-.001h.005l.004-.001h.05199999999999999l.001-.002.002-.005.001-.005.001-.005-.001-.006-.002-.005-.003-.005-.004-.004-.005-.003-.006-.002-.006-.002-.007-.001h-.031l-.009.001-.008.001-.008.001-.008.001-.008.001-.008.001-.007.001-.006.001-.006.002-.005.002-.004.002-.003.002.019-.063.006-.002.006-.002.006-.002.006-.001.006-.001.007-.001.007-.001.007-.001.007-.001h.059000000000000004l.007.001.008.001.008.002.008.002.008.003.008.004.008.004.007.005.007.006.006.006.005.007.004.008.003.008.002.009v.01l-.002.01-.026.138z"/><path class="fil3 str0" d="M1.042 1.972l-.01.058h-.066l.002-.011.001-.01.001-.007.001-.004-.004.004-.004.004-.005.004-.005.004-.006.004-.007.003-.007.003-.007.003-.008.002-.008.002-.008.002-.008.001-.008.001h-.008l-.007-.001-.007-.001-.009-.002-.008-.003-.007-.003-.007-.004-.006-.004-.005-.005-.004-.005-.004-.005-.003-.005-.003-.006-.002-.006-.002-.006-.001-.006-.001-.006-.001-.006v-.006l.001-.01.002-.01.003-.009.003-.009.004-.008.005-.008.005-.007.006-.007.007-.006.007-.005.008-.005.008-.004.008-.004.009-.003.009-.002.009-.002h.007l.003-.001h.004l.004-.001.004-.001.004-.001.004-.001h.005l.004-.001h.05199999999999999l.001-.002.002-.005.001-.005.001-.005-.001-.006-.002-.005-.003-.005-.004-.004-.005-.003-.006-.002-.006-.002-.007-.001h-.031l-.009.001-.008.001-.008.001-.008.001-.008.001-.008.001-.007.001-.006.001-.006.002-.005.002-.004.002-.003.002.019-.063.006-.002.006-.002.006-.002.006-.001.006-.001.007-.001.007-.001.007-.001.007-.001h.059000000000000004l.007.001.008.001.008.002.008.002.008.003.008.004.008.004.007.005.007.006.006.006.005.007.004.008.003.008.002.009v.01l-.002.01z"/><path class="fil1" d="M.979 1.904v-.001l-.001-.001-.002-.001-.003-.001h-.022000000000000002l-.004.001-.004.001-.004.001-.004.001-.003.001-.003.001-.002.001-.002.001-.003.001-.003.001-.003.002-.003.002-.004.002-.003.002-.004.003-.003.003-.003.003-.003.003-.003.003-.002.004-.002.004-.001.004v.009l.001.007.003.005.003.004.004.003.004.002.004.001h.012l.007-.001.007-.001.006-.002.005-.002.005-.002.004-.002.004-.003.003-.003.003-.003.003-.003.002-.003.002-.003.002-.003.001-.003.001-.003.002-.008.002-.009.002-.008.001-.007z"/><path class="fil2" d="M.492 2.03h-.071l.059-.343h.124l.012.204.086-.204h.129l-.061.343h-.071l.045-.257h-.003l-.106.257h-.08l-.001-.011-.002-.029-.002-.041-.003-.047-.003-.047-.002-.041-.002-.03-.001-.013h-.004l-.043.257z"/><path class="fil3 str0" d="M.492 2.03h-.071l.059-.343h.124l.012.204.086-.204h.129l-.061.343h-.071l.045-.257h-.003l-.106.257h-.08l-.001-.011-.002-.029-.002-.041-.003-.047-.003-.047-.002-.041-.002-.03-.001-.013h-.004z"/><path class="fil2" d="M2.34 1.972l-.011.058h-.066l.001-.011v-.016l.001-.003-.003.004-.004.004-.005.004-.005.004-.005.003-.006.003-.007.003-.007.003-.007.002-.007.002-.007.001-.007.001-.008.001h-.007l-.007-.001-.007-.001-.009-.002-.008-.003-.007-.003-.007-.004-.006-.004-.005-.005-.004-.005-.004-.005-.003-.005-.002-.006-.002-.006-.001-.006-.001-.006-.001-.006-.001-.006v-.006l.001-.01.002-.01.002-.009.003-.009.004-.008.005-.008.005-.007.006-.007.007-.006.007-.005.008-.005.008-.004.008-.004.009-.003.009-.002.009-.002h.007l.003-.001h.004l.004-.001.004-.001.004-.001.005-.001h.004l.004-.001h.05099999999999999l.001-.002.001-.005.001-.005.001-.005-.001-.006-.002-.005-.003-.005-.004-.004-.005-.003-.006-.002-.006-.002-.006-.001h-.031l-.009.001-.008.001-.008.001-.008.001-.008.001-.008.001-.007.001-.006.001-.006.002-.005.002-.004.002-.003.002.018-.063.006-.002.006-.002.006-.002.006-.001.007-.001.007-.001.007-.001.007-.001.007-.001h.059000000000000004l.007.001.008.001.008.002.008.002.008.003.008.004.008.004.007.005.007.006.006.006.005.007.004.008.003.008.002.009v.01l-.001.01-.027.138zM2.329 2.032l.002-.002.011-.058-.003-.001-.011.058.002-.002v.004h.001v-.001l-.002.002zM2.262 2.03l.002.002h.066v-.004h-.066l.002.002h-.003v.002h.002l-.002-.002zM2.266 2.001l-.002-.002-.001.004v.016l-.001.011h.003l.001-.011.001-.009v-.009000000000000001l-.002-.002.003.002zM2.164 2.034l.007.001.007.001h.007l.008-.001.008-.001.007-.001.007-.002.007-.002.007-.003.007-.003.006-.003.006-.004.005-.004.005-.004.004-.004.003-.004-.003-.002-.003.004-.004.004-.005.004-.005.004-.005.003-.006.003-.006.003-.007.003-.007.002-.007.002-.007.001-.007.001-.008.001h-.007l-.007-.001-.007-.001-.001.003zM2.101 1.955v.006l.001.006.001.006.001.006.001.006.002.006.002.006.003.006.004.005.004.005.005.005.006.004.007.004.008.003.009.003.009.002.001-.003-.009-.002-.008-.003-.007-.003-.007-.004-.006-.004-.005-.004-.004-.005-.004-.005-.003-.005-.002-.005-.002-.006-.001-.006-.001-.006-.001-.006-.001-.006v-.006h-.004zM2.195 1.855l-.009.002-.009.002-.009.003-.008.004-.008.004-.008.005-.007.006-.007.006-.006.007-.006.007-.005.008-.004.009-.003.009-.002.009-.002.01-.001.01h.004v-.01l.002-.009.002-.009.003-.009.004-.008.005-.007.005-.007.006-.007.007-.006.007-.005.007-.005.008-.004.008-.004.009-.003.008-.002.009-.002zM2.249 1.849h-.003l-.004.001h-.008l-.004.001h-.004l-.005.001h-.004l-.004.001-.004.001h-.004l-.003.001h-.007v.003h.008l.003-.001h.004l.004-.001.004-.001.004-.001.005-.001h.004l.004-.001h.015zM2.284 1.852l.002-.001h-.007l-.005-.001h-.012l-.006-.001h-.006v.004h.013l.006.001h.018000000000000002l.002-.001-.002.001h.001v-.002l-.003-.001zM2.287 1.835v.005l-.001.005-.001.005-.001.002.003.001.001-.002.001-.005.001-.006.001-.005h-.003zM2.255 1.81h.006l.005.002.005.002.004.003.004.004.003.004.002.005.001.006h.003l-.001-.006-.002-.006-.004-.005-.004-.004-.005-.004-.006-.002-.006-.002-.007-.001zM2.143 1.822l.003.002.003-.001.003-.002.004-.002.006-.002.006-.001.007-.001.008-.001.008-.001.008-.001.008-.001.008-.001.009-.001h.031v-.003h-.007l-.008-.001h-.008l-.008.001h-.009l-.008.001-.008.001-.008.001-.008.001-.008.001-.007.001-.006.001-.006.002-.005.002-.004.002-.003.002.003.002h-.003zM2.163 1.758l-.001.001-.018.063h.003l.018-.063-.001.001-.001-.003h-.001v.001l.001-.001zM2.279 1.746l-.009-.001h-.034l-.008.001h-.008l-.007.001h-.007l-.007.001-.007.001-.007.001-.006.001-.006.002-.006.002-.006.002.001.003.006-.002.006-.002.006-.002.006-.001.007-.001.007-.001.007-.001.007-.001.007-.001h.058zM2.369 1.834l.001-.011v-.01l-.002-.009-.003-.009-.004-.008-.005-.007-.006-.007-.007-.006-.008-.005-.008-.005-.008-.004-.008-.003-.009-.002-.008-.002-.008-.001-.007-.001v.003l.007.001.008.001.008.002.008.002.008.003.008.004.008.004.007.005.007.006.006.006.005.007.004.008.003.008.002.009v.01l-.001.01.003.001zM2.341 1.972l.027-.138-.003-.001-.027.138.003.001z"/><path class="fil0" d="M2.276 1.904l-.001-.002-.001-.001-.002-.001-.003-.001h-.014l-.004.001-.004.001-.004.001-.004.001-.004.001-.003.001-.003.001-.003.001h-.002l-.002.001-.003.001-.003.001-.003.002-.003.002-.004.002-.003.002-.003.002-.003.003-.003.003-.003.003-.002.004-.002.004-.002.004-.001.004v.009l.001.007.002.005.003.004.004.003.004.002.004.001h.012l.007-.001.007-.001.006-.002.006-.002.005-.002.005-.003.004-.003.004-.003.003-.003.003-.003.002-.003.002-.003.001-.003.001-.003.001-.003.001-.007.001-.008.001-.007.001-.007z"/><path class="fil2" d="M2.815 1.994l.001-.006.002-.007.004-.006.004-.005.005-.004.006-.003.007-.002.007-.001.007.001.007.002.006.003.006.004.004.005.004.006.002.007.001.006h-.008v-.005l-.002-.006-.003-.005-.003-.004-.004-.004-.005-.003-.006-.002-.006-.001-.006.001-.006.002-.005.003-.004.004-.003.004-.003.005-.002.006-.001.005h-.008zM2.839 1.994v-.016h.017l.003.001.002.001.002.001.001.002.001.002.001.002v.004l-.001.002-.001.002-.001.001h-.011.001.002l.002-.001.001-.001.001-.001.001-.001.001-.001v-.003l-.001-.001-.001-.001-.001-.001h-.013v.01h-.007zM2.815 1.994v.002l.001.008.002.007.004.006.004.005.005.004.006.003.007.002.007.001.007-.001.007-.002.006-.003.006-.004.004-.005.004-.006.002-.007.001-.008v-.002h-.008v.002l-.001.006-.002.006-.003.005-.003.004-.004.004-.005.003-.006.002-.006.001-.006-.001-.006-.002-.005-.003-.004-.004-.003-.004-.003-.005-.002-.006-.001-.006v-.002h-.008zM2.839 1.994v.016h.007v-.013h.007l.008.013h.005l-.008-.013h.002l.002-.001.002-.001.001-.001.001-.001h-.026z"/><path class="fil3 str0" d="M2.852 2.026l.006-.001.006-.002.005-.003.004-.004.003-.004.003-.005.002-.006.001-.006-.001-.006-.002-.006-.003-.005-.003-.004-.004-.004-.005-.003-.006-.002-.006-.001-.006.001-.006.002-.005.003-.004.004-.003.004-.003.005-.002.006-.001.006.001.006.002.006.003.005.003.004.004.004.005.003.006.002.006.001zm0-.032l.002-.001h.002l.002-.001.001-.001.001-.001.001-.001.001-.001v-.003l-.001-.001-.001-.001-.001-.001h-.013v.01h.007zm-.007.016h-.007v-.032h.017l.003.001.002.001.002.001.001.002.001.002.001.002v.004l-.001.002-.001.002-.001.001-.001.001-.002.001-.002.001h-.002l.008.013h-.005l-.008-.013h-.007v.013zm-.03-.014l.001-.008.002-.007.004-.006.004-.005.005-.004.006-.003.007-.002.007-.001.007.001.007.002.006.003.006.004.004.005.004.006.002.007.001.008-.001.008-.002.007-.004.006-.004.005-.006.004-.006.003-.007.002-.007.001-.007-.001-.007-.002-.006-.003-.005-.004-.004-.005-.004-.006-.002-.007-.001-.008z"/><path class="fil2" d="M2.359 2.03h.074l.026-.149.001-.006.002-.006.002-.006.002-.006.003-.006.003-.005.003-.005.004-.005.005-.004.005-.004.006-.004.007-.003.008-.003.008-.002.009-.002.01-.001h.007l.012-.067-.007.001-.007.001-.007.001-.006.002-.006.002-.005.003-.005.003-.005.003-.005.004-.004.004-.004.004-.004.004-.004.004-.004.005-.004.005-.004.005.008-.047h-.073l-.049.28z"/><path class="fil3 str0" d="M2.359 2.03h.074l.026-.149.001-.006.002-.006.002-.006.002-.006.003-.006.003-.005.003-.005.004-.005.005-.004.005-.004.006-.004.007-.003.008-.003.008-.002.009-.002.01-.001h.007l.012-.067-.007.001-.007.001-.007.001-.006.002-.006.002-.005.003-.005.003-.005.003-.005.004-.004.004-.004.004-.004.004-.004.004-.004.005-.004.005-.004.005.008-.047h-.073l-.049.28z"/><path class="fil2" d="M1.667 2.03h.075l.025-.149.001-.006.001-.005.001-.006.002-.005.002-.005.003-.005.003-.005.004-.004.004-.004.005-.004.006-.003.006-.003.007-.002.008-.002.009-.001.01-.001h.007v-.001l.001-.003.001-.005.001-.006.002-.007.002-.007.002-.007.002-.007.002-.005.003-.005.003-.005.003-.004.002-.004.002-.003.001-.002v-.001h-.012l-.008.001-.007.001-.007.001-.006.002-.006.002-.005.003-.005.003-.005.003-.004.003-.004.004-.004.004-.004.004-.004.004-.004.005-.004.005-.004.005.009-.047h-.075l-.049.28z"/><path class="fil3 str0" d="M1.667 2.03h.075l.025-.149.001-.006.001-.005.001-.006.002-.005.002-.005.003-.005.003-.005.004-.004.004-.004.005-.004.006-.003.006-.003.007-.002.008-.002.009-.001.01-.001h.007v-.001l.001-.003.001-.005.001-.006.002-.007.002-.007.002-.007.002-.007.002-.005.003-.005.003-.005.003-.004.002-.004.002-.003.001-.002v-.001h-.012l-.008.001-.007.001-.007.001-.006.002-.006.002-.005.003-.005.003-.005.003-.004.003-.004.004-.004.004-.004.004-.004.004-.004.005-.004.005-.004.005.009-.047h-.075l-.049.28z"/><path class="fil0" d="M2.816 2.305v-.001l.002-.007.004-.006.004-.005.005-.004.006-.003.007-.002.007-.001.007.001.007.002.006.003.006.004.004.005.004.006.002.007v.001h-.008l-.002-.005-.003-.005-.003-.004-.004-.004-.005-.003-.006-.002-.006-.001-.006.001-.006.002-.005.003-.004.004-.003.004-.003.005-.002.005h-.008zM2.839 2.305v-.009h.018l.003.001.002.001.002.001.001.001.001.002.001.002v.002h-.005v-.002l-.001-.001-.001-.001-.001-.001h-.013v.005h-.007zM2.815 2.311l.001-.006h.008l-.001.005h-.008zM2.839 2.311v-.006h.007v.005h.007l.002-.001h.002l.002-.001.001-.001.001-.001.001-.001.001-.001v-.001h.005v.002l-.001.002-.001.001-.001.001h-.025zM2.881 2.311l-.001-.005h.008l.001.006h-.008zM2.815 2.311v.001l.001.008.002.007.004.006.004.006.005.004.006.003.007.002.007.001.007-.001.007-.002.006-.003.006-.004.004-.006.004-.006.002-.007.001-.008v-.001h-.008v.001l-.001.006-.002.006-.003.005-.003.004-.004.004-.005.003-.006.002-.006.001-.006-.001-.006-.002-.005-.003-.004-.004-.003-.004-.003-.005-.002-.006-.001-.006v-.001h-.008zM2.839 2.311v.015h.007v-.013h.007l.008.013h.005l-.008-.013h.002l.002-.001.002-.001.001-.001h-.025z"/><path class="fil4" d="M1.28.942h-.241l.151-.925h.241zM.836.017l-.23.636-.027-.137-.081-.416s-.01-.083-.114-.083h-.38l-.004.016s.116.024.252.106l.209.804h.251l.383-.925h-.259zM2.466.614l.127-.346.071.346h-.198zm.265.327h.221l-.193-.925h-.194c-.089 0-.111.069-.111.069l-.359.856h.251l.05-.137h.306l.028.137zM2.114.239l.034-.199-.217-.04c-.12 0-.403.052-.403.306 0 .239.333.242.333.367 0 .126-.299.103-.397.024l-.036.208s.108.052.272.052c.164 0 .412-.085.412-.317 0-.241-.336-.263-.336-.368 0-.105.235-.091.338-.034z"/><path class="fil5" d="M.579.516l-.081-.416s-.01-.083-.114-.083h-.38l-.004.016s.182.038.358.179c.167.135.222.304.222.304z"/></g></svg>