<svg xmlns="http://www.w3.org/2000/svg" width="40pt" height="40pt" viewBox="0 0 40 40"><path d="M26.656 1.602c.063.121.125.305.125.43v14.272l-.063.367v8.063c0 .246-.063.371-.313.492-1.188.617-2.313 1.293-3.5 1.906l-5.563 3.141-5.188 2.891c-1.25.68-2.438 1.418-3.688 2.094l-.688.367.063.063.313-.063c3-.797 6-1.598 8.938-2.398l8.125-2.215c2.063-.555 4.188-1.109 6.25-1.66.25-.063.375-.188.375-.434v-12.738h5.313c0 .063 0 .188.063.246v21.102h-30.316c-.625 0-1.188-.125-1.813-.184-.25-.125-.5-.246-.75-.434-.688-.43-1.063-1.105-1.25-1.785v-15.994l.125-1.23c.188-.367.25-.797.5-1.105.313-.492.75-.926 1.125-1.355l.313-.246 1.313-1.047c.063-.059.125-.121.188-.121l3.063-1.969c.188-.125.438-.246.625-.434.313-.184.625-.367.875-.551.375-.246.75-.492 1.063-.68l.438-.246 1.5-.984c1-.676 2-1.293 3.063-1.969l.875-.555.688-.43 1.25-.801.313-.184 4.563-2.953.938-.617c.313.246.563.063.75-.059zm-9.625 16.551c0 1.047.875 1.602 2.063 1.418 1.625-.246 3.063-1.664 3.188-3.078.063-.922-.688-1.539-1.813-1.477-1.688.121-3.438 1.723-3.438 3.137zm0 0" fill="rgb(99.607843%,79.607843%,0%)"/><path d="M31.844 16.676v12.738c0 .246-.063.309-.375.434-2.063.551-4.188 1.105-6.25 1.66l-8.125 2.215c-3 .801-6 1.602-8.938 2.402l-.313.059-.063-.059.688-.371c1.25-.676 2.438-1.414 3.688-2.094l5.188-2.891 5.563-3.141c1.188-.676 2.313-1.289 3.5-1.906.25-.121.313-.246.313-.492v-8.063l.063-.367h4.313c.313-.184.563-.184.75-.125zm0 0" fill="rgb(83.529412%,67.058824%,2.352941%)"/><path d="M17.031 18.152c0-1.477 1.75-3.074 3.438-3.137 1.125-.063 1.875.555 1.813 1.477-.063 1.355-1.563 2.832-3.188 3.078-1.188.246-2.063-.371-2.063-1.418zm0 0" fill="rgb(1.960784%,1.568627%,1.176471%)"/></svg>