<svg xmlns="http://www.w3.org/2000/svg" width="40pt" height="40pt" viewBox="0 0 40 40"><path d="M40 20c0 11.047-8.953 20-20 20s-20-8.953-20-20 8.953-20 20-20 20 8.953 20 20zm0 0" fill-rule="evenodd" fill="rgb(16.862745%,16.470588%,16.078431%)"/><path d="M36.816 20c0 9.289-7.527 16.816-16.816 16.816-9.289 0-16.816-7.527-16.816-16.816 0-9.289 7.527-16.816 16.816-16.816 9.289 0 16.816 7.527 16.816 16.816zm0 0" fill-rule="evenodd" fill="rgb(99.607843%,75.294118%,20%)"/><path d="M26.516 28.938c0 .457-.305.609-.758.609h-3.789v1.512c0 .305-.152.457-.453.457h-3.031c-.301 0-.453-.152-.453-.457v-1.512h-3.336c-.453 0-.758 0-.906-.305-.152-.152-.305-.453-.305-.758v-.91c0-.148 0-.301.152-.605 0-.301.152-.453.301-.605.91-1.969 1.973-3.938 3.184-5.91 1.211-2.121 2.273-4.09 3.332-5.906v-.305c0-.152-.148-.152-.301-.152h-5.305c-.453 0-.605-.301-.605-.758v-2.574c0-.305 0-.453.152-.605h3.636v-1.215c0-.301.152-.453.453-.453h3.031c.301 0 .453.152.453.453v1.215h3.184c.605 0 .906.301.906.758v1.363c0 .301 0 .605-.148.758l-.305.758c-.453.758-.91 1.816-1.516 2.727-.453.91-1.059 1.969-1.664 2.879-.457 1.059-1.063 1.969-1.668 2.879-.453 1.059-1.063 1.969-1.516 2.879v.301s0 .152.152.152h6.363c.301 0 .453 0 .453.152.152 0 .305.152.305.453zm0 0" fill="rgb(16.862745%,16.470588%,16.078431%)"/></svg>