<svg xmlns="http://www.w3.org/2000/svg" width="40pt" height="61pt" viewBox="0 0 40 61"><path d="M19.75 0c4.188 0 5.504 2.973 6.605 5.949.465 1.262 11.352 30.805 11.676 31.691.09.246.031.652-.355.797l-6.352 2.441c-.313.117-.664-.055-.781-.363-.117-.305-2.457-6.746-2.723-7.469h-16.125c-.266.723-2.633 7.176-2.742 7.469-.109.297-.449.492-.781.363-.328-.129-6.012-2.313-6.352-2.441-.324-.121-.465-.488-.355-.797.402-1.109 11.117-30.176 11.668-31.691 1.059-2.93 2.426-5.949 6.617-5.949zm-19.145 52.859c-.332 0-.605.277-.605.617v6.902c0 .348.273.621.605.621h38.285c.336 0 .605-.273.605-.621v-6.902c0-.34-.27-.617-.605-.617zm19.109-43.211l-5.453 16.227h10.992l-5.469-16.227zm0 0" fill="rgb(94.901961%,22.745098%,20.784314%)"/></svg>