<svg xmlns="http://www.w3.org/2000/svg" viewBox="0 0 63.9 65" enable-background="new 0 0 63.9 65"><style type="text/css">.st0{fill:#009DDC;} .st1{fill:#009EDE;} .st2{fill:#0A2971;}</style><path class="st0" d="M21.2 23.2l-.2.6-.6 1.8c0 .1-.1.2-.2.2h-12.6v-.2l.8-2.2v-.2h12.8z"/><path class="st1" d="M4.7 33.2l.1-.2.7-2c.1-.1.1-.2.3-.2h12.6c0 .1 0 .1-.1.2l-.8 2.2c0 .1-.1.2-.2.2h-12.7c.1-.1.1-.2.1-.2z"/><path class="st2" d="M32 34.4c.3.2.5.3.8.4 1 .6 1.7 1.4 1.9 2.5.2.9.1 1.9-.2 2.8-.6 1.4-1.7 2.2-3.1 2.4-.4.1-.7.1-1.1.1h-6c-.2 0-.3-.1-.3-.3v-15c0-.2.1-.3.3-.3h5.6c1 0 1.9.2 2.8.8 1 .7 1.5 1.6 1.6 2.8.1.9-.1 1.8-.8 2.6-.3.4-.7.7-1.2 1l-.3.2zm-4.9 3.6v1.9c0 .1 0 .2.2.2h2.4c.9 0 1.5-.5 1.7-1.3.1-.2.1-.5.1-.8 0-1.1-.7-1.9-1.8-1.9h-2.3c-.2 0-.2.1-.2.2-.1.5-.1 1.1-.1 1.7zm0-6.6v1.6c0 .2.1.2.2.2h2.3c.8-.1 1.4-.7 1.5-1.6.1-1.1-.3-1.9-1.5-2l-2.4-.1c-.1 0-.1.1-.1.2v1.7zM58.3 27.1c0 .1 0 .1-.1.2-.2.7-.5 1.4-.7 2.2-.1.2-.2.2-.3.2h-5.5c-.3 0-.3 0-.3.3v2.9c0 .2.1.3.3.3h2.6c.8 0 1.6.1 2.3.4 1.5.6 2.3 1.8 2.6 3.4.2 1 .1 2.1-.3 3-.6 1.4-1.7 2.2-3.2 2.5-.5.1-1 .1-1.5.1h-5.5c-.2 0-.3-.1-.3-.3v-15c0-.2.1-.3.3-.3h9.5c0 .1 0 .1.1.1zm-6.9 10.8v1.9c0 .1 0 .2.2.2h2.4c.5 0 1-.1 1.4-.5.4-.5.6-1 .6-1.6 0-1.3-.8-2.1-2.1-2.1h-2.3c-.2 0-.2.1-.2.2v1.9zM47.4 27.1l-.3.9-.5 1.5c-.1.2-.2.3-.4.3h-3.4c-.2 0-.3.1-.3.3v12.3c0 .3 0 .3-.3.3h-2.5c-.3 0-.3 0-.3-.3v-12.399999999999999c0-.2-.1-.3-.3-.3h-3.9c-.2 0-.3-.1-.3-.3v-2.1c0-.2.1-.2.2-.2h12.3z"/><path class="st0" d="M19.9 27l-.1.3-.8 2.1c0 .1-.1.2-.2.2h-12.6v-.2l.8-2.2c0-.1.1-.2.2-.2h12.7z"/></svg>