<svg xmlns="http://www.w3.org/2000/svg" width="40pt" height="40pt" viewBox="0 0 40 40"><path d="M20 0c-11.043 0-20 8.953-20 20 0 11.043 8.957 20 20 20 11.047 0 20.004-8.957 20.004-20 0-11.047-8.957-20-20.004-20zm-4.211 29.813c.16.09.707.438.852 1.137.094.5.031.941-.215 1.348-.301.492-.805.762-1.441.762-.328 0-.664-.078-.977-.223l-.938-.441c-4.078-2.16-6.613-6.527-6.613-11.391v-2.008c0-4.863 2.543-9.23 6.633-11.406.039-.012.918-.43.918-.43.313-.145.648-.219.973-.219.637 0 1.145.273 1.445.762.246.402.309.844.215 1.348-.164.809-.871 1.148-.879 1.152-2.379 1.082-3.918 3.531-3.918 6.25v7.098c0 2.715 1.539 5.172 3.945 6.262zm17.754-8.809c0 4.863-2.527 9.23-6.609 11.391l-.938.441c-.309.145-.645.223-.973.223-.637 0-1.141-.27-1.445-.762-.238-.406-.305-.848-.211-1.348.141-.699.684-1.047.844-1.137 2.406-1.09 3.953-3.547 3.953-6.262v-7.098c0-2.719-1.539-5.168-3.922-6.25-.004-.004-.715-.344-.875-1.152-.094-.504-.027-.945.211-1.348.305-.488.809-.762 1.445-.762.328 0 .664.074.973.219 0 0 .879.418.918.43 4.098 2.176 6.629 6.543 6.629 11.406zm0 0" fill="rgb(0%,70.588235%,88.627451%)"/></svg>