<svg width="36" height="36" viewBox="0 0 36 36" fill="none" xmlns="http://www.w3.org/2000/svg">
<path d="M14.9292 3.9145C15.7102 0.695167 20.2898 0.695167 21.0708 3.9145C21.188 4.39813 21.4177 4.84726 21.7413 5.22533C22.0649 5.6034 22.4731 5.89973 22.9329 6.0902C23.3926 6.28067 23.8908 6.35989 24.3869 6.32143C24.8831 6.28296 25.3631 6.12789 25.788 5.86883C28.6168 4.1455 31.8563 7.38317 30.133 10.2138C29.8743 10.6385 29.7195 11.1183 29.6811 11.6141C29.6427 12.1099 29.7219 12.6077 29.9121 13.0672C30.1024 13.5266 30.3984 13.9347 30.776 14.2583C31.1536 14.5818 31.6023 14.8117 32.0855 14.9292C35.3048 15.7102 35.3048 20.2898 32.0855 21.0708C31.6019 21.188 31.1527 21.4177 30.7747 21.7413C30.3966 22.0649 30.1003 22.4731 29.9098 22.9329C29.7193 23.3926 29.6401 23.8908 29.6786 24.3869C29.717 24.8831 29.8721 25.3631 30.1312 25.788C31.8545 28.6168 28.6168 31.8563 25.7862 30.133C25.3615 29.8743 24.8817 29.7195 24.3859 29.6811C23.8901 29.6427 23.3923 29.7219 22.9328 29.9121C22.4734 30.1024 22.0653 30.3984 21.7417 30.776C21.4182 31.1536 21.1883 31.6023 21.0708 32.0855C20.2898 35.3048 15.7102 35.3048 14.9292 32.0855C14.812 31.6019 14.5823 31.1527 14.2587 30.7747C13.9351 30.3966 13.5269 30.1003 13.0671 29.9098C12.6074 29.7193 12.1092 29.6401 11.6131 29.6786C11.1169 29.717 10.6369 29.8721 10.212 30.1312C7.38317 31.8545 4.14367 28.6168 5.867 25.7862C6.12569 25.3615 6.28051 24.8817 6.31889 24.3859C6.35726 23.8901 6.27811 23.3923 6.08787 22.9328C5.89762 22.4734 5.60164 22.0653 5.224 21.7417C4.84636 21.4182 4.3977 21.1883 3.9145 21.0708C0.695167 20.2898 0.695167 15.7102 3.9145 14.9292C4.39813 14.812 4.84726 14.5823 5.22533 14.2587C5.6034 13.9351 5.89973 13.5269 6.0902 13.0671C6.28067 12.6074 6.35989 12.1092 6.32143 11.6131C6.28296 11.1169 6.12789 10.6369 5.86883 10.212C4.1455 7.38317 7.38317 4.14367 10.2138 5.867C12.0398 6.98167 14.4232 5.99533 14.9292 3.9145Z"/>
<path d="M18 23.5C21.0376 23.5 23.5 21.0376 23.5 18C23.5 14.9624 21.0376 12.5 18 12.5C14.9624 12.5 12.5 14.9624 12.5 18C12.5 21.0376 14.9624 23.5 18 23.5Z" />
</svg>
