<svg width="31" height="31" viewBox="0 0 31 31" fill="none" xmlns="http://www.w3.org/2000/svg">
<path d="M5.16699 7.74996C5.16699 7.06482 5.43916 6.40774 5.92363 5.92327C6.4081 5.4388 7.06518 5.16663 7.75033 5.16663H20.667C21.0096 5.16663 21.3381 5.30271 21.5803 5.54495C21.8226 5.78718 21.9587 6.11572 21.9587 6.45829V10.3333H23.2503M5.16699 7.74996C5.16699 8.4351 5.43916 9.09218 5.92363 9.57665C6.4081 10.0611 7.06518 10.3333 7.75033 10.3333H23.2503M5.16699 7.74996V23.25C5.16699 23.9351 5.43916 24.5922 5.92363 25.0767C6.4081 25.5611 7.06518 25.8333 7.75033 25.8333H23.2503C23.5929 25.8333 23.9214 25.6972 24.1637 25.455C24.4059 25.2127 24.542 24.8842 24.542 24.5416V20.6666M23.2503 10.3333C23.5929 10.3333 23.9214 10.4694 24.1637 10.7116M23.2503 10.3333L24.1637 10.7116M24.1637 10.7116C24.4059 10.9538 24.542 11.2824 24.542 11.625M24.1637 10.7116L24.542 11.625M24.542 11.625V15.5" stroke="#7E8396" stroke-width="2" stroke-linecap="round" stroke-linejoin="round"/>
<path d="M25.833 15.5V20.6667H20.6663C19.9812 20.6667 19.3241 20.3945 18.8396 19.91C18.3552 19.4256 18.083 18.7685 18.083 18.0833C18.083 17.3982 18.3552 16.7411 18.8396 16.2566C19.3241 15.7722 19.9812 15.5 20.6663 15.5H25.833Z" stroke="#7E8396" stroke-width="2" stroke-linecap="round" stroke-linejoin="round"/>
</svg>
