<svg xmlns="http://www.w3.org/2000/svg" width="40pt" height="40pt" viewBox="0 0 40 40"><g><path d="M40 20c0 11.047-8.953 20-20 20s-20-8.953-20-20 8.953-20 20-20 20 8.953 20 20zm0 0" fill="rgb(0%,59.607843%,27.45098%)"/><path d="M14.168 22.582h-5.168l5.168-5.414zm-9.168 2.836h6.75l2.418-2.836v2.836h9.25l2.414-2.836v-5.332h-5.414l-2.836 2.75h5.418v2.582h-6v-8.164h-3.832l-10.836 11zm29.582-2.836h-5.582v-8.164h-2.832v11h8.832l2.418-2.836v-5.332h-5.168l-3.082 2.75h5.414zm0 0" fill="rgb(99.607843%,99.607843%,99.607843%)"/></g></svg>