<svg xmlns="http://www.w3.org/2000/svg" width="40pt" height="19pt" viewBox="0 0 40 19"><defs><linearGradient id="a" gradientUnits="userSpaceOnUse" x1="66.479" y1="21.979" x2="83.357" y2="21.979" gradientTransform="scale(.286 .292)"><stop offset="0" stop-color="rgb(72.941176%,7.45098%,8.627451%)"/><stop offset="1" stop-color="rgb(100%,52.54902%,0%)"/></linearGradient><linearGradient id="b" gradientUnits="userSpaceOnUse" x1="66.144" y1="57.958" x2="84.029" y2="57.958" gradientTransform="scale(.286 .292)"><stop offset="0" stop-color="rgb(72.941176%,7.45098%,8.627451%)"/><stop offset="1" stop-color="rgb(100%,52.54902%,0%)"/></linearGradient></defs><path d="M21.344 1.344c-.059-.117-.145-.262-.316-.41-.313-.262-.656-.32-.797-.348-.258-.031-.488 0-.715.086-.602.203-1.059.672-1.285 1.285l-3.602 9.531 2.141.789.945-2.281h4.484l1.031 2.281 2.199-.645zm-3.145 6.754l1.715-4.531 1.715 4.531zm0 0" fill="url(#a)"/><path d="M14.258 15.754h11.398v2.371h-11.398zm0 0" fill="url(#b)"/></svg>