<?xml version="1.0" encoding="utf-8"?>
<!-- Generator: Adobe Illustrator 22.0.0, SVG Export Plug-In . SVG Version: 6.00 Build 0)  -->
<svg version="1.1" id="Слой_1" xmlns="http://www.w3.org/2000/svg" xmlns:xlink="http://www.w3.org/1999/xlink" x="0px" y="0px"
	 viewBox="0 0 48 48" enable-background="new 0 0 48 48" xml:space="preserve">
<g id="__x0023_Layer_x0020_1">
	<g id="_394194016">
		<g>
			
				<linearGradient id="_78941696_1_" gradientUnits="userSpaceOnUse" x1="-43.6146" y1="55.9261" x2="-43.7508" y2="56.8521" gradientTransform="matrix(52.3805 0 0 -52.3805 2312.1208 2977.6863)">
				<stop  offset="0" style="stop-color:#0C3BC9"/>
				<stop  offset="0.6196" style="stop-color:#346FE4"/>
				<stop  offset="1" style="stop-color:#5CA3FF"/>
			</linearGradient>
			<circle id="_78941696" fill="url(#_78941696_1_)" cx="24" cy="24" r="24"/>
			<defs>
				<filter id="Adobe_OpacityMaskFilter" filterUnits="userSpaceOnUse" x="7" y="2.8" width="34.1" height="23.6">
					<feColorMatrix  type="matrix" values="1 0 0 0 0  0 1 0 0 0  0 0 1 0 0  0 0 0 1 0"/>
				</filter>
			</defs>
			<mask maskUnits="userSpaceOnUse" x="7" y="2.8" width="34.1" height="23.6" id="id0_1_">
				
					<linearGradient id="SVGID_1_" gradientUnits="userSpaceOnUse" x1="-43.6648" y1="56.7932" x2="-43.7007" y2="56.3445" gradientTransform="matrix(52.3805 0 0 -52.3805 2312.1208 2977.6863)">
					<stop  offset="0" style="stop-color:#FFFFFF"/>
					<stop  offset="1" style="stop-color:#FFFFFF;stop-opacity:0"/>
				</linearGradient>
				<rect x="6.7" y="2.5" fill="url(#SVGID_1_)" filter="url(#Adobe_OpacityMaskFilter)" width="34.6" height="24.1"/>
			</mask>
			<path id="_78940832" mask="url(#id0_1_)" fill="#FEFEFE" d="M24,2.8c9.4,0,17,5.3,17,11.8c0,6.5-7.6,11.8-17,11.8S7,21.1,7,14.6
				S14.6,2.8,24,2.8z"/>
		</g>
		<g>
			<polygon id="_393190528" fill="#EBECEC" points="18.4,17.9 29.6,17.9 24,14 			"/>
			<path id="_393190624" fill="#EBECEC" d="M38.9,17.8L25.3,8.4c-0.4-0.2-0.8-0.4-1.3-0.4c-0.5,0-0.9,0.1-1.3,0.4L9.1,17.8
				c0,0-0.1,0.1-0.1,0.1h5.1l9.8-6.8l9.8,6.8L38.9,17.8C38.9,17.9,38.9,17.8,38.9,17.8z"/>
			<polygon id="_393190696" fill="#FEFEFE" points="11.2,21.5 36.8,21.5 36.8,19 11.2,19 			"/>
			<polygon id="_393190720" fill="#EBECEC" points="11.2,32.8 36.8,32.8 36.8,30.3 11.2,30.3 			"/>
			<polygon id="_393190792" fill="#EBECEC" points="8.6,36.1 39.4,36.1 39.4,33.6 8.6,33.6 			"/>
			<polygon id="_393191128" fill="#FEFEFE" points="12.4,29.6 16.7,29.6 16.7,22.5 12.4,22.5 			"/>
			<polygon id="_393191368" fill="#FEFEFE" points="21.8,29.6 26.2,29.6 26.2,22.5 21.8,22.5 			"/>
			<polygon id="_393191584" fill="#FEFEFE" points="31.3,29.6 35.6,29.6 35.6,22.5 31.3,22.5 			"/>
		</g>
	</g>
</g>
</svg>
