<svg xmlns="http://www.w3.org/2000/svg" width="40pt" height="19pt" viewBox="0 0 40 19"><path d="M19.973.906h1.113c1.684.145 3.227.703 4.57 1.754 1.543 1.199 2.543 2.805 3.031 4.707.227.906.313 1.813.227 2.746-.145 1.844-.77 3.48-1.941 4.91-1.031 1.258-2.316 2.137-3.828 2.66-.602.207-1.23.324-1.859.383-1.398.145-2.715-.09-4-.617-.828-.348-1.57-.816-2.258-1.402-1.086-.965-1.883-2.133-2.398-3.508-.258-.641-.398-1.313-.484-2.016-.059-.527-.086-1.051-.059-1.609.145-1.695.656-3.242 1.684-4.617 1.086-1.402 2.461-2.398 4.117-2.953.598-.203 1.227-.352 1.855-.379l.23-.059zm-.172 4.531l-1.859-.469-.254.996.199.059.543.145c.285.086.398.32.313.613l-.57 2.34-.43 1.781c-.055.234-.199.324-.43.293l-.34-.086-.344-.09c-.145.379-.316.73-.457 1.082.629.176 1.227.32 1.855.469l-.371 1.578.914.234c.145-.527.258-1.055.371-1.551.258.059.488.117.746.203l-.375 1.551.918.234c.141-.527.254-1.051.371-1.578h.086c.426.027.855.117 1.254.117.859 0 1.488-.383 1.828-1.23.145-.32.23-.672.23-1.02 0-.617-.313-1.055-.828-1.348l-.145-.086.031-.031.086-.027c.426-.117.742-.379.914-.82.254-.641.285-1.285-.23-1.84-.258-.293-.598-.496-.941-.672l-.516-.234.371-1.551-.914-.23c-.113.523-.258 1.02-.371 1.52l-.742-.176c.113-.527.258-1.023.371-1.52l-.914-.234c-.113.555-.23 1.082-.371 1.578zm0 0" fill="rgb(32.941176%,55.686275%,11.372549%)"/><path d="M19.801 5.438l.371-1.551.914.234c-.113.527-.258 1.023-.371 1.52l.742.176c.113-.496.258-.992.371-1.52l.914.234-.371 1.547.516.234c.371.148.684.352.941.672.484.559.484 1.199.23 1.844-.172.41-.488.672-.914.816l-.086.031-.031.027.145.09c.484.32.801.73.828 1.344 0 .352-.086.703-.23 1.023-.34.816-.969 1.199-1.828 1.227-.426 0-.855-.059-1.254-.117h-.086c-.117.527-.258 1.023-.371 1.578l-.918-.23.375-1.551c-.258-.059-.488-.117-.746-.203l-.371 1.547-.883-.262c.113-.527.254-1.055.371-1.578l-1.859-.469.457-1.082.344.09.344.086c.227.031.371-.059.426-.293l.43-1.781.57-2.34c.059-.293-.055-.527-.313-.613-.172-.059-.371-.117-.543-.145l-.199-.059c.086-.352.172-.676.258-.996.598.176 1.199.32 1.828.469zm-.516 6.254l.059.031.855.203c.43.09.887.148 1.316 0 .656-.203.855-.992.371-1.461-.145-.145-.316-.262-.488-.352-.371-.145-.742-.262-1.141-.41-.172-.059-.316-.086-.488-.117-.141.734-.313 1.434-.484 2.105zm.742-3.039c.203.059.402.117.602.145.371.09.742.148 1.113.059.316-.059.57-.23.656-.582.086-.352.031-.672-.285-.879-.199-.145-.398-.262-.598-.352-.344-.117-.688-.203-1.031-.289-.141.672-.313 1.285-.457 1.898zm0 0" fill="rgb(99.215686%,99.215686%,99.215686%)"/><path d="M19.285 11.691c.172-.672.344-1.371.516-2.074.172.027.344.059.484.117.371.117.773.234 1.145.41.172.086.34.203.484.348.484.5.285 1.289-.371 1.465-.43.117-.887.059-1.313 0l-.859-.207-.086-.059zm0 0l.742-3.039.457-1.898c.344.086.688.172 1.031.289.227.09.426.207.598.352.285.207.371.527.285.879-.086.352-.313.523-.656.582-.371.09-.742.031-1.113-.059-.199-.027-.398-.086-.602-.145zm0 0" fill="rgb(33.333333%,55.686275%,11.764706%)"/></svg>