<svg xmlns="http://www.w3.org/2000/svg" viewBox="0 0 48 48" enable-background="new 0 0 48 48"><circle fill="#87A732" cx="24" cy="24" r="24"/><path d="M28.3 21.5v4.2l-2.1-1.4v-11.1h2.1v1.4c.5-1.1 1.3-1.6 2.2-1.6.9 0 1.6.4 2.1 1.3.5.8.7 2 .7 3.4 0 1.6-.3 2.8-.9 3.8-.6 1-1.3 1.4-2.3 1.4-.7 0-1.3-.5-1.8-1.4zm0-3.8v.8c0 .6.1 1.2.4 1.6.3.4.6.6 1 .6.5 0 .9-.3 1.1-.8.3-.5.4-1.2.4-2.2 0-1.7-.5-2.5-1.4-2.5-.4 0-.8.2-1.1.7-.3.5-.4 1.1-.4 1.8zm-2.9 3.4v1.8c-1.7.2-2.5-.1-3.1-1.2-.5 1.1-1.6 1.3-2.5 1.3-.7 0-1.2-.3-1.6-.8-.4-.5-.6-1.2-.6-2.1 0-1.8.8-2.9 2.4-3.2l1.9-.3c0-1-.4-1.5-1.2-1.5-.8 0-1.5.1-2.3.6v-1.8c.3-.2.7-.4 1.2-.6.5-.2 1-.2 1.4-.2 2 0 3 1.3 3 4v3.3c.2.5.7.7 1.4.7zm-3.5-2.2v-.6l-1.3.2c-.7.1-1 .5-1 1.3 0 .3.1.6.3.8.2.2.4.3.7.3.4 0 .7-.2 1-.6.2-.3.3-.8.3-1.4zm-5.4 3.4c-.7.5-1.6.7-2.8.7-1.5 0-2.6-.6-3.5-1.8-.9-1.2-1.5-2.8-1.5-4.8 0-2.1.5-3.8 1.4-5.1 1-1.3 2.4-2 4-2 .9 0 1.7 0 2.4.4v2.1c-1.4-.6-3.7-.2-4.7 1.3-.5.8-.8 1.8-.8 3.2 0 1.3.3 2.3.8 3 .5.8 1.5 1.1 2.4 1.1.9 0 1.4-.1 2.3-.6v2.5zm18.2-9h2.2v9.4h-2.2zm0-2.9h2.2v1.9h-2.2zm-5.5 27.8v-2c.5.4 1.7.5 2 .5.4 0 .7-.1.9-.2.2-.1.3-.4.3-.6 0-.2 0-.3-.1-.5-.1-.1-.2-.2-.4-.3-.2-.1-.3-.2-.5-.2-.2-.1-.4-.2-.5-.2-.3-.1-.5-.3-.7-.5-.2-.2-.4-.4-.5-.6l-.3-.7c-.1-.3-.1-.6-.1-1 0-.5.1-1 .3-1.4.2-.4.4-.7.7-.9.3-.2.6-.4 1-.5.4-.1.7-.2 1.1-.2.3 0 .6 0 .9.1l.9.3v1.7c-.4-.2-1.6-.2-1.8-.2-.1 0-.3 0-.4.1l-.3.1c-.1.1-.2.1-.2.2-.1.1-.1.2-.1.3 0 .2 0 .3.1.4l.3.3c.1.1.3.2.4.2l.5.2.8.4c.2.2.4.3.6.6.2.2.3.5.4.8.1.3.1.6.1 1 0 .6-.1 1-.3 1.4-.2.4-.4.7-.7 1-.3.2-.6.4-1 .5-.4.1-.8.2-1.2.2-.8.1-1.6 0-2.2-.3zm-5.3-3c0 .4.1.7.2.9.1.2.3.3.6.3h.3c.1 0 .2-.1.4-.1v2c-.3.1-.5.2-.8.2-.3.1-.6.1-.9.1-.3 0-.5-.1-.8-.2-.2-.1-.4-.3-.6-.6-.2-.2-.3-.5-.4-.9-.1-.3-.1-.7-.1-1.2v-11.2h2.1v10.7zm-11.1 3.1c-.3.2-.8.3-1.4.3-1.5 0-2.3-1.1-2.3-3.2v-4.6h-1.1v-1.8h1.1v-2.9l2.1 1.1v1.8h1.6v1.8h-1.6v4.1c0 1.2.5 1.8 1.6 1.5v1.9zm27.2 0c-.3.2-.8.3-1.4.3-1.5 0-2.3-1.1-2.3-3.2v-4.6h-1.1v-1.8h1.1v-3l2.1 1.1v1.8h1.6v1.8h-1.6v4.1c0 1.2.5 1.8 1.6 1.5v2zm-18.8-1.4v1.8c-1.7.2-2.5-.1-3.1-1.2-.5 1.1-1.6 1.3-2.5 1.3-.7 0-1.2-.3-1.6-.8-.4-.5-.6-1.2-.6-2.1 0-1.8.8-2.9 2.4-3.2l1.9-.3c0-1-.4-1.5-1.2-1.5-.8 0-1.5.1-2.3.6v-1.8c.3-.2.7-.4 1.2-.6.5-.2 1-.2 1.4-.2 2 0 3 1.3 3 4v3.3c.2.5.7.6 1.4.7zm-3.5-2.3v-.6l-1.3.2c-.7.1-1 .5-1 1.3 0 .3.1.6.3.8.2.2.4.3.7.3.4 0 .7-.2 1-.6.2-.3.3-.8.3-1.4zm8.3-5.6h2.2v9.4h-2.2zm0-2.9h2.2v1.9h-2.2z" fill="#FEFEFE"/></svg>