<svg xmlns="http://www.w3.org/2000/svg" width="90" height="64" viewBox="0 0 90 64"><style type="text/css">.st0{fill:#4F8BC9;}</style><path id="XMLID_2_" class="st0" d="M67.2 52.9c0-4.5 2.7-8.5 6.8-10.2 1.5-.6 3-.9 4.6-.9 1.6 0 3.1.3 4.6.9 1.4.5 2.6 1.4 3.6 2.4s1.8 2.2 2.3 3.5c1.7 4.1.8 8.9-2.3 12.1-1 1-2.3 1.9-3.7 2.4-1.5.6-3 .9-4.6.9-2.1 0-4.1-.5-5.9-1.5-1.7-.9-3.1-2.3-4-4-1-1.7-1.5-3.7-1.4-5.6zm-62.9-2h11.5v3.7h-11.5v5.2h12.1v3.7h-16.4v-21.4h16.2v3.7h-11.9v5.1zm14.1 12.7l7.6-10.9-7.3-10.5h4.9l5.3 7.6 5.3-7.6h4.8l-7.4 10.5 7.6 11h-4.9l-5.6-8-5.6 8h-4.7zm23.5 0v-21.5h4.5l6.6 9.6 6.6-9.6h4.5v21.5h-4.2v-14.8l-6.9 9.3h-.2l-6.8-9.3v14.8h-4.1zm29.5-10.7c0 1.3.3 2.6.9 3.7 1.9 3.5 6.4 4.7 9.8 2.8 0 0 .1 0 .1-.1 1.1-.6 2-1.6 2.5-2.7.6-1.2.9-2.4.9-3.7 0-1.3-.3-2.6-.9-3.7-1.9-3.5-6.3-4.7-9.8-2.8l-.1.1c-1.1.6-1.9 1.6-2.5 2.7-.6 1.1-.9 2.4-.9 3.7z"/><path id="XMLID_8_" class="st0" d="M60.3 4.4l-11.8 32.6-.1.2-2.2-4.4-4.5 2.1 11.9-32.8 4.5-2.1 2.2 4.4zm29.4.8l-11.7 32.6-2.2-4.4-4.5 2.1.3-.8 11.7-32.6 4.5-2.1 2.2 4.4-.3.8zm-25.1 28.2l6.9-19.1-4.5 2-2.2-4.4-6.9 19.1 2.2 4.4 4.5-2zm-37.5-18.9h-20.7l3.5 3.4-3.5 3.4h20.7l3.5-3.4-3.5-3.4zm-23.6 14.2h33.5l-3.5 3.4 3.5 3.4h-33.5l-3.5-3.4 3.5-3.4zm10.3-28.4h33.4l-3.5 3.4 3.5 3.3h-33.4l-3.5-3.4 3.5-3.3z"/></svg>