<svg xmlns="http://www.w3.org/2000/svg" width="40pt" height="40pt" viewBox="0 0 40 40"><path d="M38.969 20.125c-.125 4.984-1.938 9.477-5.625 13.043-3.75 3.695-8.375 5.477-13.625 5.477-5.125-.059-9.563-1.906-13.188-5.477-3.75-3.691-5.563-8.246-5.5-13.414.063-4.984 1.938-9.355 5.563-12.922 3.75-3.695 8.313-5.539 13.563-5.477 10.438.059 18.688 8.246 18.813 18.77zm-27.375 11.445l.938.059h15.063c.625-.059.938-.246 1.063-.797.313-.984.563-1.91.813-2.895.125-.367-.063-.676-.438-.738-.25-.063-.438 0-.688 0h-9.875c.688-2.215 1.313-4.367 1.938-6.461.875-.246 1.75-.492 2.563-.738.25-.063.5-.246.563-.43.25-.617.375-1.23.563-1.969-1.063.246-1.938.613-3 .797.688-2.273 1.313-4.492 2-6.707.375-1.23.75-2.398 1.063-3.629.25-.801.063-1.047-.75-1.047h-3.688c-.625 0-.688 0-.875.676l-1.125 3.754c-.875 2.895-1.75 5.848-2.625 8.801-1 .309-2 .617-3 .922-.25.68-.438 1.418-.688 2.156 1.063-.125 1.938-.617 2.938-.68-1 3.016-1.938 5.91-2.75 8.926zm0 0" fill="rgb(0%,36.470588%,63.137255%)"/><path d="M11.594 31.57c.813-3.016 1.813-5.91 2.625-8.926l-2.938.68c.25-.801.5-1.477.688-2.156 1.063-.305 2.063-.613 3-.922.875-2.953 1.75-5.906 2.625-8.801l1.125-3.754c.188-.613.25-.676.875-.676h3.688c.813 0 1 .246.75 1.047l-1.063 3.629c-.625 2.215-1.313 4.371-2 6.707 1-.246 1.938-.551 3-.797-.188.738-.375 1.352-.563 1.969-.063.184-.375.367-.563.43-.813.246-1.688.492-2.563.738l-1.938 6.461h10.563c.375.063.563.371.438.738-.25.984-.5 1.969-.813 2.895-.063.551-.375.738-1 .797h-15.063c-.25 0-.5-.059-.875-.059zm0 0" fill="#fff"/></svg>