<svg xmlns="http://www.w3.org/2000/svg" width="40pt" height="40pt" viewBox="0 0 40 40"><g><path d="M20.844 37.848c-4.813-.063-8.813-1.355-12.25-4.125-3.563-2.832-5.813-6.461-6.688-10.891-.25-1.418-.375-2.77-.313-4.188.188-4.059 1.625-7.754 4.25-10.891 2.375-2.832 5.375-4.801 8.938-5.906 1.25-.371 2.563-.617 3.875-.738 3.688-.371 7.188.305 10.5 1.969 1.438.738 2.75 1.66 4 2.77 2.875 2.582 4.75 5.781 5.625 9.535.188.988.375 1.973.438 2.957.25 3.508-.5 6.828-2.25 9.906-.688 1.293-1.563 2.461-2.625 3.57-1.625 1.723-3.5 3.137-5.688 4.184-1.813.863-3.688 1.414-5.625 1.66-.875.063-1.75.125-2.188.188zm-.438-2.277c8.875.059 16.438-7.016 16.5-16 .063-8.984-7.25-16-16-16.246-9.25-.309-16.938 6.953-17 16 0 9.105 7.563 16.305 16.5 16.246zm0 0" fill="rgb(23.921569%,24.313725%,23.529412%)"/><path d="M20.406 35.57c-8.938.059-16.5-7.141-16.5-16.246.063-9.047 7.75-16.309 17-16.063 8.75.246 16.063 7.324 16 16.246-.063 9.047-7.625 16.121-16.5 16.063zm16-16.125c0-8.738-7.063-15.629-15.75-15.691-9.188-.125-15.813 6.891-16.188 14.891-.188 4.371 1.25 8.246 4.313 11.449 3.125 3.262 7 4.922 11.5 4.984 9.063.121 16.188-7.016 16.125-15.633zm0 0" fill="rgb(95.686275%,96.078431%,96.470588%)"/><path d="M36.406 19.445c0 8.617-7.063 15.754-16.188 15.691-4.5-.059-8.375-1.781-11.438-5.043-3.063-3.203-4.5-7.078-4.313-11.449.375-8 7-15.016 16.188-14.891 8.688.062 15.75 6.953 15.75 15.691zm-16 15.324c.75-.063 1.563-.063 2.313-.184 1.875-.246 3.625-.863 5.25-1.723 1.25-.68 2.375-1.539 3.375-2.465.375-.305.688-.738 1-1.043 1-1.172 1.813-2.402 2.438-3.816.813-1.848 1.25-3.816 1.25-5.848l-.063-1.723c-.063-.922-.25-1.844-.5-2.77-.563-1.785-1.375-3.445-2.5-4.922-.875-1.109-1.875-2.152-3-3.016-1.188-.863-2.438-1.539-3.75-2.031-1.75-.676-3.563-1.047-5.438-1.047-.5 0-.938 0-1.438.063-.813.063-1.563.184-2.313.309-2.063.43-3.938 1.293-5.625 2.461-1 .738-1.938 1.539-2.75 2.461-1 1.168-1.875 2.461-2.5 3.879-.813 1.844-1.25 3.813-1.25 5.844 0 .738.063 1.477.125 2.156.125 1.535.563 3.016 1.25 4.367 1 2.094 2.313 3.879 4.125 5.355 1.188.984 2.438 1.723 3.875 2.336 1.938.863 4 1.293 6.125 1.355zm0 0c-2.188-.063-4.25-.43-6.188-1.293-1.375-.613-2.688-1.352-3.875-2.34-1.813-1.477-3.188-3.262-4.125-5.352-.625-1.414-1.063-2.832-1.25-4.371-.063-.738-.125-1.477-.125-2.152.063-2.031.438-3.938 1.25-5.848.625-1.414 1.438-2.707 2.5-3.875.813-.922 1.75-1.723 2.75-2.461 1.688-1.172 3.563-2.031 5.625-2.461.75-.188 1.563-.246 2.313-.309.5-.063.938-.063 1.438-.063 1.875 0 3.688.371 5.438 1.047 1.313.492 2.563 1.168 3.688 2.031 1.125.859 2.125 1.844 3 3.016 1.125 1.477 2 3.137 2.5 4.922.25.922.438 1.848.5 2.77.063.555.125 1.168.063 1.723-.063 2.031-.438 3.938-1.25 5.848-.625 1.414-1.438 2.645-2.438 3.813-.313.371-.625.738-1 1.047-1 .922-2.125 1.785-3.375 2.461-1.625.863-3.375 1.477-5.25 1.723-.625 0-1.375.063-2.188.125zm9.688-26.953l-.25-.188-.125-.184c-.938-.738-1.938-1.293-3.063-1.785-2.125-.922-4.313-1.352-6.625-1.23-.813.063-1.563.125-2.375.246-2.313.434-4.375 1.293-6.313 2.707-.125.063-.188.188-.25.309l-.25.184-.313.25c-.25.059-.313.184-.438.367l-.125.125c-.313.121-.563.367-.688.676l-.125.121c-.125.125-.25.246-.313.371-.125.121-.188.246-.313.309l-.125.121-1.375 2.031c-.625.984-1.063 2.031-1.375 3.137-.313 1.172-.5 2.34-.563 3.57 0 .492 0 .984.063 1.539.125.801.188 1.602.375 2.398.5 2.156 1.438 4.063 2.813 5.785l.188.125c.125.121.188.246.313.309.125.121.25.246.313.367l.125.125c.125.305.375.551.688.676l.125.121c.063.188.188.309.438.371l.313.246.25.184.125.184c.938.742 1.938 1.293 3.063 1.785 2.125.926 4.313 1.355 6.625 1.23.813-.059 1.563-.121 2.375-.246 2.313-.43 4.375-1.289 6.313-2.707.125-.063.188-.184.25-.309l.25-.184.313-.246c.25-.063.313-.184.438-.367l.125-.125c.313-.121.563-.367.688-.676l.125-.125c.125-.121.25-.246.313-.367.125-.125.188-.246.313-.309l.188-.121c1-1.234 1.75-2.586 2.313-4.063.75-1.969 1.063-4.063.875-6.156-.063-.797-.188-1.66-.375-2.461-.5-2.152-1.438-4.063-2.813-5.785l-.188-.121c-.125-.125-.188-.246-.313-.309-.125-.121-.25-.246-.313-.367l-.125-.125c-.125-.309-.375-.555-.688-.676l-.125-.125c-.063-.184-.188-.305-.438-.367-.125-.063-.25-.125-.313-.246zm0 0" fill="rgb(96.470588%,97.254902%,97.254902%)"/><path d="M31.719 29.477l-.125.125-.688.676-.125.121-.438.371-.313.246-.25.184-.188.125c-1.563 1.168-3.25 1.969-5.125 2.523-1.188.305-2.375.551-3.625.551h-1.063c-.438 0-.938-.059-1.375-.121-1.125-.184-2.25-.371-3.25-.801-1.25-.492-2.438-1.047-3.563-1.848-.188-.121-.375-.246-.625-.367l-.25-.184-.313-.246-.438-.371-.125-.121-.688-.68-.125-.121c-.125-.125-.25-.246-.313-.371-.125-.121-.188-.246-.313-.305l-.063-.188c-.688-.859-1.313-1.844-1.75-2.828-.875-1.785-1.313-3.633-1.438-5.602-.063-1.109 0-2.152.25-3.262.188-.922.438-1.785.75-2.645.438-1.293 1.063-2.402 1.875-3.508l.5-.68c.125-.121.188-.246.313-.305.125-.125.25-.246.313-.371l.125-.121.688-.68.125-.121.438-.371.313-.246.25-.184.188-.125c1.563-1.168 3.25-1.969 5.125-2.52 1.125-.371 2.375-.617 3.563-.617h1.063c.438 0 .938.063 1.375.125 1.125.184 2.25.367 3.25.797 1.25.492 2.438 1.047 3.563 1.848.188.121.375.246.625.367l.25.188.313.246.438.367.125.125.688.676.125.125c.125.121.25.246.313.367.125.125.188.246.313.309l.063.184c.688.863 1.313 1.848 1.75 2.832.875 1.785 1.313 3.629 1.438 5.598.063 1.109 0 2.156-.25 3.262-.188.926-.438 1.785-.75 2.648-.438 1.293-1.063 2.398-1.875 3.508l-.5.676c-.125.125-.188.246-.313.309 0 .184-.125.309-.25.43zm3.625-10.031c.125-8.063-6.625-14.461-14.375-14.645-8.875-.246-15.063 6.523-15.438 13.723-.25 4.309 1.188 8.063 4.188 11.137 2.75 2.832 6.188 4.246 10.188 4.371 8.813.309 15.563-6.707 15.438-14.586zm-3 9.355l.5-.676c.813-1.109 1.438-2.277 1.875-3.508.313-.863.5-1.785.75-2.648.25-1.047.313-2.152.25-3.262-.125-1.969-.563-3.816-1.438-5.598-.5-.984-1.063-1.973-1.75-2.832-.063-.063-.063-.125-.063-.184l.188.121c1.375 1.723 2.313 3.633 2.813 5.785.188.801.313 1.602.375 2.461.188 2.094-.125 4.184-.875 6.156-.563 1.477-1.313 2.828-2.313 4.059-.188 0-.25.063-.313.125zm-23.813-18.707l-.5.676c-.813 1.105-1.438 2.277-1.875 3.508-.313.859-.5 1.785-.75 2.645-.25 1.047-.313 2.156-.25 3.262.125 1.969.563 3.816 1.438 5.602.5.984 1.063 1.969 1.75 2.832.063.059.063.121.063.184l-.188-.125c-1.375-1.723-2.313-3.629-2.813-5.785-.188-.797-.25-1.598-.375-2.398-.063-.492-.063-.984-.063-1.539.063-1.23.25-2.398.563-3.57.313-1.105.75-2.152 1.313-3.137.438-.738.938-1.355 1.375-2.031zm21.313-2.465l-.625-.367c-1.063-.801-2.313-1.355-3.563-1.848-1.063-.43-2.188-.613-3.25-.797l-1.375-.125h-1.063c-1.25 0-2.438.246-3.625.555-1.875.492-3.563 1.352-5.125 2.523l-.188.121.25-.309c1.875-1.352 4-2.273 6.313-2.707.75-.121 1.563-.184 2.375-.246 2.313-.121 4.5.371 6.625 1.23 1.125.492 2.125 1.047 3.063 1.785zm-18.813 23.57l.625.371c1.063.801 2.313 1.352 3.563 1.844 1.063.434 2.188.617 3.25.801l1.375.125h1.063c1.25 0 2.438-.246 3.625-.555 1.875-.492 3.563-1.355 5.125-2.523l.188-.125-.25.309c-1.875 1.355-4 2.277-6.313 2.707-.75.125-1.563.188-2.375.246-2.313.125-4.5-.367-6.625-1.23-1.125-.492-2.125-1.043-3.063-1.785zm20.563-21.969l-.688-.676c.313.121.563.367.688.676zm-.688 21.109l.688-.68c-.125.246-.375.492-.688.68zm-21.625-.738l.688.676c-.313-.125-.563-.371-.688-.676zm.75-21.047l-.688.676c.063-.309.313-.555.688-.676zm20.75-.125l-.438-.367c.25.063.375.184.438.367zm-20.25-.367l-.438.367c.063-.184.188-.305.438-.367zm19.813 22.707l.438-.371c-.063.188-.188.371-.438.371zm-20.25-.371l.438.371c-.25 0-.375-.184-.438-.371zm-.938-21.043c-.125.121-.25.246-.313.367.063-.121.188-.246.313-.367zm-.313 19.754c.125.121.25.246.313.367-.125-.121-.25-.246-.313-.367zm22.875.367c.125-.121.25-.246.313-.367-.063.121-.188.246-.313.367zm.375-19.754c-.125-.121-.25-.246-.313-.367.063.121.188.246.313.367zm.25.371c-.125-.125-.188-.246-.313-.309.125.063.25.184.313.309zm-23.813 18.707c.125.121.188.246.313.309zm23.563.309c.125-.125.188-.246.313-.309-.125.063-.25.184-.313.309zm-23.25-19.387c-.125.125-.188.246-.313.309zm1.938-1.906l-.313.246c.125-.063.25-.125.313-.246zm-.25 22.953l.313.246c-.125-.063-.25-.184-.313-.246zm19.563.246l.313-.246c-.125.063-.25.184-.313.246zm.25-22.953l-.313-.246.313.246zm-19.313-.434l-.25.188c.125-.063.188-.125.25-.188zm19.063.188l-.25-.188c.063.063.125.125.25.188zm-19.313 23.199l.25.184c-.063-.063-.125-.121-.25-.184zm19.063.184l.25-.184c-.125.063-.188.121-.25.184zm0 0" fill="rgb(96.862745%,97.254902%,97.647059%)"/><path d="M35.344 19.445c.125 7.938-6.625 14.895-15.375 14.586-4-.125-7.438-1.602-10.188-4.371-3.063-3.074-4.438-6.828-4.188-11.137.313-7.199 6.5-13.969 15.375-13.723 7.75.184 14.438 6.582 14.375 14.645zm-14.875 14.34l2.125-.184c1.688-.246 3.25-.738 4.75-1.539 1.5-.801 2.813-1.785 3.938-3.016.875-.984 1.625-2.031 2.188-3.141.375-.738.688-1.535.938-2.336.375-1.172.563-2.34.625-3.508.063-.926-.063-1.785-.188-2.707-.25-1.727-.813-3.324-1.75-4.863-.875-1.477-1.938-2.77-3.25-3.875-1.375-1.172-2.938-2.031-4.688-2.648-1.125-.367-2.313-.613-3.563-.738-1.063-.063-2.063-.063-3.125.063-1.75.246-3.438.738-5 1.598-1.125.617-2.125 1.355-3.125 2.156-.75.676-1.438 1.477-2 2.336-.875 1.234-1.5 2.586-1.938 4-.375 1.172-.563 2.34-.625 3.57 0 .801.063 1.602.125 2.402.188 1.723.75 3.383 1.625 4.922.875 1.414 1.875 2.645 3.125 3.754 1.063.922 2.25 1.723 3.625 2.34 1.938.922 4 1.352 6.188 1.414zm0 0" fill="rgb(98.039216%,98.039216%,98.039216%)"/><path d="M20.469 33.785c-2.188-.063-4.25-.492-6.188-1.414-1.313-.617-2.5-1.418-3.625-2.34-1.25-1.109-2.25-2.34-3.063-3.816-.875-1.539-1.438-3.199-1.625-4.922-.063-.801-.188-1.602-.125-2.402.063-1.23.25-2.398.625-3.566.438-1.418 1.125-2.77 1.938-4 .563-.863 1.25-1.602 2-2.34.938-.859 1.938-1.602 3.125-2.152 1.563-.863 3.25-1.355 5-1.602 1.063-.121 2.063-.121 3.125-.063 1.188.063 2.375.309 3.563.738 1.75.555 3.313 1.477 4.688 2.648 1.313 1.105 2.375 2.398 3.25 3.875.875 1.539 1.438 3.141 1.75 4.863.125.922.25 1.785.188 2.707-.063 1.168-.188 2.398-.625 3.508-.25.801-.563 1.602-.938 2.34-.563 1.168-1.313 2.215-2.188 3.137-1.125 1.23-2.438 2.215-3.938 3.016-1.5.801-3.063 1.293-4.75 1.539-.813.121-1.5.184-2.188.246zm0-28.555c-8.063 0-14.375 6.277-14.5 13.906-.125 8.246 6.375 14.156 13.813 14.523 4.188.188 7.813-1.168 10.813-4.059 2.813-2.711 4.313-6.031 4.375-9.848.125-8.246-6.563-14.523-14.5-14.523zm0 0c7.938 0 14.625 6.34 14.5 14.461-.063 3.879-1.563 7.199-4.375 9.848-3 2.832-6.625 4.246-10.813 4.063-7.438-.309-14-6.219-13.813-14.465.125-7.629 6.375-13.906 14.5-13.906zm-14.313 14.152c.063 7.816 6.313 13.91 14.125 14.031 8.125.063 14.188-6.09 14.438-13.414.313-8.371-6.375-14.461-14.063-14.586-8.125-.059-14.438 6.277-14.5 13.969zm0 0c.063-7.691 6.375-14.027 14.5-13.969 7.688.125 14.375 6.215 14.063 14.586-.313 7.324-6.313 13.477-14.438 13.414-7.813-.059-14.063-6.215-14.125-14.031zm.188 0c-.063 7.695 6.25 13.727 13.75 13.848 8.25.184 14.125-6.094 14.438-13.105.188-3.879-1.063-7.262-3.75-10.094-2.688-2.832-6.063-4.371-10-4.43-8.125-.188-14.5 6.273-14.438 13.781zm0 0" fill="rgb(98.431373%,98.431373%,98.431373%)"/><path d="M6.344 19.383c-.063-7.508 6.313-13.969 14.438-13.781 3.938.059 7.313 1.598 10 4.43 2.688 2.832 3.938 6.215 3.75 10.094-.313 6.953-6.25 13.23-14.438 13.105-7.5-.121-13.813-6.152-13.75-13.848zm14.125 13.602c1 .063 2.063-.063 3.063-.309 1.563-.367 3-.922 4.313-1.785 1.25-.797 2.375-1.723 3.313-2.891.813-.984 1.5-2.094 2.063-3.324.688-1.598 1-3.262 1.063-4.984 0-.43 0-.801-.063-1.23-.063-.492-.063-.984-.188-1.477-.25-1.414-.75-2.77-1.438-4-.625-1.168-1.438-2.215-2.313-3.137-.375-.371-.813-.738-1.188-1.047-1-.801-2.063-1.418-3.188-1.91-1.375-.551-2.75-.922-4.25-1.043-1.063-.063-2.125-.063-3.188.059-1.625.246-3.188.738-4.625 1.477-1.375.742-2.563 1.602-3.563 2.77-.938 1.047-1.75 2.156-2.375 3.449-.813 1.66-1.188 3.383-1.313 5.23-.063.984.063 1.969.188 2.891.25 1.414.75 2.77 1.438 4 .813 1.539 1.875 2.832 3.25 3.938 1.063.863 2.188 1.602 3.438 2.094 1.75.863 3.563 1.293 5.563 1.23zm0 0" fill="rgb(98.823529%,98.823529%,98.823529%)"/><path d="M20.469 32.984c-2 .063-3.813-.367-5.625-1.109-1.25-.551-2.375-1.23-3.438-2.09-1.313-1.109-2.438-2.402-3.25-3.938-.688-1.293-1.188-2.586-1.438-4-.188-.984-.25-1.973-.188-2.895.063-1.844.5-3.57 1.313-5.23.625-1.23 1.375-2.398 2.375-3.445 1.063-1.109 2.25-2.031 3.563-2.77 1.438-.801 3-1.293 4.625-1.477 1.063-.125 2.125-.125 3.188-.063 1.5.125 2.875.492 4.25 1.047 1.188.492 2.25 1.109 3.188 1.906.438.309.813.68 1.188 1.047.938.922 1.688 1.969 2.313 3.141.688 1.289 1.188 2.582 1.438 4l.188 1.477c.063.43.063.797.063 1.23-.063 1.723-.375 3.383-1.063 4.984-.5 1.23-1.188 2.336-2.063 3.324-.938 1.105-2.063 2.09-3.313 2.891-1.313.859-2.75 1.414-4.313 1.785-.938.121-2 .184-3 .184zm7.813-24.246c-.125-.121-.188-.246-.313-.309-.25-.184-.438-.305-.688-.43-.813-.492-1.688-.863-2.563-1.109-.125-.059-.25 0-.313 0l-.313-.059c-1-.309-2.063-.434-3.063-.492-.688 0-1.438 0-2.125.059-1.563.125-3.063.617-4.5 1.293-.938.434-1.75.984-2.5 1.664-.5.43-1.063.922-1.5 1.414-.5.555-.938 1.168-1.375 1.785l-.188.184c-.5.863-.938 1.723-1.25 2.645-.125.309-.125.68-.188.988l-.375 2.52c-.188.309-.063.617-.063.863v.121l.063.25v.492l.063.121v.309l.063.121v.246l.063.125v.184l.063.125v.121l.063.125v.121l.063.125c.063.121.125.246.125.367v.063l.063.121.563 1.602c.125.371.313.676.438.984.063.184.063.371.188.555l1.313 1.906c.063.125.25.188.375.246.125.188.25.371.438.492.313.309.625.617.938.863.313.309.688.555 1.063.801 0 .184.188.246.313.367 1.188.738 2.438 1.355 3.813 1.723l.313-.059c6.688 1.723 12.5-1.973 14.75-5.785-.438.184-.813.305-1.25.43l-1 .309.25-1.047c.25-.801.438-1.602.688-2.461h.063l2.688-.984c.063 0 .188-.125.188-.246.125-.801.25-1.539.313-2.34.063-.121.125-.184.125-.309 0-.43 0-.859-.063-1.293-.063-.676-.188-1.352-.313-1.969l-.188-.246-.188-.676-.813-2.094c0-.121 0-.246-.063-.305-.438-.68-.875-1.355-1.313-1.973-.063-.121-.25-.184-.375-.305-.688-.738-1.375-1.418-2.188-2.031-.25-.246-.313-.246-.375-.309zm0 0" fill="rgb(99.215686%,99.215686%,99.215686%)"/><path d="M30.531 23.629c-.25.801-.438 1.602-.688 2.465-.125.367-.188.676-.25 1.043-.125.371-.25.801-.313 1.172-.063.184-.125.246-.313.246h-17.563l.313-1.23.563-2.031c.125-.492.25-.984.375-1.418.063-.121.125-.305.188-.492-.75.309-1.5.555-2.25.801l.25-.859.563-2.215c.188-.617.375-1.234.5-1.848.063-.184.125-.246.313-.309.625-.184 1.25-.43 1.813-.676.063 0 .188-.125.188-.184.125-.434.25-.863.375-1.355l.625-2.215.313-1.293.313-1.047c.25-.801.438-1.66.625-2.461l.375-1.414c.063-.184.125-.246.313-.246h8l-.5 1.844c-.125.434-.25.863-.375 1.355l-.563 2.152c-.125.492-.25.984-.438 1.477.875-.305 1.688-.613 2.563-.984-.188.738-.375 1.355-.5 2.031-.25.984-.5 1.91-.813 2.895-.063.121-.125.184-.25.246l-2.063.738c-.313.121-.438.246-.375.555-.063.305-.188.613-.25.859-.125.43-.25.922-.375 1.414h9.5c-.063.434-.125.68-.188.984zm-6.25-7.875l-2.563.922c.688-2.523 1.313-4.984 2-7.445h-5.625c-.25 0-.313.063-.375.309l-2.5 9.414c-.063.125-.125.246-.25.309l-1.875.676c-.063 0-.188.063-.188.125-.25.801-.438 1.598-.688 2.461.75-.309 1.5-.555 2.25-.801l-1.563 5.848h15.313c.125 0 .188-.063.188-.188.188-.613.313-1.23.5-1.906.125-.492.25-1.047.438-1.539h-9.5v-.184c.375-1.414.75-2.891 1.188-4.309 0-.063.125-.184.188-.184.438-.184.938-.371 1.375-.492.313-.125.75-.184 1-.371.188-.246.25-.676.313-.984.125-.676.25-1.168.375-1.66zm0 0" fill="rgb(24.705882%,25.098039%,24.313725%)"/><path d="M24.531 22.707h-3.313l.375-1.414c.063-.309.188-.617.25-.863l.25-.059c3.25-1.172 6.5-2.34 9.688-3.508l1.625-.617c.063.063.125.125.188.246.125.676.25 1.355.313 1.969.063.43.063.863.063 1.293 0 .121-.063.184-.125.309 0-.246 0-.492.063-.801l-.25.063-8.813 3.199c-.125.063-.25.121-.313.184zm0 0" fill="rgb(99.607843%,99.607843%,99.607843%)"/><path d="M25.719 28.555h3.25c.188 0 .25-.063.313-.246.063-.371.188-.801.313-1.172l1-.305c.375-.125.813-.309 1.25-.434-2.25 3.816-8.063 7.449-14.75 5.785-.188-.059-.375-.121-.625-.184.125-.063.188-.063.188-.125l7.625-2.766c.438-.188.938-.371 1.438-.555zm-4.563-20.43h-4c-.188 0-.313.059-.313.246-.125.492-.25.984-.375 1.414h-.063l-6.813 2.461-.563.184c.438-.613.875-1.23 1.375-1.785.438-.492 1-.984 1.5-1.414.75-.676 1.625-1.168 2.5-1.66 1.438-.68 2.875-1.109 4.5-1.293.688-.063 1.438-.125 2.125-.063 1.063.063 2.063.184 3.063.492l.313.063-.125.121c-.563.188-1.063.371-1.625.617-.5.246-1 .43-1.5.617zm0 0" fill="rgb(71.372549%,71.764706%,72.941176%)"/><path d="M33.469 16.246l-1.625.617c-3.25 1.168-6.5 2.336-9.688 3.508-.063.059-.188.059-.25.059 0-.305.125-.43.375-.555l2.063-.738c.125-.059.188-.121.25-.246.25-.984.5-1.906.813-2.891.063 0 .125 0 .188-.063l5.813-2.09 1.063-.371.813 2.094c.063.246.125.492.188.676zm0 0" fill="rgb(70.980392%,71.372549%,72.54902%)"/><path d="M8.969 12.492l.563-.184 6.813-2.461h.063l-.625 2.461-.313 1.047c-.875.305-1.75.613-2.688.984-1.813.676-3.688 1.352-5.5 1.969l.188-.984c.313-.926.75-1.785 1.25-2.648.125-.121.188-.184.25-.184zm0 0" fill="rgb(99.607843%,99.607843%,99.607843%)"/><path d="M7.344 16.246c1.813-.676 3.688-1.355 5.5-1.969.875-.309 1.75-.617 2.688-.984l-.313 1.293c-.188.738-.375 1.477-.625 2.215l-7 2.523-.125.059-.5.188v-.801zm0 0" fill="rgb(71.372549%,71.764706%,72.941176%)"/><path d="M25.719 28.555l-1.5.555c-2.5.922-5.063 1.844-7.625 2.766-.063 0-.125.063-.188.125.25.063.438.125.625.184l-.313.063c-1.375-.371-2.625-.922-3.813-1.723-.125-.063-.313-.125-.313-.371.063 0 .125 0 .25-.059 1.25-.434 2.438-.863 3.688-1.355l.438-.184zm6.75-15.078l-1.063.371-5.813 2.09c-.063 0-.125 0-.188.063.188-.676.375-1.355.5-2.031-.875.309-1.688.617-2.563.984.125-.555.313-.984.438-1.477l.813-.246 5.875-2.152.188-.125c.125.125.313.184.375.309.438.676.875 1.355 1.313 1.969.125 0 .063.184.125.246zm-25.5 6.094l.5-.188.125-.059 7-2.523c-.125.43-.25.859-.375 1.352 0 .063-.125.125-.188.188-.625.246-1.25.43-1.813.676-.188.063-.25.121-.313.309-.188.613-.375 1.23-.5 1.844l-.25.063-2.063.738c-.563.184-1.125.43-1.75.617-.063-.125-.125-.246-.125-.371l-.063-.121v-.125l-.063-.121v-.125l-.063-.121v-.188l-.063-.121v-.246l-.063-.125v-.305l-.063-.125v-.492l-.063-.246v-.125c.125 0 .188-.059.188-.059zm0 0" fill="rgb(99.215686%,99.215686%,99.215686%)"/><path d="M24.531 22.707l.313-.184 8.813-3.199.25-.063c0 .309 0 .555-.063.801-.125.801-.25 1.539-.313 2.336 0 .063-.125.188-.188.246l-2.688.984h-.063l.188-.859h-5.938l-.313-.063zm0 0" fill="rgb(71.372549%,71.764706%,72.941176%)"/><path d="M30.656 10.891c-.063.063-.125.125-.188.125l-5.875 2.152c-.25.125-.563.188-.813.246l.563-2.152c.125-.43.25-.863.375-1.355.063 0 .188 0 .25-.059l3.125-1.109h.25l.125.125c.813.613 1.5 1.289 2.188 2.027zm0 0" fill="rgb(71.372549%,71.764706%,72.54902%)"/><path d="M7.344 22.586c.563-.188 1.125-.371 1.75-.617l2.063-.738.25-.063-.563 2.215c-.063.246-.125.555-.25.863.75-.309 1.5-.555 2.25-.801l-.188.492c-.063 0-.125 0-.188.063-1.25.43-2.5.922-3.688 1.355-.125.059-.25.059-.375.059l-.438-.984c-.188-.492-.375-1.047-.563-1.598l-.063-.125zm0 0" fill="rgb(70.980392%,71.372549%,72.54902%)"/><path d="M8.406 25.293c.125 0 .25 0 .375-.063 1.25-.43 2.5-.922 3.688-1.355l.188-.059c-.125.492-.25.984-.375 1.414l-.563 2.031-1.438.555-.125.121c-.125-.063-.25-.121-.375-.246-.438-.613-.875-1.23-1.313-1.906 0-.125 0-.309-.063-.492zm19.875-16.555h-.25l-3.125 1.109-.25.059c.188-.613.313-1.168.5-1.844h-4l1.5-.555c.563-.184 1.063-.371 1.625-.617l.125-.121h.313c.875.246 1.75.676 2.563 1.105.25.125.5.25.688.434.188.184.25.309.313.43zm0 0" fill="rgb(99.215686%,99.215686%,99.215686%)"/><path d="M10.219 28l.125-.125 1.438-.551c-.125.367-.188.801-.313 1.23h5.563c-.125.063-.25.121-.438.184l-3.688 1.355-.25.059c-.375-.246-.688-.492-1.063-.797-.313-.246-.625-.555-.938-.863l-.438-.492zm0 0" fill="rgb(70.980392%,71.372549%,72.54902%)"/><path d="M6.969 19.57l-.125.121c0-.309-.063-.613.063-.859.063.184.063.492.063.738zm-.125.246l.063.246c0-.125 0-.188-.063-.246zm.125 1.168l.063.125-.063-.125zm21.5-12.121l-.125-.125.125.125zm-21.563 11.691l.063.121-.063-.121zm.125.801l.063.121-.063-.121zm0 .246l.063.121-.063-.121zm.063.246l.063.121zm.063.246l.063.121-.063-.121zm.188.551l.063.125zm16.938-6.891c-.125.555-.25 1.047-.438 1.539-.125.367-.125.738-.313.984s-.625.246-1 .367l-1.375.492c-.063.063-.188.125-.188.188-.375 1.414-.75 2.891-1.188 4.305v.188h9.5c-.125.555-.25 1.047-.438 1.539-.188.613-.375 1.23-.5 1.906-.063.121-.063.184-.188.184h-15.313c.5-1.906 1.063-3.875 1.563-5.844-.75.305-1.5.551-2.25.797.25-.859.438-1.66.688-2.461 0-.063.125-.121.188-.121l1.875-.68c.125-.059.25-.121.25-.305l2.5-9.418c.063-.184.125-.305.375-.305h5.625l-2 7.445c.938-.184 1.75-.492 2.625-.801zm0 0" fill="rgb(99.215686%,99.215686%,99.215686%)"/></g></svg>