<svg xmlns="http://www.w3.org/2000/svg" width="40pt" height="40pt" viewBox="0 0 40 40"><g><path d="M2.031 25.168v-10.031h2.563c1.125 0 2.188.738 2.5 1.848l1.25 4 1.563-4.246c.375-1.047 1.375-1.723 2.438-1.723h2.375v10.152h-3.125v-6.031l-2.188 6.031h-2.25l-1.938-6.09v6.09zm0 0M16.094 15.078v10.09h2.188c1 0 1.875-.551 2.375-1.414l2.563-4.738v6.094h3.313v-10.219h-2.25c-.938 0-1.813.492-2.25 1.355l-2.563 4.922v-6.152zm0 0M27.781 19.383v5.785h3.5v-3.32h2.313c1.813 0 3.438-.926 4.375-2.34zm0 0" fill="rgb(0%,67.45098%,26.666667%)"/><path d="M27.156 14.891h6.875c2.313 0 4.188 1.848 4.188 4.125h-6.875c-2.313 0-4.188-1.848-4.188-4.125zm0 0" fill="rgb(0%,64.705882%,89.019608%)"/></g></svg>