<svg xmlns="http://www.w3.org/2000/svg" width="40pt" height="40pt" viewBox="0 0 40 40"><g fill-rule="evenodd"><path d="M20 0c-11.043 0-20 8.957-20 20 0 2.207.355 4.332 1.02 6.316h5.98v-16.828l13 13 13-13v16.828h5.98c.66-1.984 1.02-4.109 1.02-6.316 0-11.043-8.957-20-20-20zm0 0" fill="#f60"/><path d="M17.012 25.477l-5.676-5.672v10.59h-8.426c3.512 5.758 9.852 9.605 17.09 9.605 7.238 0 13.578-3.848 17.09-9.605h-8.43v-10.59l-5.672 5.672-2.988 2.992zm0 0" fill="rgb(29.803922%,29.803922%,29.803922%)"/></g></svg>