<svg xmlns="http://www.w3.org/2000/svg" width="40pt" height="40pt" viewBox="0 0 40 40"><g fill-rule="evenodd"><path d="M40 20c0 11.047-8.953 20-20 20s-20-8.953-20-20 8.953-20 20-20 20 8.953 20 20zm0 0" fill="rgb(99.607843%,99.607843%,99.607843%)"/><path d="M20 35l-.199-.199c-6.199-3.602-10.801-9.402-12.602-16.402-.398-1.199-.598-2.398-.598-3.398-.203-1.199-.402-2.398-.402-3.602 0-.199 0-.199.199-.199 3.203-1.801 6.602-3 10.203-3.398 1.199-.199 2.199-.199 3.398-.199h.602c.797 0 1.598 0 2.199.199 3.801.398 7.398 1.398 10.598 3.398h.203v2.402c-.203 1-.203 1.797-.402 2.797-.398 2-1 4-2 6-1.199 3-3 5.602-5.398 8-1.602 1.801-3.602 3.203-5.602 4.402 0 0-.199 0-.199.199zm0 0"/><path d="M7.602 12c1.598-.801 3.398-1.602 5.199-2.199 2.398-.801 5-1 7.598-1 1.203 0 3.203.199 3.602.398-.199 0-.199 0-.398.199-2.203.801-3.602 2.801-4.203 5v1.203c0 .598 0 1-.199 1.598-.598 2-2.199 3.602-4.398 4.199-2.602.602-5.402-.797-6.602-3.199v-.598l-.598-2.402v-3.199zm0 0" fill="rgb(96.862745%,65.882353%,0%)"/><path d="M26.801 27.801v-.801c.199-1.199-.199-2.398-.801-3.602-.602-1-1.398-2-2.398-2.598l-.402-.199c-1.398-1-2.199-2.203-2.598-3.801-.602-3.199 1.398-6 4.398-6.801 1-.199 2-.199 3 .199 1 .199 1.801.602 2.602 1 .598.199 1 .402 1.598.801h.199v2.398l-.598 3c-.602 3-1.801 5.602-3.402 8.203l-1.398 2c-.199 0-.199.199-.199.199zm0 0zm0 0" fill="rgb(40.392157%,69.803922%,90.980392%)"/><path d="M20 33.602c-.199 0-.801-.402-1.398-.801-1.602-1-2.801-2.199-4-3.402-1.203-1.199-2.203-2.598-3.203-4-.797-1.398-1.598-2.797-2.199-4.199v-.199l.199.199c.402.199.801.602 1.402.801.598.199 1.398.398 2 .602 1.598 0 3-.203 4.199-1 .801-.402 1.398-.602 2.199-.602 2.801-.398 5.402 1.199 6.402 4 .398 1.398.199 2.801-.402 4.199l-.398.602s0 .199-.199.199c-1.203 1.398-2.801 2.602-4.402 3.602h-.199zm0 0" fill="rgb(0%,76.862745%,70.196078%)"/></g></svg>