<svg xmlns="http://www.w3.org/2000/svg" width="40pt" height="40pt" viewBox="0 0 40 40"><defs><linearGradient id="a" gradientUnits="userSpaceOnUse" x1="46.733" y1="157.57" x2="318.987" y2="4.364" gradientTransform="scale(.2)"><stop offset="0" stop-color="rgb(74.509804%,92.156863%,0%)"/><stop offset=".231" stop-color="rgb(34.509804%,74.901961%,0%)"/><stop offset=".42" stop-color="rgb(34.509804%,74.901961%,0%)"/><stop offset=".612" stop-color="rgb(16.078431%,72.156863%,0%)"/><stop offset=".78" stop-color="rgb(0%,68.235294%,11.372549%)"/><stop offset=".988" stop-color="rgb(0%,65.098039%,17.254902%)"/><stop offset="1" stop-color="rgb(0%,65.098039%,17.254902%)"/></linearGradient><linearGradient id="b" gradientUnits="userSpaceOnUse" x1="-1237.37" y1="17989.5" x2="37428" y2="-34504.2" gradientTransform="scale(.2)"><stop offset="0" stop-color="rgb(74.509804%,92.156863%,0%)"/><stop offset=".231" stop-color="rgb(34.509804%,74.901961%,0%)"/><stop offset=".42" stop-color="rgb(34.509804%,74.901961%,0%)"/><stop offset=".612" stop-color="rgb(16.078431%,72.156863%,0%)"/><stop offset=".78" stop-color="rgb(0%,68.235294%,11.372549%)"/><stop offset=".988" stop-color="rgb(0%,65.098039%,17.254902%)"/><stop offset="1" stop-color="rgb(0%,65.098039%,17.254902%)"/></linearGradient><linearGradient id="c" gradientUnits="userSpaceOnUse" x1="-8937.27" y1="11580.9" x2="85272.1" y2="-9892.21" gradientTransform="scale(.2)"><stop offset="0" stop-color="rgb(74.509804%,92.156863%,0%)"/><stop offset=".231" stop-color="rgb(34.509804%,74.901961%,0%)"/><stop offset=".42" stop-color="rgb(34.509804%,74.901961%,0%)"/><stop offset=".612" stop-color="rgb(16.078431%,72.156863%,0%)"/><stop offset=".78" stop-color="rgb(0%,68.235294%,11.372549%)"/><stop offset=".988" stop-color="rgb(0%,65.098039%,17.254902%)"/><stop offset="1" stop-color="rgb(0%,65.098039%,17.254902%)"/></linearGradient></defs><g fill-rule="evenodd"><path d="M40 20c0 11.047-8.953 20-20 20s-20-8.953-20-20 8.953-20 20-20 20 8.953 20 20zm0 0" fill="rgb(92.156863%,92.54902%,92.54902%)"/><path d="M31.602 10.801v18.398l-9.602-4.598v-10.402zm0 0" fill="url(#a)"/><path d="M8.199 29.398l9.402 4.602v-18.398l-9.402-4.402zm0 0" fill="url(#b)"/><path d="M31.199 10.398h.402l-9.402-4.398h-.199l-.199.199-13.199 4.602 9.199 4.398 4-1.398h.199zm0 0" fill="url(#c)"/></g></svg>