<svg xmlns="http://www.w3.org/2000/svg" width="40pt" height="40pt" viewBox="0 0 40 40"><path d="M20.531 1.785c10.563 0 19.125 8.43 19.125 18.832 0 10.398-8.5 18.766-19.063 18.828-10.563 0-19.125-8.367-19.125-18.828-.063-10.402 8.5-18.832 19.063-18.832zm1.875 22.77c.813-.371 1.625-.68 2.375-1.109.75-.367.938-1.168.563-1.785-.375-.613-1.125-.797-1.813-.43-2 1.109-4.063 1.109-6.063 0-.688-.367-1.438-.184-1.813.492-.375.617-.188 1.355.438 1.723.688.371 1.438.617 2.125.926l.438.121-2.375 2.34c-.313.305-.5.676-.438 1.168.063.492.375.863.875 1.047.563.184 1 .063 1.375-.371l2.438-2.398.313.367c.688.68 1.375 1.418 2.125 2.094.375.371.875.492 1.375.309.5-.184.75-.555.875-1.047.063-.492-.125-.863-.438-1.23-.813-.676-1.625-1.477-2.375-2.215zm-1.875-3.691c2.5 0 4.5-1.973 4.5-4.371 0-2.398-2-4.43-4.438-4.43-2.438 0-4.5 1.969-4.5 4.43-.063 2.398 1.938 4.371 4.438 4.371zm0 0" fill="rgb(97.254902%,58.039216%,0%)"/><path d="M22.406 24.555l2.313 2.277c.313.305.563.738.438 1.23-.063.492-.375.859-.875 1.047-.5.184-1 .059-1.375-.309-.688-.676-1.438-1.355-2.125-2.094l-.313-.367-2.438 2.398c-.375.371-.875.555-1.375.371-.5-.188-.813-.555-.875-1.047-.063-.492.125-.863.438-1.172.813-.738 1.563-1.535 2.375-2.336-.188-.063-.313-.125-.438-.125-.688-.305-1.438-.555-2.125-.922-.688-.371-.813-1.109-.438-1.723.375-.617 1.125-.863 1.813-.492 2 1.168 4 1.168 6.063 0 .688-.371 1.438-.184 1.813.43.375.617.188 1.414-.563 1.785-.688.367-1.438.676-2.313 1.047zm0 0l-1.875-3.692c-2.5 0-4.438-1.973-4.438-4.434 0-2.398 2.063-4.43 4.5-4.43 2.438 0 4.5 2.031 4.438 4.43 0 2.461-2.063 4.434-4.5 4.434zm-1.875-4.434c0 .984.813 1.848 1.813 1.848 1.063 0 1.875-.801 1.875-1.848 0-.984-.813-1.844-1.813-1.844-1 .059-1.875.859-1.875 1.844zm0 0" fill="rgb(99.607843%,99.215686%,98.823529%)"/><path d="M18.656 16.43c0-.984.813-1.785 1.875-1.785 1 0 1.813.801 1.813 1.848 0 1.047-.813 1.848-1.875 1.848-1-.063-1.813-.863-1.813-1.91zm0 0" fill="rgb(97.254902%,58.039216%,1.176471%)"/></svg>