<svg xmlns="http://www.w3.org/2000/svg" width="40pt" height="40pt" viewBox="0 0 40 40"><path d="M40 20c0 11.047-8.953 20-20 20s-20-8.953-20-20 8.953-20 20-20 20 8.953 20 20zm0 0" fill="rgb(10.196078%,32.54902%,94.117647%)"/><path d="M16.063 22.707c-2.551 0-4.625 2.078-4.625 4.641s2.074 4.637 4.625 4.637c2.555 0 4.625-2.074 4.625-4.637 0-2.563-2.07-4.641-4.625-4.641zm0 7.875c-1.777 0-3.223-1.449-3.223-3.234s1.445-3.234 3.223-3.234c1.781 0 3.227 1.449 3.227 3.234-.004 1.785-1.445 3.23-3.227 3.234zm9.879-17.766c-2.555 0-4.625 2.074-4.625 4.637 0 2.563 2.07 4.637 4.625 4.637s4.625-2.074 4.625-4.637c0-2.563-2.07-4.637-4.625-4.637zm0 7.871c-1.781 0-3.223-1.445-3.223-3.234 0-1.785 1.441-3.23 3.223-3.23 1.781 0 3.223 1.445 3.223 3.23s-1.445 3.23-3.223 3.234zm-9.879-7.871c-2.199-.004-4.098 1.551-4.535 3.715-.438 2.164.707 4.34 2.734 5.199 2.031.855 4.387.156 5.625-1.664 1.242-1.824 1.027-4.27-.512-5.848h1.313v-1.402zm3.227 4.637c0 1.785-1.445 3.234-3.227 3.234-1.777 0-3.223-1.449-3.223-3.234s1.445-3.234 3.223-3.234c1.781 0 3.223 1.449 3.227 3.234zm0 0" fill="#fff"/></svg>