<svg xmlns="http://www.w3.org/2000/svg" width="40pt" height="40pt" viewBox="0 0 40 40"><path d="M.031 19.383v-19.137h39.188v39.445h-19.125v-1.105c0-2.711.125-5.418-.5-8.125-.75-3.57-2.375-6.586-5.563-8.613-2.5-1.539-5.25-2.219-8.125-2.34l-5.875-.125zm31 12.125v-23.078h-22.813l-.063.309v2.215c0 .492.188.617.625.617.625.059 1.25.184 1.875.305 9.125 1.973 14.688 7.508 16.75 16.434l.625 3.137c1 .063 1.938.063 3 .063zm0 0" fill="rgb(45.490196%,68.235294%,14.901961%)"/><path d="M15.406 40h-15.375v-15.445h14.125c1.188 0 1.25.063 1.25 1.23v14.215zm0 0" fill="rgb(7.45098%,7.45098%,7.45098%)"/></svg>