<?xml version="1.0" encoding="UTF-8"?>
<svg xmlns="http://www.w3.org/2000/svg" xmlns:xlink="http://www.w3.org/1999/xlink" width="40pt" height="40pt" viewBox="0 0 40 40" version="1.1">
<g id="surface1">
<path style=" stroke:none;fill-rule:nonzero;fill:rgb(10.980392%,41.176471%,63.921569%);fill-opacity:1;" d="M 20.78125 1.539062 C 21.65625 1.660156 22.53125 1.785156 23.40625 1.90625 C 25.46875 2.214844 27.34375 2.953125 29.21875 4 C 28.65625 4.492188 28.15625 4.984375 27.65625 5.414062 C 26.78125 4.554688 25.90625 3.691406 25.03125 2.832031 C 23.59375 4.125 22.09375 5.355469 20.65625 6.644531 C 19.78125 5.722656 18.96875 4.800781 18.03125 3.875 C 15.28125 6.339844 12.53125 8.738281 9.78125 11.199219 C 11.53125 13.109375 13.28125 14.953125 15.03125 16.863281 C 14.34375 17.476562 13.71875 18.03125 12.96875 18.644531 C 14.71875 20.554688 16.40625 22.398438 18.09375 24.308594 C 17.40625 24.921875 16.78125 25.476562 16.09375 26.09375 C 18.59375 28.800781 21.03125 31.507812 23.53125 34.214844 C 25.03125 32.863281 26.46875 31.570312 27.90625 30.277344 C 29.15625 31.691406 30.34375 33.046875 31.65625 34.460938 C 31.15625 34.832031 30.65625 35.136719 30.15625 35.507812 C 27.90625 36.921875 25.53125 37.847656 22.90625 38.277344 C 22.78125 38.277344 22.65625 38.398438 22.53125 38.398438 C 20.84375 38.398438 19.21875 38.398438 17.53125 38.398438 C 17.40625 38.339844 17.28125 38.277344 17.15625 38.277344 C 15.71875 37.90625 14.15625 37.660156 12.78125 37.046875 C 6.84375 34.585938 3.03125 30.214844 1.53125 24 C 1.28125 23.015625 1.21875 21.96875 1.03125 20.921875 C 1.03125 20.308594 1.03125 19.628906 1.03125 19.015625 C 1.09375 18.398438 1.21875 17.785156 1.28125 17.167969 C 1.90625 13.355469 3.53125 10.03125 6.28125 7.261719 C 8.96875 4.492188 12.21875 2.707031 15.96875 1.96875 C 16.90625 1.785156 17.90625 1.660156 18.90625 1.476562 C 19.53125 1.539062 20.15625 1.539062 20.78125 1.539062 Z M 20.78125 1.539062 "/>
<path style=" stroke:none;fill-rule:nonzero;fill:rgb(10.980392%,41.176471%,63.921569%);fill-opacity:1;" d="M 20.28125 23.324219 C 18.96875 21.847656 17.65625 20.429688 16.28125 18.953125 C 17.71875 17.660156 19.15625 16.371094 20.71875 15.078125 C 22.03125 16.492188 23.34375 17.90625 24.71875 19.382812 C 23.21875 20.675781 21.78125 21.96875 20.28125 23.324219 Z M 20.28125 23.324219 "/>
<path style=" stroke:none;fill-rule:nonzero;fill:rgb(10.980392%,41.176471%,63.921569%);fill-opacity:1;" d="M 24.15625 22.523438 C 25.46875 24 26.78125 25.414062 28.15625 26.832031 C 26.65625 28.125 25.21875 29.414062 23.71875 30.707031 C 22.40625 29.230469 21.09375 27.816406 19.71875 26.398438 C 21.21875 25.109375 22.65625 23.875 24.15625 22.523438 Z M 24.15625 22.523438 "/>
<path style=" stroke:none;fill-rule:nonzero;fill:rgb(10.980392%,41.176471%,63.921569%);fill-opacity:1;" d="M 17.71875 7.570312 C 19.03125 9.046875 20.34375 10.398438 21.71875 11.875 C 20.21875 13.167969 18.78125 14.460938 17.28125 15.753906 C 15.96875 14.339844 14.65625 12.921875 13.28125 11.445312 C 14.71875 10.214844 16.15625 8.921875 17.71875 7.570312 Z M 17.71875 7.570312 "/>
<path style=" stroke:none;fill-rule:nonzero;fill:rgb(10.980392%,41.176471%,63.921569%);fill-opacity:1;" d="M 30.34375 26.09375 C 29.34375 24.984375 28.34375 23.9375 27.34375 22.832031 C 28.40625 21.847656 29.46875 20.921875 30.59375 19.9375 C 31.59375 21.046875 32.53125 22.09375 33.59375 23.199219 C 32.53125 24.125 31.46875 25.109375 30.34375 26.09375 Z M 30.34375 26.09375 "/>
<path style=" stroke:none;fill-rule:nonzero;fill:rgb(10.980392%,41.176471%,63.921569%);fill-opacity:1;" d="M 21.28125 9.355469 C 22.40625 8.371094 23.46875 7.445312 24.59375 6.460938 C 25.59375 7.507812 26.53125 8.554688 27.53125 9.660156 C 26.40625 10.644531 25.34375 11.570312 24.21875 12.554688 C 23.21875 11.507812 22.28125 10.460938 21.28125 9.355469 Z M 21.28125 9.355469 "/>
<path style=" stroke:none;fill-rule:nonzero;fill:rgb(10.980392%,41.176471%,63.921569%);fill-opacity:1;" d="M 30.40625 29.539062 C 31.53125 28.554688 32.59375 27.628906 33.65625 26.644531 C 34.65625 27.691406 35.59375 28.800781 36.65625 29.90625 C 35.53125 30.890625 34.46875 31.816406 33.40625 32.800781 C 32.34375 31.691406 31.40625 30.644531 30.40625 29.539062 Z M 30.40625 29.539062 "/>
<path style=" stroke:none;fill-rule:nonzero;fill:rgb(10.980392%,41.176471%,63.921569%);fill-opacity:1;" d="M 30.96875 16.0625 C 29.84375 17.046875 28.78125 17.96875 27.65625 18.953125 C 26.65625 17.847656 25.65625 16.800781 24.71875 15.691406 C 25.84375 14.707031 26.90625 13.785156 28.03125 12.800781 C 28.96875 13.90625 29.90625 14.953125 30.96875 16.0625 Z M 30.96875 16.0625 "/>
<path style=" stroke:none;fill-rule:nonzero;fill:rgb(10.980392%,41.176471%,63.921569%);fill-opacity:1;" d="M 31.53125 14.339844 C 32.28125 13.660156 32.96875 13.046875 33.65625 12.429688 C 34.28125 13.109375 34.96875 13.785156 35.65625 14.585938 C 34.96875 15.199219 34.21875 15.816406 33.46875 16.492188 C 32.84375 15.816406 32.21875 15.136719 31.53125 14.339844 Z M 31.53125 14.339844 "/>
<path style=" stroke:none;fill-rule:nonzero;fill:rgb(10.980392%,41.176471%,63.921569%);fill-opacity:1;" d="M 36.53125 22.832031 C 35.84375 22.09375 35.21875 21.414062 34.59375 20.675781 C 35.34375 20 36.03125 19.382812 36.78125 18.769531 C 37.40625 19.507812 38.03125 20.183594 38.71875 20.921875 C 37.96875 21.601562 37.28125 22.214844 36.53125 22.832031 Z M 36.53125 22.832031 "/>
<path style=" stroke:none;fill-rule:nonzero;fill:rgb(10.980392%,41.176471%,63.921569%);fill-opacity:1;" d="M 33.03125 7.875 C 32.28125 8.492188 31.59375 9.109375 30.84375 9.785156 C 30.15625 9.046875 29.59375 8.371094 28.90625 7.691406 C 29.65625 7.078125 30.34375 6.398438 31.09375 5.785156 C 31.71875 6.460938 32.34375 7.136719 33.03125 7.875 Z M 33.03125 7.875 "/>
</g>
</svg>
