<svg xmlns="http://www.w3.org/2000/svg" width="40pt" height="41pt" viewBox="0 0 40 41"><path d="M27.723 28.813c-.367 0-.676.129-.867.359-.484.594-.266 1.641.477 2.285.324.281.793.449 1.254.449.465 0 .855-.176 1.098-.488.43-.578.184-1.395-.637-2.078-.402-.34-.875-.527-1.324-.527zm4.078-2.984c-.363-.105-.633-.027-.766.215-.203.367-.051 1.09.355 1.719.414.641.762.965 1.043.965.094 0 .18-.039.25-.113.152-.18.203-.547.141-1.016-.066-.48-.363-1.465-1.023-1.77zm8.078 14.5c.375.457-.195.926-.621.551-4.23-3.719-7.793-4.77-11.313-4.918-1.867-.078-3.727.102-5.668.27l-1.172.102-.523.039c-.684.074-1.379.113-2.082.113-3.313 0-6.438-.809-9.293-2.395-2.863-1.594-5.137-3.82-6.762-6.617-1.625-2.789-2.445-5.875-2.445-9.164 0-3.289.82-6.387 2.441-9.203 1.621-2.824 3.871-5.07 6.688-6.68 2.816-1.609 5.887-2.426 9.125-2.426 3.387 0 6.551.805 9.406 2.395 2.863 1.594 5.145 3.828 6.785 6.637 1.637 2.809 2.469 5.898 2.469 9.188 0 1.27-.125 2.512-.371 3.719-.031.172-.074.387-.137.633l-.156.59-.012-.008c-.328 1.043-.941 2.516-2.078 4.41-.121.199-.188.047-.203-.066-.398-2.781-1.629-4.895-3.797-6.262l-.109-.066c-.355-.215-.734-.414-1.137-.59-.52-.227-1.074-.422-1.676-.582-.367-.098-1.188-.055-.887-.348.121-.121 1.895-.148 3.938-.02l.117.008c.039-.426.059-.859.059-1.305 0-3.477-1.16-6.309-3.543-8.66-2.387-2.352-5.18-3.496-8.531-3.496-3.434 0-6.219 1.145-8.516 3.504-2.305 2.367-3.426 5.176-3.426 8.582 0 3.402 1.152 6.199 3.523 8.551 2.371 2.352 5.125 3.496 8.418 3.496l.469-.012-.008-.117c-.191-2.398-.23-4.391.266-3.586.176.285.352.551.523.813.648.961 1.293 1.754 1.934 2.41l.094.098c2.344 2.355 4.645 2.938 7.094 3.531l.156.039 1.219.305c2.91.773 6.063 2.016 9.742 6.539zm0 0" fill="rgb(100%,54.901961%,0%)"/></svg>