<svg xmlns="http://www.w3.org/2000/svg" width="40pt" height="40pt" viewBox="0 0 40 40"><path d="M39.898 38.539l-.012-.02-6.895-6.23 3.277-10.129.012-.031v-.262l-3.355-10.43-.027-.078v-.027l-.094-.09c-.023-.051-.066-.094-.121-.113l-8.828-6.441-.055-.039h-11.16c-.063 0-.078.012-.219.109l-.289.207-1.016.734c-.746.535-1.781 1.281-3.082 2.223-2.211 1.598-4.449 3.215-4.473 3.23l-.18.18v.117l-3.375 10.391-.008.027v.266l3.383 10.418c0 .074.027.141.074.191l.098.094 8.805 6.371c.035.063.102.105.172.109l.129.035h11.074l.039-.043.07-.027h.008l8.566-6.207 6.777 6.156.16.094c.117.035.242.035.359 0 .078-.027.141-.086.184-.156.07-.086.105-.191.102-.301 0-.117-.035-.23-.102-.328zm-7.594-17.004l.461-7.418 2.375 7.418zm2.836.93l-2.375 7.418-.461-7.418zm-26.469 8.406l2.852 6.59-6.742-4.898zm10.348-18.641l4.488-6.148 3.074 7.102zm8.59.898l-2.852-6.59 6.738 4.898zm.441.859l3.859-1.691-.48 7.883-.004.086zm-23.195 6.277l-.004-.082-.48-7.887 2.281 1.008 1.578.684zm17.805-14.648l-4.504 6.164-4.531-6.164zm8.367 16.848l-3.609 6.699-1.977-4.23-1.113-2.469zm-6.699-.93l3.09-6.695 3.609 6.695zm-5.297-8.336l7.645.957-3.145 6.813zm.938 16.004l3.563-6.172 3.145 6.813-7.641.953zm-6.426-7.668l4.613-7.98 2.273 3.988 2.309 3.992zm9.195.93l-4.582 7.984-2.309-3.992-2.305-3.992zm-6.328-7.801l-3.629 6.301-3.145-6.809 7.613-.957zm.84 16.137l-7.613-.957 2.367-5.148.777-1.664zm-11.961-9.266l3.605-6.695 1.98 4.328 1.105 2.367zm6.695.93l-3.09 6.695-3.605-6.695zm19.441 1.266v.02l.484 7.953-2.281-1.008-1.582-.684zm-26.645-12.293l6.742-4.898-2.852 6.59zm3.449 18.574l-3.859 1.691.48-7.949v-.023zm9.926 2.207l4.504 6.164h-9.035zm13.34.344l-6.738 4.898 2.852-6.59zm-21.797-19.379l3.074-7.102 4.488 6.148zm-8.559 8.352l2.375-7.418.457 7.418zm2.836.93l-.461 7.418-2.375-7.418zm13.285 9.305l-4.488 6.148-3.074-7.102zm9.32-.953l-3.074 7.102-4.488-6.148zm0 0" fill="rgb(18.039216%,60.392157%,81.568627%)"/></svg>