<svg xmlns="http://www.w3.org/2000/svg" width="40pt" height="40pt" viewBox="0 0 40 40"><g fill-rule="evenodd"><path d="M40 20c0 11.047-8.953 20-20 20s-20-8.953-20-20 8.953-20 20-20 20 8.953 20 20zm0 0" fill="rgb(98.431373%,92.156863%,13.333333%)"/><path d="M7.484 28.34l3.652 3.723 8.551-8.676 8.84 8.855 3.703-3.668-8.75-8.75 1.684-1.629v-3.473l1.055-.891v2.719l1.359 1.109 4.063-4.063 1.305 1c.77-2.844-3.684-9.301-7.371-5.723l-4.293 4.258.875 1.055-2.184 2.129-2.109-2.074 1.109-1.004-4.707-4.543c-3.543-2.918-7.176 1.52-7.301 5.852l1.289-1.074 3.953 4.258 1.414-1.18v-2.613l.879.66v3.418l1.719 1.719zm0 0" fill="rgb(17.254902%,16.862745%,16.470588%)"/></g></svg>