<svg xmlns="http://www.w3.org/2000/svg" width="40pt" height="40pt" viewBox="0 0 40 40"><g fill-rule="evenodd"><path d="M39.723 19.863c0 10.969-8.891 19.859-19.859 19.859-10.973 0-19.863-8.891-19.863-19.859 0-10.973 8.891-19.863 19.863-19.863 10.969 0 19.859 8.891 19.859 19.863zm0 0" fill="rgb(0%,53.72549%,75.686275%)"/><path d="M24.277 17.93h-.277c-.551 0-2.207.277-2.207 1.934 0 2.207 2.484 2.207 2.484 2.207 2.758 0 4.965 2.48 4.965 5.238 0 2.762-2.207 5.242-5.242 5.242-2.758 0-5.242-2.48-5.242-5.242 0-1.102.551-2.207 1.105-3.031 0-.555.273-1.656-.555-2.762-.824-.824-2.48 0-3.031.828-.277 0-.277.277-.277.555h-.277c-.824 1.379-2.48 2.203-4.137 2.203-3.035 0-5.242-2.203-5.242-4.965 0-3.035 2.207-5.238 5.242-5.238 1.656 0 3.586 1.102 4.414 2.48 0 0 .828 1.379 1.93 1.379.828 0 1.934-.551 1.934-2.207 0-.273 0-.828-.277-1.102 0-.277 0-.277-.277-.551-.273-.828-.551-1.383-.551-2.207 0-3.035 2.484-5.242 5.242-5.242 3.035 0 5.242 2.207 5.242 5.242 0 2.758-2.207 4.965-4.965 5.238zm0 0" fill="#fff"/></g></svg>