<svg xmlns="http://www.w3.org/2000/svg" width="40pt" height="40pt" viewBox="0 0 40 40"><path d="M39.406 20.309c0 10.332-8.508 18.707-19 18.707s-19-8.375-19-18.707 8.508-18.707 19-18.707 19 8.375 19 18.707zm0 0" fill="rgb(95.686275%,50.980392%,15.294118%)"/><path d="M21.156 32.063c-.063-1.109-.438-2.094-.813-3.078-.188-.43-.438-.859-.625-1.23-.438-.617-.813-1.23-1.25-1.906l-1.313-1.418-1.563-1.23-.75-.492-1.25-.613c-.875-.309-1.75-.617-2.688-.926-.313-.121-.688-.184-1.063-.305 0-.738 0-.738.688-1.047l1.563-.68 2.688-1.105.625-.246 1.563-.676c.625-.246 1.25-.492 1.938-.738l4.563-1.91 1.563-.613 1.125-.492 2.688-1.109c.188-.063.375-.063.563-.184.688-.246.875-.125 1 .613-.125.246-.188.492-.313.801-.125.246-.188.492-.313.801-.25.555-.438 1.105-.688 1.723l-.438.922-.063.188c-.063.184-.125.367-.25.613l-.438 1.109-.813 1.844-.25.617-.5 1.23c-.25.613-.5 1.23-.813 1.848-.25.613-.5 1.23-.813 1.844l-.625 1.539-.813 1.848-.313.797-.438 1.109c-.5.863-.5.863-1.375.555zm0 0" fill="rgb(99.607843%,99.607843%,99.607843%)"/></svg>