<svg xmlns="http://www.w3.org/2000/svg" viewBox="0 0 48.3 48.3" enable-background="new 0 0 48.3 48.3"><g><path fill="#655C4B" d="M24.1 1.5c-12.4 0-22.6 10.1-22.6 22.6 0 12.5 10.1 22.6 22.6 22.6 12.5 0 22.6-10.1 22.6-22.6 0-8.8-5-16.3-12.3-20.1l-.2-.2v.1c-.9-.4-1.8-.8-2.8-1.2.1-.3.2-.8.2-1.1 0-.4-.3-.8-1-.7-.5.1-1.7.5-2.7.9-1.1-.1-2.4-.3-3.8-.3z"/><path fill="#DDDFDC" d="M1.7 24.1h-.3v-1.2l.1-1.2.1-1.1.2-1.1.3-1.1.3-1.1.4-1.1.4-1 .5-1 .5-1 .5-1 .6-.9.6-.9.7-.9.7-.8.8-.7.8-.8.8-.7.9-.7.9-.6.9-.6 1-.5 1-.5 1-.5 1-.4 1.1-.4 1.1-.3 1.1-.3 1.1-.2 1.1-.1h2.3v.3h-1.2l-1.1.1-1.1.1-1.1.2-1.1.3-1.1.3-1 .4-1 .4-1 .5-1 .5-.9.5-.9.6-.9.6-1 .6-.8.7-.8.7-.7.8-.7.8-.7.8-.6.9-.6.9-.5.9-.5 1-.5 1-.4 1-.4 1-.3 1.1-.3 1.1-.2 1.1-.1 1.1v2.4000000000000004zm-.3 0h.3-.3zm22.7 22.5v.3h-1.2l-1.2-.1-1.1-.1-1.1-.2-1.1-.3-1.1-.3-1.1-.4-1-.4-1-.5-1-.5-1-.5-.8-.6-.9-.6-.9-.7-.8-.7-.8-.8-.8-.8-.7-.8-.7-.9-.6-.9-.6-.9-.5-1-.5-1-.5-1-.4-1-.4-1.1-.3-1.1-.3-1.1-.2-1.1-.1-1.1-.1-1.2v-1.2h.3v1.2l.1 1.1.1 1.1.2 1.1.3 1.1.3 1.1.4 1 .4 1 .5 1 .5 1 .5.9.6.9.6.9.7.8.7.8.7 1 .8.8.8.7.8.7.9.6.9.6.9.5 1 .5 1 .5 1 .4 1 .4 1.1.3 1.1.3 1.1.2 1.1.1 1.1.1 1.3-.1zm0 .3v-.3.3zm22.5-22.8h.3v1.2l-.1 1.2-.1 1.1-.2 1.1-.3 1.1-.3 1.1-.4 1.1-.4 1-.5 1-.5 1-.5 1-.6.9-.6.9-.7.9-.7.7-.8.8-.8.8-.8.7-.9.7-.8.6-.9.6-1 .5-1 .5-1 .5-1 .4-1.1.4-1.1.3-1.1.3-1.1.2-1.1.1-1.2.1h-1.2v-.3h1.2l1.1-.1 1.1-.1 1.1-.2 1.1-.3 1.1-.3 1-.4 1-.4 1-.5 1-.5.9-.5.9-.6.9-.6.8-.7.8-.7.9-.7.7-.8.7-.8.7-.8.6-.9.6-.9.5-.9.5-1 .5-1 .4-1 .4-1 .3-1.1.3-1.1.2-1.1.1-1.1.1-1.1v-1.3zm.3 0h-.3.3zm-12.5-20l.2-.2.7.4.7.4.7.4.6.4.5.5.6.5.6.4.6.5.5.6.5.5.5.6.5.6.5.6.5.6.4.6.4.6.4.7.4.7.4.7.3.7.3.7.3.7.3.7.2.7.2.8.2.8.2.8.1.8.1.8.1.8v1.6h-.3v-1.6l-.1-.8-.1-.8-.1-.8-.2-.8-.2-.8-.2-.8-.2-.7-.3-.7-.2-.6-.3-.7-.3-.7-.4-.7-.4-.7-.4-.7-.4-.6-.4-.6-.5-.6-.5-.6-.4-.5-.5-.6-.5-.5-.5-.5-.6-.5-.6-.5-.6-.5-.7-.5-.6-.4-.6-.4-.7-.4-.7-.4zm.1-.2l-.1.2.1-.2zm-.1 0h-.3l.2-.1.1.1h.1l-.2.2c-.1-.1.1-.2.1-.2zm0-.1l-.2.2.2-.2zm-.2.3l.1-.2-.2.1h.3c0-.1-.2.1-.2.1zm-.1-.2h.3-.3zm-2.7-1.1l.3.1-.1-.2h3.2000000000000015l-.1.2h-3.2000000000000015l-.1-.1zm.2-.1l-.1.3.1-.3zm0-1h.3l-.3-.1v.1zm.3 0h-.3.3zm-1.1-.6l-.1-.3h1.0999999999999999-.3-.1l-.6.3zm-.1-.2l.1.3-.1-.3zm-2.7 1.1v-.3h-.1.1.1.1.1.1.1.1.1.1.1.1.1.1.1.1.1.1.1.1.1.1.1.1.1.1.1.1.1.1.1.1l.1.3h-3.1000000000000014zm0-.2l.1.2-.1-.2zm-3.9-.1v-.3h3.2000000000000015l.7.6h-3.1000000000000014l-.8-.3zm0-.3v.3-.3z"/><path fill="#655C4B" d="M24.1 48.1c13.3 0 24-10.7 24-24 0-10.4-6.6-19.2-15.8-22.6l.1.5c8.9 3.4 15.2 11.9 15.2 22 0 13-10.5 23.5-23.5 23.5s-23.5-10.5-23.5-23.5 10.5-23.5 23.5-23.5c1.4 0 2.8.1 4.1.4l.8-.3c-1.6-.3-3.2-.5-4.9-.5-13.3 0-24 10.7-24 24s10.8 24 24 24z"/><path fill="#DDDFDC" d="M48 24.1h.3v1.2l-.1 1.2-.2 1.3-.2 1.2-.3 1.2-.3 1.1-.4 1.1-.4 1.1-.5 1.1-.5 1-.6 1-.6 1-.7.9-.7.9-.8 1-.8.8-.8.8-.9.8-.9.7-.9.7-1 .6-1 .6-1 .5-1.1.5-1.1.4-1.1.4-1.1.3-1.3.3-1.2.2-1.2.2-1.2.1h-1.2v-.3h1.2l1.2-.1 1.2-.2 1.2-.2 1.2-.3 1.1-.3 1.1-.4 1.1-.4 1.1-.5 1-.5 1-.6 1-.6.9-.7.9-.7.9-.8.7-.7.8-.8.8-.9.7-.9.7-.9.6-1 .6-1 .5-1 .5-1.1.4-1.1.4-1.1.3-1.1.3-1.2.2-1.2.2-1.2.1-1.2-.1-1.2zm.3 0h-.3.3zm-15.8-22.6h-.3l.2-.2.9.3.8.4.8.4.8.6.8.5.8.5.8.5.7.5.7.6.7.6.7.6.6.6.6.6.6.7.6.7.5.7.5.8.5.8.5.8.4.8.4.8.4.8.3.9.3.9.3.9.2.9.2.9.2.9.1.9.1 1 .1 1v1h-.3v-1l-.1-1-.1-.9-.1-.9-.2-.9-.2-.9-.2-.9-.3-.9-.3-.9-.3-.9-.4-.8-.4-.8-.4-.8-.5-.8-.4-.8-.5-.7-.5-.7-.6-.7-.6-.7-.6-.7-.6-.6-.7-.6-.7-.6-.7-.6-.7-.5-.7-.5-.8-.5-.8-.4-.8-.4-.8-.4-.8-.4-.9-.3.2-.2zm-.1-.1l-.1.3.1-.3zm-.1.7l-.1-.5h.3l.1.5-.2.2-.1-.2zm0 0h.3-.3zm15.5 22h-.3v-.9l-.1-.9-.1-.9-.1-.9-.2-.9-.2-.9-.2-.9-.2-.8-.3-.8-.3-.8-.3-.8-.4-.8-.4-.8-.4-.8-.5-.7-.5-.7-.5-.8-.5-.7-.6-.7-.6-.6-.6-.6-.6-.6-.7-.6-.7-.5-.7-.5-.7-.5-.7-.5-.8-.4-.8-.4-.8-.5-.8-.4-.8-.3.1-.2.8.3.8.4.8.4.8.4.8.4.7.5.8.5.7.5.6.6.7.6.6.6.6.6.6.6.6.7.6.7.5.7.5.7.5.8.4.8.4.8.4.8.4.8.3.8.3.9.3.9.2.9.2.9.2.9.1.9.1.9.1.9-.1.9zm-.3 0h.3-.3zm-23.4 23.7v-.3h1.2l1.2-.1 1.2-.1 1.2-.2 1.1-.3 1.1-.3 1.1-.4 1.1-.4 1-.5 1-.5 1-.6.9-.6.9-.7.9-.7.8-.7.8-.8.8-.8.7-.8.7-.9.7-.9.6-.9.6-1 .5-1 .5-1 .4-1.1.4-1.1.3-1.1.3-1.1.2-1.2.1-1.2.1-1.2v-1.2h.3v1.2l-.1 1.2-.2 1.2-.2 1.2-.2 1.1-.3 1.1-.4 1.1-.4 1.1-.5 1-.5 1-.6 1-.6 1-.7.9-.7.9-.7.9-.8.8-.8.8-.9.7-.9.7-.9.7-1 .6-1 .6-1 .5-1 .5-1.1.4-1.1.4-1.1.3-1.1.3-1.2.2-1.2.2-1.2.1h-1.3zm0-.3v.3-.3zm-23.6-23.4h.3v1.2l.1 1.2.1 1.2.2 1.2.3 1.1.3 1.1.4 1.1.4 1.1.5 1 .5 1 .6 1 .6.9.7.9.6.9.7.8.8.8.8.8.8.7.9.7.9.7.9.6 1 .6 1 .5 1 .5 1.1.4 1.1.4 1.1.3 1.1.3 1.2.2 1.2.1 1.2.1h1.2v.3h-1.2l-1.2-.1-1.2-.2-1.2-.2-1.1-.3-1.1-.3-1.1-.3-1.1-.4-1-.5-1-.5-1-.6-1-.6-.9-.7-.9-.7-.9-.7-.8-.8-.8-.9-.7-.9-.7-.9-.7-.9-.6-1-.6-1-.5-1-.5-1-.4-1.1-.4-1.1-.3-1.1-.2-1.1-.2-1.2-.2-1.2-.1-1.2v-1.2zm.3 0h-.3.3zm23.3-23.6v.3h-1.2l-1.2.1-1.1.1-1.2.2-1.1.3-1.1.3-1.1.4-1.1.4-1 .5-1 .5-1 .6-.9.6-.9.7-.9.6-.9.7-.8.8-.8.8-.7.9-.7.9-.7.9-.6.9-.6 1-.5 1-.5 1-.4 1.1-.4 1.1-.3 1.1-.3 1.1-.1 1.2-.1 1.2-.1 1.2v1.2h-.3v-1.2l.1-1.2.2-1.2.2-1.2.3-1.1.3-1.1.3-1.2.4-1.1.5-1 .5-1 .6-1 .6-1 .7-.9.7-.9.7-.9.8-.8.8-.8.9-.7.9-.7.9-.7 1-.6 1-.6 1-.5 1-.5 1.1-.4 1.1-.4 1.1-.3 1.2-.2 1.2-.2 1.2-.2 1.2-.1h1.1zm0 .2v-.2.2zm4.1.1l.1.3h-3.3000000000000016v-.6h3.0000000000000013l.2.3zm0 .3v-.3.3zm.9-.3l-.8.3-.1-.3.8-.3h.1v.3zm0 0l-.1-.3.1.3zm-5-.5v-.3h6.3000000000000025l-1.4.8h-5.600000000000002l.7-.5zm0-.3v.3-.3zm-23.8 24.1h-.3v-1.2l.1-1.2.2-1.2.2-1.2.3-1.2.3-1.1.4-1.1.4-1.1.5-1.1.5-1 .6-1 .6-1 .7-.9.7-.9.8-.9.8-.8.8-.8.9-.8.9-.7.9-.7 1-.6 1-.6 1-.5 1.1-.5 1.1-.4 1.2-.5 1.1-.3 1.2-.3 1.2-.2 1.2-.2 1.2-.1h1.2v.3h-1.2l-1.2.1-1.2.2-1.2.2-1.1.2-1.2.4-1.1.4-1.1.4-1.1.5-1 .5-1 .6-1 .6-.8.6-.9.7-.9.8-.8.8-.8.8-.8.9-.7.9-.7.9-.6 1-.6 1-.5 1-.5 1.1-.4 1.1-.3 1-.4 1.2-.3 1.2-.2 1.2-.2 1.2-.1 1.2.1 1.1zm-.3 0h.3-.3zm24.1 23.9v.3h-1.2l-1.2-.1-1.2-.2-1.2-.2-1.2-.3-1.1-.3-1.1-.4-1.1-.4-1.1-.5-1-.5-1-.6-1-.6-.9-.7-.9-.7-1-.8-.8-.8-.8-.8-.8-.9-.7-.9-.7-.9-.6-1-.6-1-.5-1-.5-1.1-.4-1.1-.4-1.1-.3-1.1-.3-1.3-.2-1.2-.2-1.2-.1-1.2v-1.2h.3v1.2l.1 1.2.2 1.2.2 1.2.2 1.1.3 1.1.4 1.1.4 1.1.5 1.1.5 1 .6 1 .6 1 .7.9.7.9.8.9.8.8.8.8.9.7.9.7.9.7 1 .6 1 .6 1 .5 1.1.5 1.1.4 1.1.4 1.1.3 1.2.3 1.2.2 1.2.2 1.2.1h1.1zm0 .3v-.3.3z"/><path fill="#FEFEFE" d="M1.5 24.1c0-12.5 10.1-22.6 22.6-22.6 12.5 0 22.6 10.1 22.6 22.6 0 12.5-10.1 22.6-22.6 22.6-12.4.1-22.6-10.1-22.6-22.6z"/><path stroke="#655C4B" stroke-width=".007" d="M1.5 24.1c0-12.5 10.1-22.6 22.6-22.6 12.5 0 22.6 10.1 22.6 22.6 0 12.5-10.1 22.6-22.6 22.6-12.4.1-22.6-10.1-22.6-22.6z" fill="none"/><path fill="#655C4B" d="M32.4 2.1c8.9 3.4 15.2 11.9 15.2 22 0 13-10.5 23.5-23.5 23.5s-23.5-10.5-23.5-23.5 10.5-23.5 23.5-23.5c1.4 0 2.8.1 4.1.4l.8-.3c-1.6-.3-3.2-.5-4.9-.5-13.3 0-24 10.7-24 24s10.7 24 24 24 24-10.7 24-24c0-10.4-6.6-19.2-15.8-22.6l.1.5zM36.5 8.8c-.2 1.5-.7 1.4-1 1.3-.3-.1-.3-.2-1.1-.3-.3 0-1.4-.2-.8.3 1 .8 1.9 2.4 1.9 2.4.1-.5-.2-1.3-.3-1.6-.1-.3 0-.3.2-.3s.3.1.6.3c.3.2.6.2.6-.3.1-.4 0-1.2 0-1.9 0 0-.1 0-.1.1zm-8.9-1.9c-2 1.6-5.2 5.4-6.7 9-.1.3 0 .3.4.1.4-.2 1.5-.8 2-.9 0 0-.6 2-.8 3.1-.1.9.6.8 1.1.7.5-.1 2.4-.2 2.7-.2 0 0-1.8-.4-2-1.1-.2-.7.3-2.3.7-3.4.1-.2 0-.6-.4-.4-.4.2-.9.3-1.2.4 0 0 1.7-4.1 4.2-7.1v-.2zm2.5-4.1c.1-.1 0-.2-.3 0s-1.6 1-2.5 2.5c-.1.2 0 .5.4.3.6-.2 1.2-.3 1.5-.3.3 0 .3-.2.1-.3-.2-.1-.2-.2-.2-.5.1-.3.6-1.2 1-1.7zm-17.4 25.8c.2-.3.7-.7 1.4-1 .9-.5 3.5-.8 4.9-.7.9 0 1.4.4 1.8.8.4.4-.3.5-.6.2s-.7-.4-1.1-.4c-.4 0-.8.2-1 .3-.2.2-.3.4-.9.6-.7.2-1.5-.4-1.5-.4.6 1.1 1.5 1 2 .9.4-.1.5-.3 1.1-.3.9 0 1.3.5 1.3.5-1.1-.1-3.1.7-4 .9-1.1.3-2.2.3-2.2.3.7.9 1.8.9 2.6.9s3.4-.2 4.9-.1c1.9.2 3.5 1.4 3.5 3.3s-1.3 2.9-1.3 2.9c1.6-.5 2.3-1.8 2.3-1.8.9 3.4-.9 6.1-2.6 7.2-1.4.9-5.5 1.9-8.7.3-3.5-1.7-4.9-3.3-4.9-3.3 7.7.6 11.4-1.5 11.4-1.5-6.9.4-11.8-1.4-14.9-2.7-1.2-2-2.2-4.2-2.7-6.5 5.7 4.3 10.8 5.1 10.8 5.1-6.2-3.4-9.3-7.1-11.3-10.9.1-2.2.5-4.2 1.3-6.2 2.3 6.1 4.8 7.9 4.8 7.9-2.4-5.8-2.4-9.9-2.2-13 1-1.4 2-2.6 3.3-3.7-1 5.5.2 9 .2 9 0-4.3 2.4-9.5 4.4-12.1 1.2-.6 2.4-1.1 3.7-1.4-1.7 2.3-2.5 4.4-2.5 4.4 3.6-3.4 9.6-5.5 10.5-5.7.9-.3 3.5-1.2 4.3-1.4.7-.2 1 .3 1 .7-.1.5-.3 1.4-.3 1.4 2 .5 2.9 1.5 2.9 1.5-.1-.3 0-.7 0-.7 2.8 2.5 3.5 3.6 3.6 5.9.1 2.2 1.1 2.6 1.6 2.9.6.3 2 1.1 2.4 1.5.3.3.2.6 0 .8-.2.2-.2.3-.2.6-.2 1.2-.7 1.6-1.4 1.9-.7.3-1.5-.2-1.5-.2-.8.9-.9.3-1 0 0-.3-.5-.1-.8 0-.3.1-.4-.3-.4-.3-1.4-.2-2.1.7-2.1.7 1.3.2 1.9 1 1.9 1.4.1.3.6.1.6.1s.1-.1.3-.2c.2-.1.3-.1.2.2-.1.3-.1.5-.1.5l.6.4c-.2 1.5-.9 1.5-1.3 1.3-2.2-1.1-6.1-1.3-6.1-1.3.2-.3.8-.8.8-.8-10 0-11.7 1.2-12.2 1.9-.4.4 0 1.1 0 1.1-1.2.2-4.2 1-5.4 2.1-1.1 1-1.5 3.4-1.5 4.3 0 0 .2 0 .3-.1zM39 39.3c-.9-3-3.4-4.9-4.7-6.5-.6-.7-1.4-1.6-1.4-1.6.8.5 2.3.7 2.3.7-.4-.3-1.4-1.5-1.7-1.9-1.1-1.3-2.9-2.7-4.2-3.3-2.7-1.2-5.5-1.4-5.8-1.4-.4-.1-1.2.1-.7-.7.5-.8 3.4-3 3.4-3-.6 0-3.3.2-4.1.3-.8.1-1-.1-1-.7 0 0-1.6 1.5-.8 2.3.1.1.5.2.9 0s1.2-.5 1.5-.5c0 0-.7 1.1-.8 1.5-.2.5-.2.7.5.9.7.2 4.4 1.4 6.6 2.9 2.2 1.5 4.6 3.5 6.3 7 1.7 3.6.8 6.3.5 6.8 1-.9 2.2-1.8 3.2-2.8zM44 31.7c-2.2-1.8-6-5-10.7-6.1 0 0 6.7 2.7 9.1 9.4.6-1 1.1-2.1 1.6-3.3zM30.8 44.3c.7-1.7 1.5-5.6.7-8.7 0 0 .2 7.2-4.8 9.6 1.4-.2 2.8-.5 4.1-.9zM45.4 23.9c-.6-.3-4.6-1.4-4.6-1.4 1.3-.1 1.9-1.1 1.9-1.1-1.2.3-3.1.5-4.7.3 0 0 3.7 1.6 7.3 5.1.1-.8.2-1.7.2-2.6-.1-.2-.1-.2-.1-.3z"/></g></svg>