<svg xmlns="http://www.w3.org/2000/svg" viewBox="0 0 63.9 65" enable-background="new 0 0 63.9 65"><path fill="#2A9C31" d="M1 28c2.2 1.3 4.3 2.5 6.5 3.7 3.9 2.2 7.7 4.4 11.6 6.7.6.4 1.1.2 1.6-.1 6.7-3.9 13.5-7.8 20.2-11.6 6-3.4 11.9-6.8 17.9-10.3l.7-.4c4.5 7.6 5.6 21.2-2.4 32.2-8.5 11.7-23.9 16-37.4 10.3-13.4-5.7-19.7-19.2-18.7-30.5z"/><path fill="#2F9C35" d="M55.8 10.2l2 2.7c-.2.2-.4.3-.6.4l-36.9 21.2c-.5.3-.8.2-1.2 0-5.7-3.3-11.4-6.6-17.1-9.8-.5-.3-.6-.5-.5-1 .2-.9.4-1.8.7-2.8 2.5 1.4 4.9 2.8 7.2 4.1 3.2 1.8 6.4 3.7 9.6 5.6.5.3.9.2 1.4 0l30.6-17.6c1.7-1 3.2-1.9 4.8-2.8zM53.5 7.7c-2.1 1.2-4.1 2.3-6 3.5l-26.8 15.4c-.7.4-1.1.4-1.8 0l-14.9-8.6c-.2-.1-.3-.2-.6-.4l1.5-3c1.6.9 3 1.7 4.5 2.6 3.2 1.8 6.4 3.7 9.6 5.6.5.3.9.3 1.4 0l29.5-17c.5-.3.9-.4 1.4.1.7.6 1.4 1.1 2.2 1.8zM6.8 11.8c.7-.9 1.4-1.8 2.1-2.6l7.7 4.4 2.5 1.4c.5.3.8.3 1.3 0l22.8-13.1c.6-.3 1.1-.4 1.6-.1.9.5 1.7.9 2.8 1.4-.8.5-1.4.8-2 1.2-8.3 4.8-16.6 9.6-25 14.4-.7.4-1.1.3-1.8 0-3.7-2.1-7.4-4.2-11-6.4-.3-.2-.6-.4-1-.6z"/></svg>