<svg xmlns="http://www.w3.org/2000/svg" width="40pt" height="40pt" viewBox="0 0 40 40"><path d="M17.094 3.078l1.313-.188c1.188-.121 2.313-.121 3.5-.059 2 .184 4 .613 5.813 1.477 5.125 2.398 8.438 6.336 9.938 11.754.5 1.785.625 3.629.438 5.477-.063.555-.125 1.105-.188 1.723v.184l-.063.184c-.375 1.91-1.063 3.754-2.063 5.418-.875 1.477-1.938 2.828-3.25 4-1 .922-2.125 1.723-3.313 2.398-1.438.801-2.875 1.355-4.5 1.785l-1.063.246-1.313.184c-1.188.125-2.313.125-3.5.063-1.563-.121-3.063-.43-4.563-.984-3.75-1.355-6.75-3.754-8.938-7.078-1.313-2.031-2.188-4.246-2.563-6.645-.25-1.906-.25-3.816.063-5.723v-.184l.063-.246c.313-1.418.75-2.77 1.375-4.063 1.063-2.215 2.5-4.063 4.375-5.664 1.063-.922 2.188-1.66 3.438-2.336 1.375-.676 2.75-1.23 4.25-1.539l.75-.184zm2.813 27.074h.313c1.188 0 2.375-.184 3.5-.551 2.438-.801 3.813-2.895 3.5-5.602-.188-1.477-1-2.645-2.188-3.508-.688-.43-1.375-.863-2.125-1.168-1.063-.492-2.125-.926-3.188-1.355-.625-.246-1.188-.555-1.688-1.047-.875-.859-.688-2.277.375-2.891.188-.125.375-.184.625-.309 1.188-.43 2.375-.367 3.563 0 .625.184 1.25.43 1.875.676.75.309 1.5.063 1.875-.492.438-.676.313-1.598-.25-2.09-.313-.309-.75-.555-1.188-.738-1.188-.434-2.438-.555-3.688-.617-1.563-.063-3.063.184-4.438.801-1.75.738-3.375 2.215-3.25 4.801.063 1.352.563 2.523 1.563 3.383.75.68 1.688 1.172 2.625 1.602 1 .43 2 .859 3 1.352.688.309 1.375.68 1.938 1.23.625.617.75 1.293.5 2.094-.25.738-.813 1.109-1.5 1.293-.938.309-1.938.246-2.875.063-.813-.188-1.563-.555-2.25-.926-.375-.184-.813-.305-1.25-.305-1.188-.125-1.938.797-1.688 1.906.125.738.688 1.23 1.375 1.539 1.5.613 3.188.922 4.938.859zm0 0" fill="rgb(15.686275%,65.490196%,91.372549%)"/><path d="M2.031 14.461c-.563-3.875.625-7.199 3.625-9.785 1.625-1.414 3.5-2.215 5.625-2.461 1.063-.121 2.125-.121 3.125.063l-.625.246c-1.313.492-2.625 1.105-3.813 1.848-1.313.859-2.5 1.781-3.563 2.891-.438.492-.938.984-1.375 1.539-1.25 1.66-2.25 3.508-2.938 5.477l-.063.184zm0 0l36.688 11.691c1.25 7.203-5.063 13.418-12.375 12.188.063-.063.125-.125.188-.125 1.563-.555 3.063-1.23 4.438-2.152 1.25-.801 2.375-1.723 3.375-2.77.5-.555 1-1.109 1.438-1.723 1.125-1.477 2-3.141 2.688-4.863l.25-.555zm0 0" fill="rgb(15.686275%,65.490196%,90.980392%)"/><path d="M17.094 3.078l-.75.184c-1.5.309-2.875.863-4.25 1.539-1.25.613-2.375 1.414-3.438 2.336-1.875 1.602-3.313 3.508-4.375 5.664-.625 1.293-1.063 2.645-1.375 4.063l-.063.246-.5-1.234.125-.184c.438-1.66 1.125-3.262 2.063-4.738 1.125-1.844 2.5-3.383 4.188-4.738 1.188-.922 2.5-1.723 3.875-2.398 1-.492 2.063-.863 3.125-1.109.063 0 .125-.063.188-.121.375.184.813.367 1.188.492zm0 0l6.5 34.461 1.063-.246c1.563-.371 3.063-.984 4.5-1.785 1.188-.676 2.313-1.477 3.313-2.398 1.313-1.172 2.375-2.523 3.25-4 1-1.664 1.688-3.508 2.063-5.418l.063-.184.5 1.23-.125.246c-.438 1.477-1 2.891-1.75 4.246-1.063 1.848-2.438 3.508-4.125 4.922-1.063.926-2.25 1.664-3.5 2.34-1.25.617-2.5 1.109-3.813 1.477-.063 0-.125.063-.188.125-.438-.246-.813-.371-1.25-.555zm0 0" fill="rgb(12.54902%,53.333333%,73.72549%)"/><path d="M15.844 2.586l-.188.121c-1.063.309-2.125.676-3.125 1.109-1.375.613-2.688 1.414-3.875 2.398-1.688 1.355-3.063 2.953-4.188 4.738-.938 1.477-1.563 3.078-2.063 4.738 0 .063-.063.125-.125.184-.125-.492-.25-.984-.375-1.414l.125-.184c.75-1.969 1.75-3.816 3-5.414.438-.555.875-1.047 1.375-1.539 1.063-1.172 2.25-2.094 3.563-2.895 1.188-.738 2.438-1.352 3.813-1.844l.625-.246c.5 0 .938.121 1.438.246zm0 0l9 35.445.188-.125c1.313-.367 2.625-.797 3.813-1.477 1.25-.676 2.438-1.414 3.5-2.336 1.688-1.418 3-3.078 4.125-4.926.75-1.352 1.313-2.77 1.75-4.246l.125-.246c.125.492.25.984.375 1.418-.063.184-.188.367-.25.613-.625 1.785-1.563 3.387-2.688 4.863-.438.613-.938 1.168-1.438 1.723-1 1.105-2.125 1.969-3.375 2.77-1.375.922-2.875 1.598-4.438 2.152-.063 0-.125.063-.188.125-.5-.063-1-.188-1.5-.309zm0 0" fill="rgb(14.117647%,58.823529%,81.960784%)"/><path d="M19.906 30.152c-1.75.063-3.375-.246-5-.984-.688-.305-1.188-.738-1.375-1.539-.25-1.105.563-1.969 1.688-1.906.438.063.813.125 1.25.309.75.367 1.438.738 2.25.922.938.184 1.938.246 2.875-.063.688-.246 1.25-.613 1.5-1.289.25-.801.125-1.477-.5-2.094-.563-.555-1.25-.863-1.938-1.23-1-.43-2-.863-3-1.355-.938-.43-1.875-.922-2.625-1.598-1-.926-1.5-2.031-1.563-3.387-.125-2.523 1.5-4 3.25-4.801 1.438-.613 2.938-.859 4.438-.797 1.25 0 2.5.184 3.688.613.438.184.875.371 1.188.738.563.555.688 1.477.25 2.094-.375.613-1.125.801-1.875.492-.625-.246-1.188-.492-1.875-.676-1.188-.309-2.375-.434-3.563 0-.188.059-.438.184-.625.305-1.063.617-1.25 2.031-.375 2.895.5.492 1.063.801 1.688 1.047 1.063.43 2.125.859 3.188 1.352.75.371 1.438.738 2.125 1.172 1.25.859 2.063 1.969 2.188 3.504.313 2.711-1.063 4.742-3.5 5.602-1.125.371-2.313.555-3.5.555-.063.121-.125.121-.25.121zm0 0" fill="rgb(99.215686%,99.607843%,99.607843%)"/></svg>