<svg xmlns="http://www.w3.org/2000/svg" width="16.933mm" height="15.02mm" viewBox="0 0 1.53732 1.36364" shape-rendering="geometricPrecision" text-rendering="geometricPrecision" image-rendering="optimizeQuality" fill-rule="evenodd" clip-rule="evenodd"><defs><style type="text/css"><![CDATA[
    .fil3 {fill:#2B2A29}
    .fil0 {fill:#DDE1E3}
    .fil2 {fill:#FFE503}
    .fil1 {fill:#FEFEFE;fill-rule:nonzero}
   ]]></style></defs><g id="_237266272"><path id="_483077128" class="fil0" d="M.357 1.062l-.017.029-.024-.052-.055.028-.042-.209-.013-.042-.086.093.016-.044-.053-.002.047-.072.016-.064.042-.059-.083.008c.109-.067.084-.152.251-.228-.044-.032-.088-.058-.056-.12.046.055.132.036.179.01-.046-.009-.106-.05-.12-.095l.053.025.029-.04c-.027.058.026.088.077.088l.041-.003-.011-.052.041.031c.099.077-.047.148-.107.18-.094.051-.069.111-.029.126l-.011.012-.075-.023.041.095-.029.011.062.033-.046.008.015.034-.104-.026c-.04.003-.038.079.061.079l-.01.017.036.013-.018.018.016.014-.078-.015c-.04.032.048.099.133.089l-.036.029.063.171c-.059-.004-.103-.048-.114-.095zm.077-.073l.034-.059c-.029.015-.11.014-.144-.033l.01-.01.082.007-.015-.026.026-.029-.044-.008.008-.033-.089-.017.008-.016c.018.019.104.04.137.008l-.028-.021.056-.043-.058-.009.028-.027-.059-.051c.036.02.098.011.082-.039-.03-.002-.059-.049.022-.093.074-.04.158-.083.151-.154l-.089-.099-.023.061-.075-.036.024-.051-.076.029-.074.002.103.102c-.037.02-.097.012-.132-.05-.033.05-.052.1.019.152l-.241.225.066.026-.084.157.05.039-.026.026c.042.027.092.007.103-.078l.016.009.03.247.083-.017.011.045.03-.031c.014.04.063.083.141.083l-.062-.187z"/><path id="_483264224" class="fil0" d="M.249.824l.065.014-.069-.037-.004-.04.038-.133.08.088c-.05-.022-.079-.07-.063-.117l.035-.051.019-.024.042.053.019-.1-.043.026.209-.157c-.052.036-.19.055-.251.038l.136.016-.239.192.09-.056-.061.105-.094.155.079-.103-.006.077.017.084.04.132-.03-.111.162.198c-.043-.071-.147-.155-.17-.251z"/><path id="_483264296" class="fil0" d="M1.225.538l.09.056-.239-.192.136-.016c-.062.017-.199-.002-.251-.038l.209.157-.043-.026.019.1.042-.053.019.024.035.051c.016.047-.013.096-.063.117.055-.008.08-.057.079-.088l.038.133-.004.04-.069.037.065-.014c-.022.096-.127.179-.17.251l.162-.198-.03.111.04-.132.017-.084-.006-.077.079.103-.094-.155-.061-.105z"/><path id="_483264368" class="fil0" d="M1.401.865l.016.044-.086-.093-.013.042c.037.076-.047.143-.042.209l-.055-.028-.024.052-.017-.029c-.01.047-.054.091-.114.095l.063-.171-.036-.029c.085.01.173-.057.133-.089l-.078.015.016-.014-.018-.018.036-.013-.01-.017c.099 0 .101-.076.061-.079l-.104.026.015-.034-.046-.008.062-.033-.029-.011.04-.095-.075.023-.011-.012c.039-.015.064-.076-.029-.126-.06-.032-.206-.103-.107-.18l.041-.031-.011.052.041.003c.051 0 .104-.03.077-.088l.029.04.053-.025c-.014.045-.074.086-.12.095.047.025.133.044.179-.01.032.062-.013.088-.056.12.166.076.142.161.251.228l-.083-.008.042.059.016.064.047.072-.053.002zm-.006-.169l.066-.026-.241-.225c.071-.053.052-.102.019-.152-.035.062-.095.07-.132.05l.103-.102-.074-.002-.076-.029.024.051-.075.036-.023-.061-.089.099c-.007.071.077.114.151.154.081.044.051.092.022.093-.016.051.046.06.082.039l-.059.051.028.027-.058.009.056.043-.028.021c.032.032.119.011.137-.008l.008.016-.089.017.008.033-.043.008.026.029-.015.026.082-.007.01.01c-.034.047-.116.048-.144.033l.034.059-.062.187c.078 0 .127-.043.141-.083l.03.031.011-.045.083.017.03-.247.016-.009c.011.085.061.104.103.078l-.026-.026.05-.039-.084-.157z"/><path id="_483264440" class="fil0" d="M.61 1.006l.023-.018.011-.005.033.004.007.015-.035-.007-.011.003-.016.012-.002.011.003.006-.012.009-.004-.008.003-.022zm.053-.061l-.006.003-.01-.001-.003-.003.001-.008.026-.03-.024-.02.03.011.011-.014.002.011.049.062.018.013.053.003.059-.001.022-.009.056.033.023.032-.016.007-.012-.018-.018-.024.008.028-.039-.049-.021.009.014.049.009.013.002.018-.008.049h-.013l.009-.048-.059-.042-.089.012-.022.008-.01.003-.039-.009-.013.006-.008.016.001.01.004.004-.009.014-.009-.01-.001-.019.013-.027.01-.006.049-.001-.015-.024.005-.066-.03.014zm.203.113l-.021.052h-.013l.021-.05-.007-.017.023.011-.003.004zm-.257-.006l.024-.02-.004-.007.002-.007.012-.009.01-.001.038.009h-.04l-.015.011-.003.006-.01.021.004.028.007.009-.015.03h.012l.01-.021.019-.028-.005-.011.005-.01.006-.004.039.009.017-.004.019-.006.02.002.066-.013.015.022-.003.01-.023.054h.035l.02-.049.007-.01-.011.06h.034l.009-.059-.005-.023-.018-.052.009-.002.022.032.068.013-.009-.012-.008-.009-.034-.038-.062-.007h-.063l-.047-.003-.008-.005.009-.003-.065-.068-.008-.013-.011.013-.009.003-.046-.017.035.035-.023.031.001.013.007.009.013.002.008-.004.019-.002-.005.027-.031-.004-.014.003-.027.02-.006.029.011.022z"/><path id="_483264512" class="fil0" d="M.711.38l.035.018v-.015l-.049-.019.014.016z"/><path id="_483264584" class="fil0" d="M.746.362v-.015l-.056-.02.021.017.035.018z"/><path id="_483264656" class="fil0" d="M.746.328v-.015l-.061-.023.026.019.035.018z"/><path id="_483264728" class="fil0" d="M.918.531h.063l-.031-.018-.032.018z"/><path id="_483264800" class="fil0" d="M.852.291l-.061.023v.015l.035-.018.026-.019z"/><path id="_483264872" class="fil0" d="M.841.364l-.049.019v.015l.035-.018.014-.016z"/><path id="_483264944" class="fil0" d="M.847.327l-.056.02v.015l.035-.018.021-.017z"/><path id="_237430944" class="fil0" d="M.587.513l-.031.018h.063l-.032-.018z"/><path id="_237431424" class="fil0" d="M.769.283l-.101-.04.101-.037.101.037-.101.04zm.075.124l-.068.036v-.144l.092-.031-.024.14zm.079.06l-.065.064-.002.003h-.019v.003l-.068.051-.048-.015-.018-.026-.002-.01v-.003h-.019l-.002-.003-.065-.064.069-.04.085.046.085-.046.069.04zm.093.106l-.013.06v.22h-.026l-.021-.049.008.049h-.033l-.015-.05.002.05h-.022l.003-.033-.024-.021.016.005.009-.007-.008-.049-.034-.04-.011-.051-.005-.043-.034-.013-.002.001.037-.028h.171zm-.013.437l-.056.1.013-.026h-.012l-.016.033-.057.01-.105.026-.105-.026-.057-.01.016-.033h-.012l-.014.029-.01-.005.012-.024h-.012l-.009.018-.044-.092v-.144h.469v.144zm-.319-.264l.02.002-.008.039-.019-.006.008-.036zm-.028-.014l.023.001-.004.007-.02-.008zm-.001-.072l-.016.059.006-.096.025-.022.013.028-.032.093.009-.063-.003-.001zm-.013.099l-.015-.007.015.002v.005zm-.016.008l.016.002v.002l-.016-.005zm-.019-.038l.003-.01.02.01h-.023zm.018.053l.012.003-.008.006-.004-.009zm.013-.036l-.013-.009.031.001.015.017-.006.025-.012-.031-.015-.003zm.08.005l.02.002-.009.045-.02-.006.01-.041zm.034.004l.016.002-.008.05-.019-.006.01-.047zm.029.004l.013-.002.005.059-.017-.003-.004-.001.003-.053zm.025-.01l.011-.011.022.055-.013.011-.008.006-.013-.061zm.068.006l-.006.012-.014.013-.023-.055.015-.015.003.003.026.042zm-.037-.099l.002.045-.006.006-.035-.041-.001.01-.023-.036.018.006.002-.011-.032-.027h-.002l.009.001.03-.004.033.019.004.033zm-.144-.083l.055.034.016.026.035.056.025.028-.019.022-.025.01-.086-.01-.033-.016.034-.094-.021-.044-.039.033-.003.099-.017-.008-.007.03h.008l.004.01v.012l-.002.013.01.027.023-.018.134.041.048-.011.035-.031.018.044-.001.026h-.348v-.22l-.013-.06h.171zm-.023-.306l.092.031v.144l-.068-.036-.024-.14zm.224-.017c0-.035-.059-.067-.124-.067s-.124.032-.124.067l.001.009.026.15-.123.072-.032.05h.023l.052-.044.062.044.004.007.006.01h-.181l.026.086v.377c0 .097.075.143.155.143l.105.032.105-.032c.081 0 .155-.046.155-.143v-.377l.026-.086h-.182l.006-.01.004-.007.062-.044.052.044h.022l-.032-.05-.123-.072.026-.15.001-.009z"/><path id="_483328464" class="fil0" d="M.992.716v-.011l-.042-.041.041.052z"/><path id="_483328536" class="fil0" d="M.95.783l-.003-.01-.044-.038.047.049z"/><path id="_483328608" class="fil0" d="M.97.741l-.049-.035.033.046.044.033-.003-.01-.025-.035z"/><path id="_483328680" class="fil0" d="M.949.626v-.011l-.042-.041.041.052z"/><path id="_483328752" class="fil0" d="M.661 1.085l-.016.033h.012l.016-.033z"/><path id="_483328824" class="fil0" d="M.685 1.085l-.016.033h.012l.016-.033z"/><path id="_483328896" class="fil0" d="M.784 1.085l-.016.033h.012l.016-.033z"/><path id="_483328968" class="fil0" d="M.808 1.085l-.016.033h.012l.016-.033z"/><path id="_483329040" class="fil0" d="M.759 1.085l-.016.033h.012l.016-.033z"/><path id="_483329112" class="fil0" d="M.903 1.118h.012l.016-.033h-.012z"/><path id="_483329184" class="fil0" d="M.71 1.085l-.016.033h.012l.016-.033z"/><path id="_483329256" class="fil0" d="M.734 1.085l-.016.033h.012l.016-.033z"/><path id="_483329328" class="fil0" d="M.679.907l-.004.005.004.005.004-.005-.004-.005z"/><path id="_483329400" class="fil0" d="M.674.143l.019-.041.036.019.04-.039.04.039.036-.019.019.041.024-.004-.015.036-.104-.027-.104.027-.015-.036.024.004zm.095.018l.113.035.029-.075-.041.005-.021-.045-.041.021-.04-.039-.04.039-.041-.021-.021.045-.041-.005.029.075.113-.035z"/><path id="_483329472" class="fil0" d="M.81.08l.012-.01-.008-.022-.013.02.01.012z"/><path id="_483329544" class="fil0" d="M.877.105l.015-.005.001-.023-.02.013.004.015z"/><path id="_483329616" class="fil0" d="M.727.08l.01-.012-.013-.02-.008.022.012.01z"/><path id="_483329688" class="fil0" d="M.66.105l.004-.015-.02-.013.001.023.014.005z"/><path id="_483329760" class="fil0" d="M1.398.479l-.008.07-.083-.106.019-.013.134.019-.036.015.045.047-.072-.032zm.062-.008l.031-.031c-.036-.005-.132-.046-.211-.013l.059-.072.045-.007-.032-.011.032-.028-.034.007.001-.037-.017.032-.028-.016.021.034-.033-.005.039.031-.074.086.132.129.035-.05h.073l-.038-.047z"/><path id="_483329832" class="fil0" d="M.757 1.255l-.028-.001-.003.011h.003l.002-.003.01-.001.012.001-.024.037.008.006.009-.01.015-.041h-.003v.001z"/><path id="_483329904" class="fil0" d="M.776 1.272v-.009h.024l-.001-.01-.025.002-.002.019.018.016-.008.013-.003-.001.001-.007-.007-.005-.006.006.015.009.021-.017-.028-.018z"/><path id="_483329976" class="fil0" d="M.833 1.279l-.01-.02.004-.004.011.023-.004.001zm-.005-.027l-.016.015.026.013-.005.019-.003-.005-.008-.004-.004.007.012.005.02-.024-.022-.026z"/><path id="_483330048" class="fil0" d="M.71 1.25l-.02.018.001.002.008-.004-.008.026-.003.001-.005-.001-.001.003.024.004.001-.003-.004-.001-.002-.003.011-.044h-.003z"/><path id="_483330120" class="fil0" d="M.895 1.281l-.022-.071.103-.029v.044l.038.015-.119.04zm-.126.041l-.121-.015.023-.074.098.008.098-.008.023.074-.121.015zm-.245-.081l.038-.015v-.044l.103.029-.022.071-.119-.04zm.464-.025v-.054l-.163.041-.003.019.023.002-.076.005-.076-.005.023-.002-.003-.019-.163-.041v.054l-.057.023.146.054-.007.023.136.019.136-.019-.007-.023.146-.054-.057-.023z"/><path id="_483330192" class="fil0" d="M.067.512l.045-.047-.036-.016.134-.019.019.013-.083.106-.008-.07-.072.032zm.045.006l.035.05.132-.129-.074-.086.039-.031-.033.005.021-.034-.028.016-.017-.032.001.037-.034-.007.032.028-.031.011.045.007.059.072c-.079-.033-.175.007-.211.013l.031.031-.038.047h.073z"/><path id="_483330264" class="fil0" d="M.734.488v.024l.024-.008v.034l-.007.024h.034l-.007-.024v-.034l.024.008v-.024h-.069z"/><path id="_483330336" class="fil1" d="M1.518.498l-.01-.014-.006-.009.015-.024.015-.035-.038-.005-.029-.007-.085-.017.027-.025.006-.011-.008-.021.005-.016.005-.025-.024-.008-.011-.003-.006-.014-.014-.026-.026.015-.016.013-.012-.001-.031.004-.021-.022-.025-.026-.086-.02-.06-.022-.024.002-.063.029-.028-.013-.05.038-.011-.024.002-.01.025-.064.033-.051-.047.005-.001-.017-.004-.04-.037.016-.011.005-.007-.015-.017.009-.007-.014-.019-.035-.027.029-.007.009-.017-.017-.017.017-.007-.008-.027-.03-.019.036-.007.014-.017-.009-.007.015-.011-.005-.037-.016-.004.04-.001.016-.047-.005.033.051.025.064.002.01-.011.024-.05-.038-.028.013-.087-.031-.06.022-.086.02-.025.026-.024.018h-.041l-.016-.013-.026-.015-.014.026-.006.014-.011.003-.024.008.005.025.005.016-.004.008-.004.012.006.011.027.025-.085.017-.029.007-.038.005.009.019.007.015.015.024-.016.022-.019.019.018.02.056.024.027-.005.029.035-.066.052-.024.011.01.027.045.042-.01.045-.036.056-.026.009.007.026.024.045-.017.019.08.034.05-.017.024.06.015.08-.027.046.053-.002.063-.007v.003l-.004.039.047-.01.014-.006.144.06h.004l-.076.031.055.029.123.048-.006.022.028.008.144.02.144-.02.028-.008-.006-.022.123-.048.055-.029-.076-.031h.004l.144-.06.014.006.047.01-.004-.039v-.003l.063.007.053.002-.027-.046.015-.08.024-.06.032.015.017.003.051-.016.029-.018-.017-.019.024-.044.007-.026-.026-.009-.036-.056-.01-.045.045-.042.01-.027-.024-.011-.066-.052.029-.035.027.005.056-.024.018-.02-.019-.02z"/><path id="_483330408" class="fil2" d="M.769 1.154l-.105-.026c-.077 0-.129-.045-.129-.117v-.144h.469v.144c0 .072-.052.117-.129.117l-.105.026zm-.234-.301v-.22l-.013-.06h.171l.077.036.077-.036h.171l-.013.06v.22h-.469z"/><path id="_483309856" class="fil1" d="M.561 1.181v.044l-.038.015.119.04.022-.07-.103-.029z"/><path id="_483309928" class="fil1" d="M.769 1.241l-.098-.008-.023.074.121.015.121-.015-.023-.074-.098.008z"/><path id="_483310000" class="fil1" d="M.976 1.181l-.103.029.022.07.119-.04-.038-.015v-.044z"/><path id="_483310072" class="fil1" d="M.41.479l-.019.1-.042-.053-.019.024-.035.051c-.016.047.013.096.063.117-.055-.008-.08-.057-.079-.088l-.038.133.004.04.069.037-.065-.014c.022.096.127.179.169.251l-.162-.198.03.111-.04-.132-.017-.084.006-.077-.079.103.094-.155.061-.105-.09.056.239-.192-.136-.016c.062.017.199-.002.251-.038l-.209.157.043-.026zm.071-.006c.06-.032.206-.103.107-.18l-.041-.031.011.052-.041.003c-.051 0-.104-.03-.077-.088l-.029.04-.053-.025c.014.045.074.086.12.095-.047.025-.133.044-.179-.01-.032.062.013.088.056.12-.166.076-.142.161-.251.228l.083-.007-.042.059-.016.064-.047.072.053.002-.016.044.086-.093.013.042c-.037.076.047.143.042.209l.055-.028.024.052.017-.029c.01.047.054.091.114.095l-.063-.171.036-.029c-.085.01-.173-.057-.133-.089l.078.015-.016-.014.018-.018-.036-.013.01-.017c-.099 0-.102-.076-.061-.079l.104.026-.015-.034.046-.008-.062-.033.029-.011-.041-.095.075.023.011-.012c-.039-.015-.064-.076.03-.126z"/><path id="_483310144" class="fil1" d="M1.302.695l.006.077-.017.084-.04.132.03-.111-.162.198c.043-.071.147-.155.17-.251l-.065.014.069-.037.004-.04-.038-.133-.079.088c.049-.022.078-.07.063-.117l-.035-.051-.019-.024-.042.053-.019-.1.043.026-.209-.157c.052.036.19.055.251.038l-.136.016.239.192-.089-.056.061.105.094.155-.079-.103zm.105.096l-.016-.064-.042-.059.083.007c-.109-.067-.084-.152-.251-.228.044-.032.088-.058.056-.12-.046.055-.132.036-.179.01.046-.009.106-.05.12-.095l-.053.025-.029-.04c.027.058-.026.088-.077.088l-.041-.003.011-.052-.041.031c-.099.077.047.148.107.18.094.051.069.111.029.126l.011.012.075-.023-.04.095.029.011-.062.033.046.008-.015.034.104-.026c.04.003.038.079-.061.079l.01.017-.036.013.018.018-.016.014.078-.015c.04.032-.048.099-.133.089l.036.029-.063.171c.059-.004.103-.048.114-.095l.017.029.024-.052.055.028c-.005-.066.079-.133.042-.209l.013-.042.086.093-.016-.044.053-.002-.047-.072z"/><path id="_483310216" class="fil1" d="M.845.574l-.077.036-.022-.002.016.026.035.056.025.028-.019.022-.025.01-.086-.01-.033-.016.034-.095-.021-.044-.039.033-.003.099-.017-.008-.007.03h.008l.004.01v.011l-.002.013.01.027.023-.018.134.041.048-.011.035-.031.018.044-.001.026h.121v-.22l.013-.06h-.171z"/><path id="_483310288" class="fil1" d="M.645.944l.003.003.01.001.006-.003.03-.014-.005.066.015.024-.049.001-.01.006-.013.026.001.019.009.01.009-.014-.004-.004-.001-.01.008-.016.013-.006.039.009.01-.003.022-.008.089-.012.059.042-.009.048h.013l.008-.049-.002-.018-.009-.013-.014-.049.021-.009.039.049-.008-.027.018.024.012.018.016-.007-.023-.032-.056-.033-.022.008-.058.001-.052-.003-.018-.013-.049-.062-.002-.011-.011.014-.03-.011.024.02-.026.03-.001.008z"/><path id="_483310360" class="fil1" d="M.61 1.006l-.003.022.004.008.011-.009-.003-.006.001-.011.016-.012.011-.003.035.007-.007-.015-.033-.004-.011.004-.023.018z"/><path id="_483310432" class="fil1" d="M.832 1.109h.013l.021-.052.003-.004-.023-.011.007.017-.021.05z"/><path id="_483310504" class="fil1" d="M.791.383l.049-.019-.014.016-.035.018v-.015zm0-.036l.056-.02-.021.017-.035.018v-.015zm0-.034l.061-.023-.026.019-.035.018v-.015zm.052.094l.024-.14-.092.031v.144l.068-.036z"/><path id="_483310576" class="fil1" d="M.68.531l.002.003h.019v.003l.002.01.018.026.048.015.068-.051v-.003h.019l.002-.003.065-.063-.069-.04-.085.046-.085-.046-.069.04.065.063z"/><path id="_483310648" class="fil1" d="M.746.347v.015l-.035-.018-.021-.017.056.02zm0-.034v.015l-.035-.018-.026-.019.061.023zm0 .085l-.035-.018-.014-.016.049.019v.015zm.015.045v-.144l-.092-.031.024.14.068.036z"/><path id="_483310720" class="fil1" d="M.769.206l-.101.037.101.04.1-.04-.1-.037z"/><path id="_483310792" class="fil1" d="M.769.149l.104.027.015-.036-.024.004-.019-.041-.036.019-.04-.039-.04.039-.036-.019-.019.041-.024-.004.015.036.104-.027z"/><path id="_483310864" class="fil1" d="M1.425.465l.036-.016-.134-.019-.019.012.083.105.008-.07.072.032-.045-.047z"/><path id="_483310936" class="fil1" d="M.147.549l.083-.105-.019-.012-.134.019.036.016-.045.047.072-.033.008.07z"/><path id="_483311008" class="fil3" d="M.358 1.062l-.017.029-.024-.052-.055.028c.005-.066-.079-.133-.042-.209l-.013-.042-.086.093.016-.044-.053-.002.047-.072.016-.064.042-.059-.083.007c.109-.067.084-.152.251-.228-.044-.032-.088-.058-.056-.12.046.055.132.036.179.01-.046-.009-.106-.05-.12-.095l.053.025.029-.04c-.027.058.026.088.077.088l.041-.003-.011-.052.041.031c.099.077-.047.148-.107.18-.094.051-.069.111-.029.126l-.011.012-.075-.023.041.095-.029.01.062.033-.046.008.015.034-.104-.026c-.04.003-.038.079.061.079l-.01.017.036.013-.018.018.016.014-.078-.015c-.04.032.048.099.133.089l-.036.029.063.171c-.059-.004-.103-.048-.114-.095zm.077-.073l.034-.059c-.029.015-.11.014-.144-.033l.01-.01.082.007-.015-.026.026-.029-.043-.008.008-.033-.089-.017.008-.016c.018.018.104.04.137.007l-.028-.021.056-.043-.058-.009.028-.026-.059-.051c.036.021.098.011.082-.039-.03-.002-.059-.049.022-.093.074-.04.158-.083.151-.154l-.089-.099-.023.061-.075-.036.024-.051-.076.029-.074.002.103.102c-.037.02-.097.012-.132-.05-.033.05-.052.099.019.152l-.241.225.066.026-.084.157.05.039-.026.026c.042.027.092.007.103-.078l.016.009.03.247.083-.017.011.045.03-.031c.014.04.063.083.141.083l-.062-.187z"/><path id="_483311080" class="fil3" d="M.249.824l.065.014-.069-.037-.004-.04.038-.133.079.088c-.049-.022-.079-.07-.063-.117l.035-.051.019-.024.042.053.019-.1-.043.026.209-.157c-.052.036-.189.055-.251.038l.136.016-.239.192.09-.056-.061.105-.094.155.079-.103-.006.077.017.084.04.132-.03-.111.162.198c-.043-.071-.147-.155-.17-.251z"/><path id="_483311152" class="fil3" d="M1.225.538l.089.056-.239-.192.136-.016c-.062.017-.199-.002-.251-.038l.209.157-.043-.026.019.1.042-.053.019.024.035.051c.016.047-.013.096-.063.117.055-.008.08-.057.079-.088l.038.133-.004.04-.069.037.065-.014c-.022.096-.127.179-.17.251l.162-.198-.03.111.04-.132.017-.084-.006-.077.079.103-.094-.155-.061-.105z"/><path id="_483311224" class="fil3" d="M1.401.865l.016.044-.086-.093-.013.042c.037.076-.047.143-.042.209l-.055-.028-.024.052-.017-.028c-.01.047-.054.091-.114.095l.063-.171-.036-.029c.085.01.173-.057.133-.089l-.078.015.016-.014-.018-.018.036-.013-.01-.017c.099 0 .101-.076.061-.079l-.104.026.015-.034-.046-.008.062-.033-.029-.011.04-.095-.075.023-.011-.012c.039-.015.064-.076-.029-.126-.06-.032-.206-.103-.107-.18l.041-.031-.011.052.041.003c.051 0 .104-.03.077-.088l.029.04.053-.025c-.014.045-.074.086-.12.095.047.025.133.044.179-.01.032.062-.013.088-.056.12.166.076.142.161.251.228l-.083-.007.042.059.016.064.047.072-.053.002zm-.006-.169l.066-.026-.241-.225c.071-.053.052-.102.019-.152-.035.062-.095.07-.132.05l.103-.102-.074-.002-.076-.029.024.051-.075.036-.023-.061-.089.099c-.007.071.077.114.151.154.081.044.051.092.022.093-.016.051.046.06.082.039l-.059.051.028.026-.058.009.056.043-.028.021c.032.032.119.011.137-.007l.008.016-.089.017.008.033-.043.008.026.029-.015.026.082-.007.01.01c-.034.047-.116.048-.144.033l.034.059-.062.187c.078 0 .127-.043.141-.083l.03.031.011-.045.083.017.03-.247.016-.009c.011.085.061.104.103.078l-.026-.026.05-.039-.084-.157z"/><path id="_483311296" class="fil3" d="M.61 1.006l.023-.018.012-.005.033.004.007.015-.035-.007-.011.003-.016.012-.002.011.003.006-.011.009-.004-.008.003-.022zm.053-.061l-.006.003-.01-.001-.003-.003.001-.008.026-.03-.024-.02.03.011.011-.014.002.011.049.062.018.013.053.003.059-.001.022-.009.056.033.023.032-.016.007-.012-.018-.018-.024.008.027-.039-.049-.021.009.014.049.009.013.002.018-.008.049h-.013l.009-.048-.059-.042-.089.012-.022.008-.01.003-.039-.009-.013.006-.008.016.002.01.004.004-.009.014-.009-.01-.001-.019.013-.027.01-.006.049-.001-.015-.024.005-.066-.03.014zm.203.112l-.021.052h-.013l.021-.05-.007-.017.023.011-.003.004zm-.257-.006l.024-.02-.004-.007.002-.008.013-.009.009-.001.038.009h-.04l-.015.011-.003.006-.01.021.004.028.007.009-.015.03h.012l.01-.02.019-.028-.005-.011.005-.01.006-.004.039.009.017-.004.019-.006.02.002.066-.013.015.022-.003.01-.023.054h.035l.02-.049.007-.01-.011.06h.034l.009-.059-.005-.023-.018-.052.008-.002.022.032.068.013-.009-.012-.008-.009-.034-.037-.062-.007h-.063l-.047-.003-.008-.005.009-.003-.065-.068-.008-.013-.011.013-.009.003-.046-.017.035.035-.023.031.001.013.007.009.013.002.008-.004.019-.002-.005.027-.031-.004-.014.003-.027.02-.006.029.011.022z"/><path id="_483311368" class="fil3" d="M.711.38l.035.018v-.015l-.049-.019.014.016z"/><path id="_483311440" class="fil3" d="M.746.362v-.015l-.056-.02.021.017.035.018z"/><path id="_483311512" class="fil3" d="M.746.328v-.015l-.061-.023.026.019.035.018z"/><path id="_483311584" class="fil3" d="M.918.531h.063l-.031-.018-.032.018z"/><path id="_483311656" class="fil3" d="M.852.291l-.061.023v.015l.035-.018.026-.019z"/><path id="_483311728" class="fil3" d="M.841.364l-.049.019v.015l.035-.018.014-.016z"/><path id="_483492552" class="fil3" d="M.847.327l-.056.02v.015l.035-.018.021-.017z"/><path id="_483492624" class="fil3" d="M.587.513l-.031.018h.063l-.032-.018z"/><path id="_483492696" class="fil3" d="M.769.284l-.101-.04.101-.037.1.037-.1.04zm.075.124l-.068.036v-.144l.092-.031-.024.14zm.079.06l-.065.063-.002.003h-.019v.003l-.068.051-.048-.015-.018-.026-.002-.01v-.003h-.019l-.002-.003-.065-.063.069-.04.085.046.085-.046.069.04zm.093.106l-.013.06v.22h-.026l-.021-.049.008.049h-.033l-.015-.05.002.05h-.022l.003-.033-.024-.021.016.005.009-.007-.008-.049-.034-.04-.011-.051-.005-.043-.034-.013-.002.001.037-.028h.171zm-.013.437l-.056.1.013-.026h-.012l-.016.033-.057.01-.105.026-.105-.026-.057-.01.016-.033h-.012l-.014.029-.01-.005.012-.024h-.012l-.009.018-.044-.092v-.144h.469v.144zm-.319-.263l.02.002-.008.039-.019-.006.008-.036zm-.028-.014l.023.001-.004.007-.02-.008zm-.001-.072l-.016.059.006-.096.025-.022.013.028-.032.093.009-.063-.003-.001zm-.013.099l-.015-.007.015.002v.005zm-.016.008l.016.002v.002l-.016-.005zm-.019-.038l.003-.01.02.01h-.023zm.018.053l.012.003-.008.006-.004-.009zm.013-.036l-.013-.009.031.001.015.017-.006.025-.013-.031-.015-.003zm.08.005l.02.002-.009.045-.02-.006.01-.041zm.034.004l.016.002-.008.05-.019-.005.01-.047zm.029.004l.013-.002.005.059-.017-.003-.004-.001.003-.053zm.025-.01l.012-.011.022.055-.013.012-.008.006-.013-.061zm.068.006l-.006.012-.014.013-.023-.055.015-.015.003.003.026.042zm-.037-.099l.002.045-.006.006-.035-.041-.001.01-.023-.036.018.006.002-.011-.032-.027h-.002l.009.001.03-.004.033.019.005.033zm-.144-.083l.055.034.016.026.035.056.025.028-.019.022-.025.01-.086-.01-.033-.016.034-.095-.021-.044-.039.033-.003.099-.017-.008-.007.03h.008l.004.01v.012l-.002.013.01.027.023-.018.134.041.048-.011.035-.031.018.044-.002.026h-.348v-.22l-.013-.06h.171zm-.023-.306l.092.031v.144l-.068-.036-.024-.14zm.224-.017c0-.035-.059-.067-.124-.067s-.124.032-.124.067l.001.009.026.15-.123.072-.032.05h.023l.052-.044.062.044.004.007.006.01h-.181l.026.086v.377c0 .097.075.143.155.143l.105.032.105-.032c.081 0 .155-.046.155-.143v-.377l.026-.086h-.182l.006-.01.004-.007.062-.044.052.044h.022l-.032-.05-.123-.072.026-.15.001-.009z"/><path id="_483492768" class="fil3" d="M.992.716v-.011l-.042-.041.041.052z"/><path id="_483492840" class="fil3" d="M.95.783l-.003-.01-.044-.038.047.049z"/><path id="_483492912" class="fil3" d="M.97.741l-.049-.035.033.046.044.033-.003-.01-.025-.035z"/><path id="_483492984" class="fil3" d="M.949.627v-.011l-.042-.041.041.052z"/><path id="_483493056" class="fil3" d="M.661 1.085l-.016.033h.012l.016-.033z"/><path id="_483493128" class="fil3" d="M.685 1.085l-.016.033h.012l.016-.033z"/><path id="_483493200" class="fil3" d="M.784 1.085l-.016.033h.012l.016-.033z"/><path id="_483493272" class="fil3" d="M.808 1.085l-.016.033h.012l.016-.033z"/><path id="_483493344" class="fil3" d="M.759 1.085l-.016.033h.012l.016-.033z"/><path id="_483493416" class="fil3" d="M.903 1.118h.012l.016-.033h-.012z"/><path id="_483493488" class="fil3" d="M.71 1.085l-.016.033h.012l.016-.033z"/><path id="_483493560" class="fil3" d="M.734 1.085l-.016.033h.012l.016-.033z"/><path id="_483493632" class="fil3" d="M.679.907l-.004.005.004.005.004-.005-.004-.005z"/><path id="_483493704" class="fil3" d="M.674.144l.019-.041.036.019.04-.039.04.039.036-.019.019.041.024-.004-.015.036-.104-.027-.104.027-.015-.036.024.004zm.095.018l.113.035.029-.075-.041.005-.021-.045-.041.021-.04-.039-.04.039-.041-.021-.021.045-.041-.005.029.075.113-.035z"/><path id="_483493776" class="fil3" d="M.81.081l.012-.01-.008-.022-.013.02.01.012z"/><path id="_483493848" class="fil3" d="M.877.105l.014-.005.001-.023-.02.013.005.015z"/><path id="_483493920" class="fil3" d="M.727.081l.01-.012-.013-.02-.008.022.012.01z"/><path id="_483493992" class="fil3" d="M.66.105l.004-.015-.02-.013.001.023.014.005z"/><path id="_483494064" class="fil3" d="M1.398.479l-.008.07-.083-.105.019-.012.134.019-.036.015.045.047-.072-.032zm.062-.008l.031-.031c-.036-.005-.132-.046-.211-.013l.059-.072.045-.007-.032-.011.032-.028-.034.007.001-.037-.017.032-.028-.016.021.034-.033-.005.039.031-.074.086.132.129.035-.05h.072l-.038-.047z"/><path id="_483494136" class="fil3" d="M.757 1.255l-.028-.001-.003.011h.003l.002-.003.01-.001.012.001-.024.037.008.006.009-.01.015-.041h-.003v.001z"/><path id="_483494208" class="fil3" d="M.776 1.272v-.009h.024l-.001-.01-.025.002-.002.019.018.016-.008.013-.003-.001.001-.007-.007-.005-.006.006.015.009.021-.017-.028-.018z"/><path id="_483494280" class="fil3" d="M.833 1.279l-.01-.02.004-.004.011.023-.004.001zm-.005-.027l-.016.015.026.013-.005.019-.003-.005-.008-.004-.004.007.012.005.02-.024-.022-.026z"/><path id="_483494352" class="fil3" d="M.71 1.25l-.02.019.001.002.008-.004-.008.026-.003.001-.004-.001-.001.003.024.004.001-.003-.004-.001-.002-.003.011-.044h-.003z"/><path id="_483494424" class="fil3" d="M.895 1.281l-.022-.07.103-.029v.044l.038.015-.119.04zm-.126.041l-.121-.015.023-.074.098.008.098-.008.023.074-.121.015zm-.245-.081l.038-.015v-.044l.103.029-.022.07-.119-.04zm.464-.024v-.054l-.163.041-.003.019.023.002-.076.005-.076-.005.023-.002-.003-.019-.163-.041v.054l-.057.023.146.054-.007.023.136.019.136-.019-.007-.023.146-.054-.057-.023z"/><path id="_483494496" class="fil3" d="M.068.512l.045-.047-.036-.016.134-.019.019.012-.083.106-.008-.07-.072.032zm.045.006l.035.05.132-.129-.074-.086.039-.031-.033.005.021-.034-.028.016-.017-.032.001.037-.034-.007.032.028-.031.011.044.007.059.072c-.079-.033-.175.007-.211.013l.031.031-.038.047h.072z"/><path id="_483494568" class="fil3" d="M.734.488v.024l.024-.008v.034l-.007.024h.034l-.007-.024v-.034l.024.008v-.024h-.069z"/></g></svg>