<svg xmlns="http://www.w3.org/2000/svg" width="40pt" height="40pt" viewBox="0 0 40 40"><path d="M40 20c0 11.047-8.953 20-20 20s-20-8.953-20-20 8.953-20 20-20 20 8.953 20 20zm0 0" fill="rgb(100%,81.960784%,32.54902%)"/><path d="M19.953 24.996c-.793.773-1.582 1.535-2.359 2.301-.25.27-.605.414-.973.398-.234.008-.445-.156-.496-.387l-1.801-5.559c-.035-.16-.16-.289-.324-.324-1.406-.43-2.813-.867-4.215-1.316-.219-.062-.426-.16-.617-.285-.137-.066-.227-.199-.242-.352-.016-.148.051-.297.168-.391.242-.215.52-.391.82-.512 1.723-.684 3.449-1.344 5.176-2.008l13.148-5.074c.324-.191.73-.168 1.035.055.301.227.441.609.352.977-.078.578-.188 1.148-.328 1.715-.949 4.492-1.902 8.984-2.859 13.477-.227 1.066-.977 1.344-1.852.695-1.473-1.082-2.941-2.168-4.41-3.254l-.223-.156zm-3.301 1.363l.051-.012.027-.121c.094-1.02.191-2.039.273-3.059.012-.211.105-.406.27-.543 1.352-1.211 2.703-2.426 4.051-3.648 1.492-1.344 2.984-2.695 4.477-4.043.082-.105.148-.219.195-.344-.137-.035-.277-.047-.418-.039-.176.059-.344.141-.492.246-3.301 2.078-6.598 4.156-9.895 6.23-.078.031-.141.098-.168.176-.031.082-.023.172.02.246.246.699.465 1.406.695 2.109zm0 0" stroke-width="1.23" stroke="rgb(21.176471%,0%,18.823529%)" fill="none"/></svg>