<svg xmlns="http://www.w3.org/2000/svg" width="40pt" height="40pt" viewBox="0 0 40 40"><path d="M15.094 2.152l1.438-.246c1.25-.184 2.563-.367 3.875-.367h.813l.25.121 1.5.125c.313.063.625.063 1 .121h.126l.625.188c.125 0 .188 0 .313.059l.625.188h.125c.188.059.438.121.625.246h.125l.5.184h.063c.188.063.313.121.5.246l-.063.063h.063l.375.184h.063l.375.184h.125c.125.125.25.246.375.309h.063c.125.063.25.121.375.246l.25.125.125.121h.125l.125.063.25.121.125.125.25.121.125.125.25.121.125.125.125.121.188.125.125.121.125.125.125.063.125.121.125.125.125.121c.063.063.188.125.25.246.063.063.125.125.188.125l.313.305.125.125.125.121.125.125.125.121.125.125.313.309c.063.059.125.121.125.184.063.063.125.184.25.246l.125.125c.063.059.125.184.25.246l.125.184.125.121c.063.125.188.246.25.309l.125.125.125.121v.125l.125.121.125.125.125.246.125.121v.125l.125.121.125.125v.059l.125.125.125.246c.063.121.125.246.25.367v.063l.125.125v.121l.125.125v.059l.188.371v.063l.125.121v.063l.125.125v.059c.063.188.125.309.25.492v.063l.188.492v.063c.063.184.125.43.25.613 0 .063 0 .125.063.188l.188.613v.43c.25.988.438 1.973.438 2.957 0 .059.063.184.125.246v1.043l-.375 3.57-.25 1.418v.059l-.188.617v.121c-.063.188-.125.371-.25.617l-.938 2.094-.438.922c-.75.984-1.5 2.031-2.188 3.016-.25.246-.5.555-.813.801l-.813.797-1.25.926c-.625.43-1.25.859-1.813 1.23l-.938.43c-.688.309-1.438.617-2.125.922-.188.063-.438.125-.625.246h-.063l-.625.188h-.438c-1.5.43-3.063.492-4.625.613h-.938l-.313-.121c-.688-.063-1.313-.125-2-.246l-1.438-.246h-.063c-.25-.063-.5-.125-.75-.246h-.063l-.5-.188c-.063 0-.125 0-.188-.059l-.5-.188h-.063c-.188-.059-.313-.121-.5-.246h-.063l-.375-.184h-.063l-.375-.184h-.125l-.375-.184h-.063c-.125-.063-.25-.125-.375-.25l-.25-.121-.25-.125c-.25.125-.313.063-.375.063l-.25-.121-.125-.125-.25-.121-.125-.125-.25-.121-.125-.125-.125-.121c-.125-.063-.25-.188-.313-.246l-.125-.125s-.125 0-.188-.063c-.063-.059-.188-.121-.25-.246l-.125-.121c-.063-.063-.188-.125-.25-.246-.063-.063-.125-.125-.188-.125l-.313-.305c-.063 0-.125-.063-.125-.125l-.125-.121-.125-.125-.125-.121-.125-.125-.313-.309c-.063-.059-.125-.121-.125-.184-.063-.063-.125-.184-.25-.246l-.125-.125-.125-.121-.125-.125-.125-.184-.125-.121c-.063-.125-.188-.246-.25-.309l-.125-.125c0-.121 0-.121-.063-.184v-.121l-.125-.125-.125-.121c0-.063-.063-.125-.125-.188l-.125-.184-.125-.121-.125-.125v-.121l-.125-.125c0-.121 0-.184-.063-.246-.063-.121-.125-.246-.25-.367v-.063c-.063-.125-.125-.309-.25-.43l-.188-.371v-.063l-.188-.367v-.063c-.125-.309-.188-.43-.313-.617v-.059l-.188-.492c0-.063 0-.125-.063-.188l-.188-.492v-.059l-.188-.617c0-.121 0-.184-.063-.309l-.188-.613v-.063l-.313-2.707-.063-.063v-.86c0-1.234.125-2.402.313-3.633.125-.492.188-.984.25-1.539v-.063l.188-.613v-.125c.063-.184.125-.367.25-.613v-.125c.063-.184.188-.367.25-.613l.125-.246v-.063l.125-.121v-.125l.125-.246.125-.246.688-1.293 1.313-1.844.938-1.234 1.563-1.535 1.25-.926 1.875-1.293.813-.43.25-.121c.188-.063.438-.125.688-.246h.125l.125-.125h.063l.25-.121h.125l.5-.188h.125l.5-.184h.063c.25-.063.5-.121.75-.246l.063-.063zm15.938 8.371c-.188.063-.313.121-.375.184l-1.438.801c-.438.184-.5.184-.813-.184-1.438-1.477-3.188-1.969-5.188-1.539-2.438.555-3.875 2.832-3.875 4.922 0 .492.125.984.188 1.477h-.438c-1.625 0-3.188-.492-4.688-1.105-1.938-.863-3.688-2.094-5.125-3.633l-.563-.555c-.688 1.109-.75 2.277-.563 3.508.188 1.047.688 1.91 1.375 2.648.125.121.25.309.375.492-.75.184-1.375-.184-2.125-.492.188 2.582 1.625 4.121 3.938 4.984-.375.121-.688.184-1 .246l-1-.063c.438 1.047 1 1.848 1.75 2.461.813.68 1.75.984 2.938 1.172-2.063 1.535-4.313 2.152-6.813 2.027.563.371 1.063.68 1.625.926 1.375.613 2.813 1.047 4.313 1.23 1.438.184 2.813.184 4.25-.063 1.75-.309 3.375-.859 4.875-1.785 2.313-1.352 4.125-3.199 5.375-5.539 1.125-2.09 1.688-4.367 1.688-6.77 0-.492.125-.797.5-1.168.75-.676 1.375-1.414 2.063-2.152l-.063-.063c-.875.246-1.75.492-2.688.738.5-.922 1.25-1.602 1.5-2.707zm0 0" fill="rgb(26.666667%,73.333333%,91.372549%)"/><path d="M31.031 10.523c-.25 1.047-1 1.785-1.375 2.832.938-.246 1.813-.492 2.688-.738l.063.059c-.688.738-1.375 1.477-2.063 2.156-.375.305-.5.676-.5 1.168 0 2.398-.563 4.676-1.688 6.77-1.25 2.34-3.063 4.184-5.375 5.539-1.5.922-3.125 1.477-4.875 1.785-1.375.246-2.813.246-4.25.059-1.5-.184-2.938-.613-4.313-1.23-.563-.246-1.125-.613-1.625-.922 2.5.063 4.75-.492 6.813-2.031-1.125-.184-2.063-.492-2.938-1.168-.813-.676-1.375-1.477-1.75-2.461.375.059.688.059 1 .059.313 0 .625-.121 1-.246-2.313-.859-3.75-2.398-3.938-4.984.75.309 1.313.68 2.125.492-.125-.184-.25-.367-.375-.492-.688-.738-1.188-1.66-1.375-2.645-.188-1.168-.125-2.34.563-3.508l.563.555c1.438 1.539 3.125 2.77 5.125 3.629 1.5.617 3 1.109 4.688 1.109h.438c-.063-.492-.188-.984-.188-1.477-.063-2.094 1.438-4.371 3.875-4.926 2-.492 3.75 0 5.188 1.539.313.309.375.371.813.184l1.438-.797c-.063-.188.063-.188.25-.309zm0 0" fill="rgb(98.823529%,99.215686%,99.607843%)"/></svg>