<svg xmlns="http://www.w3.org/2000/svg" width="40pt" height="40pt" viewBox="0 0 40 40"><path d="M40 20c0 11.047-8.953 20-20 20s-20-8.953-20-20 8.953-20 20-20 20 8.953 20 20zm0 0" fill="rgb(30.196078%,46.27451%,63.137255%)"/><path d="M19.246 28.773h1.566s.477-.055.719-.316c.223-.238.215-.688.215-.688s-.031-2.105.945-2.418c.965-.305 2.203 2.035 3.516 2.938.992.68 1.746.531 1.746.531l3.504-.047s1.836-.113.965-1.559c-.07-.117-.504-1.066-2.605-3.016-2.199-2.043-1.906-1.711.742-5.242 1.613-2.148 2.258-3.461 2.059-4.023-.191-.535-1.379-.395-1.379-.395l-3.949.023s-.293-.039-.508.09c-.215.129-.352.426-.352.426s-.625 1.664-1.457 3.078c-1.758 2.984-2.461 3.145-2.75 2.957-.668-.43-.5-1.734-.5-2.66 0-2.895.438-4.102-.855-4.414-.43-.102-.746-.172-1.844-.184-1.406-.016-2.602.004-3.277.336-.449.219-.793.711-.582.738.262.035.852.16 1.164.586.406.551.391 1.785.391 1.785s.234 3.406-.543 3.832c-.531.289-1.262-.305-2.828-3.012-.805-1.387-1.41-2.922-1.41-2.922s-.117-.285-.328-.441c-.25-.184-.605-.242-.605-.242l-3.754.023s-.563.016-.77.262c-.184.219-.012.668-.012.668s2.938 6.871 6.262 10.336c3.051 3.176 6.516 2.969 6.516 2.969zm0 0" fill-rule="evenodd" fill="#fff"/></svg>