<svg xmlns="http://www.w3.org/2000/svg" width="40pt" height="40pt" viewBox="0 0 40 40"><defs><linearGradient id="a" gradientUnits="userSpaceOnUse" x1=".743" x2=".743" y2="1.493" gradientTransform="scale(26.785)"><stop offset="0" stop-color="rgb(100%,67.843137%,39.215686%)"/><stop offset="1" stop-color="rgb(100%,43.529412%,9.411765%)"/></linearGradient></defs><g fill-rule="evenodd"><path d="M6.703 0h21.141l11.934 19.004v1.918l-11.934 19.078h-21.141c-3.688 0-6.703-3.016-6.703-6.703v-26.594c0-3.688 3.016-6.703 6.703-6.703zm0 0" fill="url(#a)"/><path d="M5.672 16.551c.051-1.656 1.273-2.156 2.727-2.996 3.73-2.039 7.465-4.078 11.195-6.113 1.645-.926 2.293.254 2.285.957v13.113c.016 1.34-1.938 2.113-3.684 2.797-2.973 1.18-5.941 2.359-8.914 3.535-1.117.492-.488 1.777.738 1.254l11.637-3.168c1.934-.512 2.082-1.156 2.137-2.211-.023-2.797-.047-5.598-.074-8.398 3.82-.273 3.242 1.227 3.316 2.508l.074 11.563c-.027 1.313-.719 1.801-1.77 1.844-5.918.023-11.836.047-17.754.074-1.324-.02-1.902-.902-1.914-2.211v-12.547zm11.316-2.215c.766-.398 1.391-.129 1.391.598s-.625 1.637-1.391 2.031c-.77.398-1.391.129-1.391-.598s.621-1.637 1.391-2.031zm0 0" fill="rgb(99.607843%,99.607843%,99.607843%)"/></g></svg>