<svg xmlns="http://www.w3.org/2000/svg" width="40pt" height="40pt" viewBox="0 0 40 40"><path d="M30.957 26.625c1.426 1.891 2.895 3.828 4.367 5.762-2.941 3.434-6.594 5.637-11.004 6.559-4.898 1.012-9.531.266-14.031-2.199 4.008-2.949 7.93-5.855 11.895-8.758l2.582 2.465c.938.879.578.922 1.781.262 1.648-.922 3.031-2.199 4.098-3.738l.18-.266.133-.086zm-17.504 3.871c-1.113.836-2.141 1.586-3.164 2.375l-2.27 1.676c-.313.262-.535.262-.895-.047-3.383-2.992-5.52-6.688-6.324-11.09-.801-4.445-.09-8.668 2.051-12.676l.176-.305.137-.09 8.863 11.488c-.09.129-.133.219-.223.305-.891.926-1.781 1.852-2.719 2.73-.266.266-.313.484-.133.793.934 1.758 2.227 3.211 3.832 4.398l.668.441zm16.613-27.328c-1.426 1.012-2.852 2.023-4.277 2.992-2.449 1.715-4.898 3.477-7.305 5.191-.313.223-.535.266-.801-.043l-2.449-2.422c-.223-.219-.445-.262-.758-.133-1.914.969-3.43 2.336-4.676 4.051-.09.086-.18.219-.27.352-.711-.922-1.379-1.762-2.047-2.641-.715-.922-1.383-1.848-2.051-2.727-.223-.309-.266-.531.047-.836 3.43-3.742 7.66-5.941 12.738-6.473 4.008-.438 7.84.355 11.402 2.246l.402.219c0 .133 0 .176.043.223zm7.262 26.402c-.938-1.188-1.781-2.285-2.629-3.387-1.961-2.555-3.918-5.148-5.926-7.703-.266-.352-.266-.57.047-.879l2.492-2.508c.223-.223.313-.441.137-.75-.98-1.848-2.316-3.387-4.055-4.621-.133-.086-.27-.219-.445-.309l.355-.305c1.691-1.277 3.387-2.512 5.078-3.785.266-.223.492-.309.801 0 4.234 3.785 6.504 8.492 6.727 14.168.09 3.301-.668 6.426-2.184 9.375-.133.176-.266.398-.398.703zm0 0" fill="rgb(13.72549%,9.411765%,8.235294%)"/></svg>