<svg width="35" height="35" viewBox="0 0 35 35" fill="none" xmlns="http://www.w3.org/2000/svg">
<path fill-rule="evenodd" clip-rule="evenodd" d="M11 12C11 8.13401 14.134 5 18 5C21.866 5 25 8.13401 25 12C25 15.866 21.866 19 18 19C14.134 19 11 15.866 11 12ZM18 3C13.0294 3 9 7.02944 9 12C9 15.4829 10.9784 18.5038 13.8728 20H13.6667C11.4098 20 9.22194 20.7784 7.58934 22.198C5.95231 23.6215 5 25.5846 5 27.6667V31C5 31.5523 5.44772 32 6 32C6.55228 32 7 31.5523 7 31V27.6667C7 26.2125 7.66316 24.7842 8.90169 23.7072C10.1446 22.6264 11.8569 22 13.6667 22H21.3333C23.1431 22 24.8553 22.6264 26.0983 23.7072C27.3368 24.7842 28 26.2125 28 27.6667V31C28 31.5523 28.4477 32 29 32C29.5523 32 30 31.5523 30 31V27.6667C30 25.5846 29.0477 23.6215 27.4107 22.198C25.9571 20.9341 24.0635 20.1784 22.0728 20.0279C24.9967 18.5416 27 15.5047 27 12C27 7.02944 22.9706 3 18 3Z"/>
</svg>
