<svg width="35" height="35" viewBox="0 0 35 35" fill="none" xmlns="http://www.w3.org/2000/svg">
<path fill-rule="evenodd" clip-rule="evenodd" d="M8.95801 5.54163C7.86399 5.54163 6.81478 5.97622 6.04119 6.74981C5.2676 7.5234 4.83301 8.57261 4.83301 9.66663V19.9166C4.83301 21.0106 5.2676 22.0599 6.04119 22.8334C6.81478 23.607 7.86399 24.0416 8.95801 24.0416H12.3747C12.6399 24.0416 12.8942 24.147 13.0818 24.3345L17.4997 28.7524L21.9176 24.3345C22.1051 24.147 22.3595 24.0416 22.6247 24.0416H26.0413C27.1354 24.0416 28.1846 23.607 28.9582 22.8334C29.7317 22.0599 30.1663 21.0106 30.1663 19.9166V9.66663C30.1663 8.57261 29.7317 7.5234 28.9582 6.74981C28.1846 5.97622 27.1354 5.54163 26.0413 5.54163H8.95801ZM4.62698 5.3356C5.77564 4.18694 7.33356 3.54163 8.95801 3.54163H26.0413C27.6658 3.54163 29.2237 4.18694 30.3724 5.3356C31.521 6.48426 32.1663 8.04217 32.1663 9.66663V19.9166C32.1663 21.5411 31.521 23.099 30.3724 24.2477C29.2237 25.3963 27.6658 26.0416 26.0413 26.0416H23.0389L18.2068 30.8737C17.8163 31.2643 17.1831 31.2643 16.7926 30.8737L11.9605 26.0416H8.95801C7.33356 26.0416 5.77564 25.3963 4.62698 24.2477C3.47832 23.099 2.83301 21.5411 2.83301 19.9166V9.66663C2.83301 8.04217 3.47832 6.48426 4.62698 5.3356ZM9.66699 11.375C9.66699 10.8227 10.1147 10.375 10.667 10.375H24.3337C24.8859 10.375 25.3337 10.8227 25.3337 11.375C25.3337 11.9273 24.8859 12.375 24.3337 12.375H10.667C10.1147 12.375 9.66699 11.9273 9.66699 11.375ZM10.667 17.2084C10.1147 17.2084 9.66699 17.6561 9.66699 18.2084C9.66699 18.7607 10.1147 19.2084 10.667 19.2084H20.917C21.4693 19.2084 21.917 18.7607 21.917 18.2084C21.917 17.6561 21.4693 17.2084 20.917 17.2084H10.667Z" fill="white"/>
</svg>
